<svg width="24" height="24" viewBox="0 0 24 24" fill="none" xmlns="http://www.w3.org/2000/svg">
<path d="M15.84 12C15.84 11.2405 15.6148 10.4981 15.1928 9.86661C14.7709 9.23513 14.1712 8.74294 13.4695 8.4523C12.7678 8.16166 11.9957 8.08562 11.2509 8.23378C10.506 8.38195 9.82174 8.74768 9.28471 9.28471C8.74768 9.82174 8.38195 10.506 8.23378 11.2509C8.08562 11.9957 8.16166 12.7678 8.4523 13.4695C8.74294 14.1712 9.23513 14.7709 9.86661 15.1928C10.4981 15.6148 11.2405 15.84 12 15.84C13.0175 15.8368 13.9923 15.4312 14.7118 14.7118C15.4312 13.9923 15.8368 13.0175 15.84 12ZM24 17.28V6.72C24 4.93775 23.292 3.22849 22.0318 1.96824C20.7715 0.707998 19.0623 0 17.28 0H6.72C4.93775 0 3.22849 0.707998 1.96824 1.96824C0.707998 3.22849 0 4.93775 0 6.72V17.28C0 19.0623 0.707998 20.7715 1.96824 22.0318C3.22849 23.292 4.93775 24 6.72 24H17.28C19.0623 24 20.7715 23.292 22.0318 22.0318C23.292 20.7715 24 19.0623 24 17.28ZM17.76 12C17.76 13.1392 17.4222 14.2529 16.7893 15.2001C16.1563 16.1473 15.2568 16.8856 14.2043 17.3215C13.1518 17.7575 11.9936 17.8716 10.8763 17.6493C9.75895 17.4271 8.73262 16.8785 7.92706 16.0729C7.12151 15.2674 6.57293 14.2411 6.35068 13.1237C6.12843 12.0064 6.24249 10.8482 6.67845 9.79574C7.11441 8.74324 7.85269 7.84365 8.79992 7.21074C9.74714 6.57782 10.8608 6.24 12 6.24C13.5276 6.24 14.9927 6.84686 16.0729 7.92706C17.1531 9.00727 17.76 10.4724 17.76 12ZM19.68 18.24C19.68 18.5248 19.5955 18.8032 19.4373 19.04C19.2791 19.2768 19.0542 19.4614 18.7911 19.5704C18.5279 19.6794 18.2384 19.7079 17.9591 19.6523C17.6797 19.5968 17.4232 19.4596 17.2218 19.2582C17.0204 19.0568 16.8832 18.8003 16.8277 18.5209C16.7721 18.2416 16.8006 17.9521 16.9096 17.6889C17.0186 17.4258 17.2032 17.2009 17.44 17.0427C17.6768 16.8845 17.9552 16.8 18.24 16.8C18.6219 16.8 18.9882 16.9517 19.2582 17.2218C19.5283 17.4918 19.68 17.8581 19.68 18.24Z" fill="#2A63ED"/>
</svg>
