<svg width="25" height="21" viewBox="0 0 25 21" fill="none" xmlns="http://www.w3.org/2000/svg">
<path d="M25 2.47059C24.0798 2.90294 23.088 3.18706 22.0602 3.32294C23.1119 2.66824 23.9245 1.63059 24.3069 0.382941C23.315 1.00059 22.2156 1.43294 21.0564 1.68C20.1123 0.617647 18.7859 0 17.2801 0C14.4718 0 12.1773 2.37176 12.1773 5.29941C12.1773 5.71941 12.2251 6.12706 12.3088 6.51C8.05449 6.28765 4.26625 4.17529 1.74474 0.975882C1.30258 1.75412 1.05163 2.66824 1.05163 3.63176C1.05163 5.47235 1.9479 7.10294 3.33413 8.02941C2.48566 8.02941 1.69694 7.78235 1.00382 7.41176V7.44882C1.00382 10.0182 2.77247 12.1676 5.11472 12.6494C4.36272 12.8621 3.57325 12.8917 2.80832 12.7359C3.1329 13.7889 3.76857 14.7104 4.62598 15.3707C5.48339 16.031 6.51942 16.3969 7.58843 16.4171C5.77633 17.9 3.53011 18.7015 1.21893 18.69C0.81262 18.69 0.40631 18.6653 0 18.6159C2.27055 20.1229 4.97132 21 7.86329 21C17.2801 21 22.4546 12.9212 22.4546 5.91706C22.4546 5.68235 22.4546 5.46 22.4426 5.22529C23.4465 4.48412 24.3069 3.54529 25 2.47059Z" fill="#2A63ED"/>
</svg>
