<svg width="202" height="24" viewBox="0 0 202 24" fill="none" xmlns="http://www.w3.org/2000/svg">
<path d="M1.99208 5.69727V17.0753H0V5.69727H1.99208ZM4.51423 12.2332H1.38558V10.5517H4.40575C4.95554 10.5517 5.37466 10.4137 5.66558 10.14C5.95651 9.86634 6.10197 9.47433 6.10197 8.96398C6.10197 8.47582 5.95158 8.10354 5.65079 7.84467C5.35001 7.5858 4.91363 7.45513 4.34411 7.45513H1.32394V5.69727H4.51423C5.64587 5.69727 6.53342 5.9734 7.17443 6.5232C7.81792 7.07299 8.13843 7.82494 8.13843 8.77907C8.13843 9.46446 7.97324 10.0364 7.64041 10.4999C7.30757 10.961 6.81448 11.2963 6.16114 11.5034V11.2864C6.86626 11.4516 7.40126 11.7647 7.76368 12.2208C8.1261 12.6769 8.30855 13.2687 8.30855 13.996C8.30855 14.6394 8.16308 15.1917 7.87216 15.6527C7.58124 16.1138 7.15964 16.4663 6.60492 16.7104C6.05019 16.9545 5.38206 17.0753 4.60545 17.0753H1.32147V15.3174H4.51176C5.08128 15.3174 5.51766 15.1818 5.81844 14.9131C6.11923 14.6444 6.26962 14.2548 6.26962 13.7469C6.26962 13.2711 6.11677 12.8988 5.81105 12.635C5.5078 12.3663 5.07388 12.2332 4.51423 12.2332Z" fill="black"/>
<path d="M11.6094 12.9186V5.69727H13.6014V12.7953C13.6014 13.6163 13.8184 14.2425 14.2548 14.6789C14.6912 15.1153 15.3075 15.3322 16.1063 15.3322C16.915 15.3322 17.5388 15.1128 17.9751 14.6715C18.4115 14.2302 18.6285 13.6064 18.6285 12.7953V5.69727H20.6206V12.9186C20.6206 13.8012 20.4357 14.5655 20.0683 15.2139C19.701 15.8623 19.1783 16.3652 18.5052 16.7227C17.8297 17.0802 17.0309 17.2602 16.1088 17.2602C15.1966 17.2602 14.4027 17.0827 13.7272 16.7301C13.0517 16.3776 12.5315 15.8746 12.1641 15.2213C11.7943 14.5679 11.6094 13.8012 11.6094 12.9186Z" fill="black"/>
<path d="M26.6132 5.69727V17.0753H24.6211V5.69727H26.6132ZM24.9613 17.0728V15.2361H31.3592V17.0728H24.9613Z" fill="black"/>
<path d="M36.5428 5.69727V17.0753H34.5508V5.69727H36.5428ZM34.8935 17.0728V15.2361H41.2913V17.0728H34.8935Z" fill="black"/>
<path d="M46.4745 5.69727V17.0753H44.4824V5.69727H46.4745Z" fill="black"/>
<path d="M60.917 11.3772C60.917 12.5286 60.6828 13.5493 60.2168 14.4344C59.7509 15.3219 59.1024 16.0147 58.2716 16.5127C57.4407 17.0107 56.4817 17.2598 55.392 17.2598C54.3121 17.2598 53.358 17.0107 52.5271 16.5127C51.6963 16.0147 51.0503 15.3244 50.5893 14.4418C50.1282 13.5591 49.8965 12.5434 49.8965 11.392C49.8965 10.2308 50.1307 9.20515 50.5967 8.31759C51.0626 7.43003 51.7086 6.73724 52.5345 6.23922C53.3604 5.7412 54.317 5.49219 55.4067 5.49219C56.4965 5.49219 57.4531 5.7412 58.279 6.23922C59.1049 6.73724 59.7509 7.42757 60.2168 8.3102C60.6828 9.19283 60.917 10.216 60.917 11.3772ZM58.8313 11.3772C58.8313 10.5686 58.6907 9.86836 58.4121 9.27665C58.1335 8.68495 57.7366 8.22637 57.2287 7.89846C56.7208 7.57056 56.1143 7.40784 55.4067 7.40784C54.7115 7.40784 54.1075 7.57056 53.5947 7.89846C53.0818 8.22637 52.6849 8.68495 52.4038 9.27665C52.1228 9.86836 51.9847 10.5686 51.9847 11.3772C51.9847 12.1859 52.1252 12.8885 52.4038 13.4852C52.6824 14.0818 53.0818 14.5404 53.5947 14.8633C54.1075 15.1839 54.7115 15.3466 55.4067 15.3466C56.1119 15.3466 56.7184 15.1839 57.2287 14.856C57.7366 14.528 58.1311 14.067 58.4121 13.4704C58.6907 12.8737 58.8313 12.176 58.8313 11.3772Z" fill="black"/>
<path d="M66.2999 17.0724H64.3398V5.69434H66.3171L72.2317 14.6439H71.6548V5.69434H73.6149V17.0724H71.6548L65.7254 8.1376H66.3023V17.0724H66.2999Z" fill="black"/>
<path d="M115.749 17.0724H113.789V5.69434H115.766L121.681 14.6439H121.104V5.69434H123.064V17.0724H121.104L115.175 8.1376H115.752V17.0724H115.749Z" fill="black"/>
<path d="M134.209 17.0724H127.143V5.69434H134.209V7.53109H128.434L129.135 6.89255V10.4576H133.678V12.2154H129.135V15.8717L128.434 15.2331H134.209V17.0724Z" fill="black"/>
<path d="M136.918 7.53402V5.69727H145.572V7.53402H136.918ZM142.241 6.64647V17.0753H140.249V6.64647H142.241Z" fill="black"/>
<path d="M151.017 17.0724L147.625 5.69434H149.696L151.501 11.7026C151.594 12.0133 151.683 12.3436 151.764 12.6913C151.848 13.0389 151.93 13.4605 152.013 13.9585C152.107 13.4506 152.198 13.0266 152.285 12.6913C152.373 12.3535 152.465 12.0256 152.558 11.7026L154.363 5.69434H156.557L158.315 11.7026C158.409 12.0231 158.5 12.3609 158.586 12.7135C158.673 13.066 158.766 13.4827 158.86 13.9585C158.964 13.4284 159.06 12.997 159.148 12.6592C159.237 12.3214 159.321 12.0133 159.405 11.7322L161.242 5.69434H163.266L159.809 17.0724H157.879L155.45 8.7934L152.96 17.0724H151.017Z" fill="black"/>
<path d="M176.682 11.3772C176.682 12.5286 176.448 13.5493 175.982 14.4344C175.516 15.3219 174.865 16.0147 174.037 16.5127C173.206 17.0107 172.247 17.2598 171.157 17.2598C170.077 17.2598 169.123 17.0107 168.293 16.5127C167.462 16.0147 166.816 15.3244 166.355 14.4418C165.894 13.5591 165.662 12.5434 165.662 11.392C165.662 10.2308 165.896 9.20515 166.362 8.31759C166.828 7.43003 167.474 6.73724 168.3 6.23922C169.126 5.7412 170.082 5.49219 171.172 5.49219C172.262 5.49219 173.218 5.7412 174.044 6.23922C174.87 6.73724 175.514 7.42757 175.982 8.3102C176.448 9.19283 176.682 10.216 176.682 11.3772ZM174.597 11.3772C174.597 10.5686 174.456 9.86836 174.178 9.27665C173.899 8.68495 173.502 8.22637 172.994 7.89846C172.486 7.57056 171.88 7.40784 171.172 7.40784C170.477 7.40784 169.873 7.57056 169.36 7.89846C168.847 8.22637 168.45 8.68495 168.169 9.27665C167.888 9.86836 167.75 10.5686 167.75 11.3772C167.75 12.1859 167.891 12.8885 168.169 13.4852C168.448 14.0818 168.847 14.5404 169.36 14.8633C169.873 15.1839 170.479 15.3466 171.172 15.3466C171.877 15.3466 172.484 15.1839 172.994 14.856C173.502 14.528 173.896 14.067 174.178 13.4704C174.456 12.8737 174.597 12.176 174.597 11.3772Z" fill="black"/>
<path d="M182.098 17.0724H180.105V5.69434H184.447C185.734 5.69434 186.737 6.00499 187.457 6.62875C188.177 7.25004 188.54 8.1228 188.54 9.24458C188.54 10.0015 188.365 10.6474 188.017 11.1824C187.669 11.7174 187.159 12.1242 186.484 12.4053L188.646 17.0748H186.466L184.536 12.8269H182.093V17.0724H182.098ZM182.098 7.46946V11.0641H184.447C185.081 11.0641 185.574 10.9038 185.926 10.5808C186.279 10.2603 186.456 9.8141 186.456 9.24211C186.456 8.6726 186.279 8.23374 185.926 7.92803C185.574 7.62231 185.081 7.46946 184.447 7.46946H182.098Z" fill="black"/>
<path d="M194.082 5.69727V17.0753H192.09V5.69727H194.082ZM201.039 5.69727L193.616 15.2533V12.28L198.69 5.69727H201.039ZM195.889 12.0926L197.166 10.3816L201.089 17.0753H198.786L195.889 12.0926Z" fill="black"/>
<path d="M85.0364 4.03142C84.8073 4.70053 84.5757 5.35716 84.364 6.01878C84.2992 6.22101 84.2743 6.44571 84.2743 6.65793C84.2743 6.77528 84.3665 6.89263 84.4188 7.02245C84.8048 6.82522 84.5234 6.12613 85.1609 6.21352C85.1311 6.4532 85.0987 6.67542 85.0738 6.89762C84.9493 8.00365 85.4324 8.81756 86.319 9.41177C86.8047 9.73633 87.3277 10.0085 87.8258 10.3156C88.0175 10.4329 88.2093 10.5677 88.3538 10.735C88.5605 10.9697 88.5231 11.2418 88.3762 11.5115C88.1844 11.8635 87.9702 12.2081 87.8307 12.5801C87.6514 13.0619 87.7635 13.3116 88.1869 13.6062C88.6053 13.8958 88.9241 14.2728 88.8967 14.8021C88.8693 15.3314 89.1208 15.7034 89.5268 15.9206C90.5329 16.4624 90.6525 17.3487 90.4707 18.3099C90.3461 18.9716 90.4831 19.5458 90.6898 20.1475C90.8169 20.512 90.8816 20.904 90.9239 21.2885C90.9663 21.6855 91.3573 22.2522 91.7383 22.3796C91.9625 22.4545 92.1393 22.3346 92.2439 22.06C92.3834 21.6955 92.5502 21.3409 92.6723 20.9714C92.7445 20.7517 92.7395 20.5045 92.7993 20.2798C92.8516 20.0801 92.9313 19.8829 93.0284 19.6981C93.1554 19.4559 93.3671 19.2462 93.4368 18.9915C93.5962 18.3998 93.9723 17.9879 94.4081 17.6009C94.7145 17.3288 95.0208 17.0516 95.2947 16.747C95.6036 16.405 95.7928 16.0255 95.743 15.5162C95.7156 15.2315 95.9074 14.9294 95.9796 14.6323C96.0643 14.2853 96.1714 13.9333 96.1888 13.5812C96.2162 13.0744 95.87 12.6874 95.3844 12.5401C95.0631 12.4427 94.7593 12.288 94.438 12.1956C94.1591 12.1157 93.8677 12.0782 93.5813 12.0358C93.4617 12.0183 93.3322 12.0508 93.2127 12.0358C92.9462 12.0008 92.8391 11.7761 92.9612 11.5389C93.1953 11.092 93.1181 10.8648 92.6598 10.6776C92.3609 10.5552 92.1144 10.383 91.9127 10.1133C91.5839 9.67142 91.0833 9.60152 90.5753 9.65145C90.2341 9.68641 89.9128 9.65146 89.5741 9.60901C89.208 9.56158 88.8145 9.6964 88.4359 9.76381C88.2043 9.80375 87.9777 9.87616 87.7461 9.9186C87.5792 9.94856 87.4472 9.88364 87.4547 9.69389C87.4671 9.35684 87.3376 9.07722 87.1558 8.80757C86.9666 8.52794 86.9541 8.23085 87.1384 7.83388C86.9018 7.82888 86.7075 7.79642 86.5232 7.82638C86.2543 7.87132 86.1547 7.77644 86.1248 7.51429C86.0899 7.19721 86.1696 6.92008 86.3464 6.66791C86.6278 6.26345 86.9143 5.86649 87.248 5.39711C87.5045 5.61932 87.7859 5.86148 88.0624 6.10366C88.2018 6.226 88.3264 6.36582 88.4733 6.47318C88.5231 6.51063 88.6377 6.50314 88.6999 6.47068C88.7373 6.45071 88.7572 6.33336 88.7348 6.27843C88.4409 5.48948 88.9116 4.98016 89.3948 4.48831C89.9103 3.96151 90.5703 3.6769 91.2651 3.46468C91.6238 3.35483 91.6462 3.25246 91.4121 2.98032C91.3448 2.90043 91.2502 2.73314 91.2751 2.70568C91.3672 2.60831 91.5142 2.48097 91.6213 2.49845C91.8429 2.53091 92.0521 2.65326 92.2688 2.73066C92.3659 2.76561 92.468 2.78557 92.5702 2.81304C92.5951 2.69819 92.6698 2.56836 92.6399 2.47099C92.473 1.90674 92.0895 1.50727 91.5789 1.25011C91.4469 1.1852 91.1755 1.24262 91.0559 1.34748C90.8293 1.54722 90.6624 1.81686 90.4757 2.06153C90.3188 2.26876 90.1793 2.51094 89.8555 2.38361C89.5318 2.25628 89.2603 1.83434 89.3475 1.54971C89.3773 1.44985 89.5093 1.35498 89.6164 1.30754C89.8281 1.21517 90.0523 1.13777 90.2789 1.09283C90.6076 1.02542 90.9439 0.98796 91.2751 0.940523C91.5939 0.895583 91.9127 0.855641 92.2987 0.805708C92.1667 0.551046 92.0795 0.38127 91.9675 0.164058C92.0646 0.164058 92.1368 0.171546 92.2041 0.161559C92.3186 0.146579 92.4606 0.154077 92.5453 0.0916599C92.7794 -0.0856046 92.8964 0.0117679 92.9861 0.233973C93.0981 0.503614 93.2077 0.775753 93.3198 1.04539C93.3646 1.06537 93.4119 1.08784 93.4568 1.10781C93.5041 1.01793 93.5564 0.928046 93.6012 0.838166C93.8577 0.323849 94.3484 0.169052 94.8465 0.101641C96.0543 -0.0681333 97.1228 0.268923 98.0169 1.12029C98.0467 1.14776 98.0816 1.17771 98.0965 1.21267C98.1812 1.40491 98.2609 1.59966 98.3431 1.7919C98.1563 1.83684 97.967 1.88427 97.7803 1.92422C97.7304 1.9342 97.6682 1.90425 97.6283 1.92672C97.5163 1.98913 97.3594 2.04406 97.3195 2.14393C97.2523 2.3112 97.3394 2.4685 97.5287 2.52842C97.7055 2.58335 97.8898 2.61081 98.0617 2.67572C98.4328 2.81803 98.4651 2.99279 98.2759 3.32485C98.1663 3.5171 98.1439 3.75679 98.0841 3.974C98.3008 3.99397 98.5174 4.00895 98.7341 4.03142C98.8935 4.0464 99.0579 4.09883 99.2123 4.07886C99.3767 4.05639 99.5634 3.99896 99.683 3.8916C99.7851 3.79923 99.8075 3.61697 99.8573 3.46966C99.9794 3.11014 100.243 3.02026 100.577 3.20502C100.736 3.2924 100.918 3.37728 101.093 3.38727C101.362 3.40475 101.501 3.53208 101.598 3.76177C101.715 4.0389 101.88 4.17373 102.221 4.06388C102.465 3.98648 102.751 4.02643 103.018 4.03392C103.075 4.03641 103.172 4.1163 103.182 4.17123C103.214 4.37346 103.242 4.58069 103.214 4.78042C103.205 4.86531 103.035 5.00763 102.975 4.99015C102.687 4.90776 102.475 5.02511 102.268 5.19488C102.101 5.3322 101.994 5.31722 101.842 5.13246C101.631 4.8753 101.391 4.61065 101.105 4.45336C100.42 4.07386 99.81 4.4209 99.2372 4.77792C98.7964 5.05256 98.6519 5.477 98.754 5.98632C98.8362 6.40077 98.9035 6.82021 99.0031 7.22967C99.0703 7.5093 99.0529 7.75648 98.8761 7.98867C98.8014 8.08604 98.7316 8.19589 98.6943 8.31074C98.6345 8.49549 98.6046 8.73018 98.8786 8.73018C99.4912 8.73267 99.6506 9.17709 99.8249 9.62399C99.8922 9.79626 99.9495 9.97353 100.037 10.1358C100.316 10.6626 100.652 10.7849 101.19 10.5577C101.581 10.393 101.952 10.2881 102.365 10.5353C102.502 10.6177 102.726 10.5527 102.911 10.5503C103.269 10.5453 103.376 10.6451 103.364 11.0022C103.356 11.2094 103.312 11.4166 103.327 11.6188C103.339 11.7986 103.424 11.9709 103.456 12.1506C103.493 12.3529 103.561 12.5726 103.518 12.7648C103.444 13.1069 103.304 13.4314 103.471 13.786C103.508 13.8634 103.501 13.9732 103.483 14.0606C103.304 14.9369 103.13 15.8133 102.926 16.6846C102.863 16.9517 102.716 17.1964 102.607 17.4536C102.599 17.4736 102.587 17.491 102.579 17.5085C102.388 17.8955 102.475 18.4173 102.766 18.6445C102.936 18.7743 103.314 18.662 103.64 18.3524C104.138 17.878 104.624 17.3912 105.09 16.9318C103.889 19.9752 100.458 23.2134 95.9622 23.8676C90.2565 24.6965 85.2481 21.5482 83.1412 16.8369C81.0417 12.1257 82.2994 7.07238 85.0364 4.03142Z" fill="#2A63ED"/>
</svg>
