<svg width="103" height="42" viewBox="0 0 103 42" fill="none" xmlns="http://www.w3.org/2000/svg">
<path d="M1.19341 35.0703V41.8866H0V35.0703H1.19341ZM2.70437 38.9858H0.830068V37.9785H2.63938C2.96875 37.9785 3.21984 37.8958 3.39412 37.7319C3.56841 37.5679 3.65555 37.3331 3.65555 37.0273C3.65555 36.7349 3.56545 36.5119 3.38526 36.3568C3.20507 36.2017 2.94364 36.1234 2.60246 36.1234H0.793143V35.0703H2.70437C3.38231 35.0703 3.91402 35.2357 4.29804 35.5651C4.68353 35.8945 4.87555 36.345 4.87555 36.9166C4.87555 37.3272 4.77659 37.6698 4.57719 37.9475C4.3778 38.2237 4.0824 38.4246 3.691 38.5486V38.4186C4.11342 38.5176 4.43392 38.7052 4.65104 38.9784C4.86816 39.2517 4.97746 39.6062 4.97746 40.0419C4.97746 40.4274 4.89031 40.7582 4.71603 41.0344C4.54174 41.3106 4.28918 41.5218 3.95685 41.668C3.62453 41.8142 3.22427 41.8866 2.75902 41.8866H0.791665V40.8335H2.70289C3.04408 40.8335 3.3055 40.7523 3.48569 40.5913C3.66589 40.4303 3.75599 40.1969 3.75599 39.8927C3.75599 39.6076 3.66441 39.3846 3.48127 39.2266C3.2996 39.0656 3.03965 38.9858 2.70437 38.9858Z" fill="#222222"/>
<path d="M6.95508 39.3964V35.0703H8.14848V39.3226C8.14848 39.8144 8.27846 40.1896 8.53989 40.451C8.80131 40.7124 9.17056 40.8424 9.64911 40.8424C10.1336 40.8424 10.5072 40.7109 10.7687 40.4466C11.0301 40.1822 11.1601 39.8085 11.1601 39.3226V35.0703H12.3535V39.3964C12.3535 39.9252 12.2427 40.3831 12.0226 40.7715C11.8026 41.1599 11.4894 41.4613 11.0862 41.6754C10.6815 41.8896 10.203 41.9974 9.65059 41.9974C9.1041 41.9974 8.6285 41.8911 8.22381 41.6798C7.81911 41.4686 7.50747 41.1673 7.2874 40.7759C7.06585 40.3845 6.95508 39.9252 6.95508 39.3964Z" fill="#222222"/>
<path d="M15.9434 35.0703V41.8866H14.75V35.0703H15.9434ZM14.9538 41.8851V40.7848H18.7866V41.8851H14.9538Z" fill="#222222"/>
<path d="M21.8907 35.0703V41.8866H20.6973V35.0703H21.8907ZM20.9026 41.8851V40.7848H24.7354V41.8851H20.9026Z" fill="#222222"/>
<path d="M27.8418 35.0703V41.8866H26.6484V35.0703H27.8418Z" fill="#222222"/>
<path d="M36.4947 38.4729C36.4947 39.1626 36.3544 39.7741 36.0753 40.3043C35.7961 40.836 35.4077 41.2511 34.9099 41.5494C34.4122 41.8478 33.8376 41.9969 33.1848 41.9969C32.5379 41.9969 31.9663 41.8478 31.4685 41.5494C30.9708 41.2511 30.5838 40.8375 30.3076 40.3087C30.0314 39.78 29.8926 39.1715 29.8926 38.4817C29.8926 37.786 30.0329 37.1716 30.312 36.6399C30.5912 36.1082 30.9782 35.6932 31.473 35.3948C31.9678 35.0964 32.5408 34.9473 33.1936 34.9473C33.8465 34.9473 34.4196 35.0964 34.9143 35.3948C35.4091 35.6932 35.7961 36.1067 36.0753 36.6355C36.3544 37.1642 36.4947 37.7772 36.4947 38.4729ZM35.2452 38.4729C35.2452 37.9884 35.161 37.5689 34.9941 37.2145C34.8272 36.86 34.5894 36.5852 34.2851 36.3888C33.9809 36.1924 33.6175 36.0949 33.1936 36.0949C32.7771 36.0949 32.4153 36.1924 32.1081 36.3888C31.8008 36.5852 31.5631 36.86 31.3947 37.2145C31.2263 37.5689 31.1436 37.9884 31.1436 38.4729C31.1436 38.9573 31.2278 39.3782 31.3947 39.7357C31.5616 40.0931 31.8008 40.3678 32.1081 40.5613C32.4153 40.7533 32.7771 40.8508 33.1936 40.8508C33.6161 40.8508 33.9794 40.7533 34.2851 40.5569C34.5894 40.3604 34.8257 40.0842 34.9941 39.7268C35.161 39.3694 35.2452 38.9514 35.2452 38.4729Z" fill="#222222"/>
<path d="M39.7191 41.8846H38.5449V35.0682H39.7295L43.2728 40.4297H42.9272V35.0682H44.1014V41.8846H42.9272L39.375 36.5319H39.7206V41.8846H39.7191Z" fill="#222222"/>
<path d="M51.4965 41.8865H50.3223V35.0702H51.5068L55.0501 40.4317H54.7045V35.0702H55.8787V41.8865H54.7045L51.1523 36.5339H51.4979V41.8865H51.4965Z" fill="#222222"/>
<path d="M62.5553 41.8865H58.3223V35.0702H62.5553V36.1705H59.0962L59.5157 35.788V37.9237H62.2378V38.9768H59.5157V41.1672L59.0962 40.7847H62.5553V41.8865Z" fill="#222222"/>
<path d="M64.1777 36.1726V35.0723H69.362V36.1726H64.1777ZM67.3666 35.6409V41.8886H66.1731V35.6409H67.3666Z" fill="#222222"/>
<path d="M72.6241 41.8865L70.5918 35.0702H71.8325L72.9136 38.6696C72.9697 38.8557 73.0229 39.0536 73.0717 39.2619C73.1219 39.4701 73.1706 39.7227 73.2208 40.0211C73.277 39.7168 73.3316 39.4628 73.3833 39.2619C73.4365 39.0595 73.4911 38.8631 73.5473 38.6696L74.6284 35.0702H75.9429L76.996 38.6696C77.0522 38.8616 77.1068 39.064 77.1585 39.2752C77.2102 39.4864 77.2663 39.736 77.3224 40.0211C77.3845 39.7035 77.4421 39.445 77.4952 39.2427C77.5484 39.0403 77.5986 38.8557 77.6489 38.6873L78.7492 35.0702H79.9618L77.8911 41.8865H76.7346L75.2798 36.9268L73.788 41.8865H72.6241Z" fill="#222222"/>
<path d="M88.0006 38.4748C88.0006 39.1646 87.8603 39.776 87.5811 40.3063C87.302 40.838 86.9121 41.253 86.4158 41.5514C85.918 41.8497 85.3435 41.9989 84.6907 41.9989C84.0437 41.9989 83.4721 41.8497 82.9744 41.5514C82.4766 41.253 82.0897 40.8395 81.8135 40.3107C81.5373 39.7819 81.3984 39.1734 81.3984 38.4837C81.3984 37.788 81.5388 37.1736 81.8179 36.6419C82.0971 36.1101 82.484 35.6951 82.9788 35.3968C83.4736 35.0984 84.0467 34.9492 84.6995 34.9492C85.3524 34.9492 85.9254 35.0984 86.4202 35.3968C86.915 35.6951 87.3005 36.1087 87.5811 36.6374C87.8603 37.1662 88.0006 37.7791 88.0006 38.4748ZM86.7511 38.4748C86.7511 37.9904 86.6669 37.5709 86.5 37.2164C86.3331 36.8619 86.0953 36.5872 85.791 36.3908C85.4868 36.1943 85.1234 36.0968 84.6995 36.0968C84.283 36.0968 83.9211 36.1943 83.6139 36.3908C83.3067 36.5872 83.0689 36.8619 82.9005 37.2164C82.7322 37.5709 82.6495 37.9904 82.6495 38.4748C82.6495 38.9593 82.7336 39.3802 82.9005 39.7376C83.0674 40.0951 83.3067 40.3698 83.6139 40.5633C83.9211 40.7553 84.2845 40.8528 84.6995 40.8528C85.1219 40.8528 85.4853 40.7553 85.791 40.5588C86.0953 40.3624 86.3316 40.0862 86.5 39.7288C86.6669 39.3713 86.7511 38.9533 86.7511 38.4748Z" fill="#222222"/>
<path d="M91.2442 41.8865H90.0508V35.0702H92.6518C93.4227 35.0702 94.0239 35.2563 94.4552 35.63C94.8864 36.0022 95.1036 36.525 95.1036 37.1971C95.1036 37.6505 94.9987 38.0375 94.7904 38.358C94.5822 38.6785 94.2765 38.9222 93.8718 39.0906L95.1671 41.888H93.8614L92.7049 39.3431H91.2412V41.8865H91.2442ZM91.2442 36.1336V38.2871H92.6518C93.0313 38.2871 93.3267 38.1911 93.538 37.9976C93.7492 37.8056 93.8555 37.5382 93.8555 37.1956C93.8555 36.8544 93.7492 36.5915 93.538 36.4083C93.3267 36.2252 93.0313 36.1336 92.6518 36.1336H91.2442Z" fill="#222222"/>
<path d="M98.4239 35.0723V41.8886H97.2305V35.0723H98.4239ZM102.592 35.0723L98.1447 40.7971V39.0158L101.184 35.0723H102.592ZM99.5065 38.9036L100.272 37.8785L102.621 41.8886H101.242L99.5065 38.9036Z" fill="#222222"/>
<path d="M74.0074 17.6937C73.8634 17.7498 73.7153 17.8163 73.5613 17.8638C73.4665 17.8932 73.3567 17.923 73.2646 17.9026C72.9349 17.833 72.6094 17.7455 72.2894 17.6403C72.1732 17.6005 72.0337 17.4929 71.9963 17.3853C71.9152 17.1483 71.6992 17.1447 71.5356 17.0899C71.3365 17.023 71.1104 17.0348 70.8757 17.0103C70.8757 17.1514 70.8666 17.3075 70.8757 17.4626C70.8848 17.6177 70.7882 17.7168 70.6702 17.6923C70.5412 17.6652 70.4296 17.5517 70.317 17.4662C70.3084 17.4599 70.3485 17.3491 70.3749 17.345C70.4984 17.3269 70.6137 17.3061 70.5636 17.1456C70.5294 17.0361 70.4656 16.9362 70.4022 16.8064C70.5791 16.6291 70.539 16.4563 70.2427 16.3392C70.1663 16.3043 70.0919 16.2652 70.0199 16.222C70.0322 16.1822 70.0326 16.1646 70.0413 16.1551C70.0965 16.0945 70.1539 16.0357 70.2104 15.9765C70.1329 15.9376 70.0582 15.8923 69.978 15.8611C69.8636 15.8149 69.7462 15.7765 69.6266 15.7462C69.5362 15.7311 69.4448 15.7225 69.3532 15.7205C69.3113 16.1334 69.6111 16.3138 69.8504 16.5291L69.8011 16.5852L69.2725 16.4075C69.2953 16.549 69.2953 16.6449 69.3267 16.7286C69.4393 17.0257 69.3491 17.2907 69.1704 17.5169C69.1135 17.5888 68.9453 17.5933 68.8282 17.5942C68.5981 17.5942 68.3583 17.6078 68.1396 17.549C67.8849 17.4834 67.6456 17.3531 67.4045 17.241C67.3084 17.1958 67.2304 17.1121 67.1343 17.0673C66.9465 16.9809 66.8317 17.0293 66.8085 17.2541C66.8034 17.302 66.7241 17.3667 66.6717 17.378C66.6262 17.388 66.52 17.3328 66.5204 17.3048C66.5204 17.246 66.566 17.1831 66.6016 17.1288C66.6754 17.0225 66.9297 17.0452 66.8294 16.8159C66.7447 16.6173 66.5665 16.734 66.4316 16.7091C66.345 16.6928 66.2525 16.706 66.1126 16.706C66.1764 17.0225 66.2397 17.3079 66.2898 17.596C66.3156 17.7133 66.3191 17.8343 66.3003 17.9529C66.2607 18.1396 66.0843 18.203 65.8902 18.1455C65.7912 18.1115 65.6848 18.1044 65.5821 18.1252C65.4181 18.1704 65.3638 18.1071 65.331 17.9651C65.2782 17.734 65.2253 17.5015 65.1519 17.2763C65.1182 17.1718 65.0371 17.0822 64.9774 16.9859L64.7782 17.175C64.7513 17.1998 64.7226 17.2202 64.6944 17.2464L64.621 17.2351C64.6333 17.0994 64.6301 16.9637 64.6629 16.833C64.6916 16.7191 64.7764 16.62 64.8083 16.5065C64.8361 16.4084 64.8625 16.2306 64.8224 16.2089C64.7258 16.1555 64.5896 16.1678 64.4693 16.1637C64.4205 16.1637 64.3708 16.1877 64.2915 16.1818C64.534 15.8037 64.4474 15.4455 64.302 15.0846C64.281 15.0326 64.3075 14.9625 64.2915 14.9064C64.2756 14.8503 64.22 14.7707 64.2063 14.7752C63.947 14.8598 63.8025 14.6025 63.5843 14.5776C63.5001 14.5654 63.4146 14.5654 63.3304 14.5776C63.0151 14.6332 62.7034 14.7133 62.3862 14.7513C62.223 14.7698 62.1296 14.8137 62.0622 14.9661C61.915 15.3003 61.7172 15.5993 61.3786 15.7349C61.3034 15.2374 61.2045 14.7323 61.1621 14.2239C61.143 13.9955 61.235 13.7572 61.2801 13.5243C61.2943 13.4487 61.3198 13.3759 61.3353 13.318C61.1844 13.2823 61.0204 13.2904 60.9548 13.2145C60.8891 13.1385 60.9716 12.9562 60.9151 12.8658C60.767 12.627 60.6157 12.2887 60.3956 12.2231C60.1605 12.1534 59.9098 12.0919 59.6706 12.0074C59.414 11.9169 59.2003 11.7862 59.0868 11.5171C59.0585 11.4506 58.93 11.4212 58.843 11.385C58.7477 11.3457 58.6206 11.3448 58.5536 11.2801C58.3399 11.0743 58.0573 10.9111 58.04 10.5565C58.04 10.5253 57.8732 10.4692 57.7976 10.4859C57.7433 10.4977 57.6608 10.6397 57.6786 10.6759C57.8322 10.9654 58.0006 11.2469 58.1831 11.5194C58.2838 11.6677 58.4506 11.6899 58.632 11.6763C58.7298 11.6749 58.8244 11.7112 58.8958 11.7776C59.0544 11.9382 59.1898 12.1209 59.3584 12.323C59.0266 12.5094 58.766 12.6776 58.483 12.8056C58.354 12.864 58.133 12.911 58.0509 12.8445C57.844 12.6772 57.6982 12.8178 57.5168 12.8481C57.3856 12.8703 57.237 12.7898 57.0839 12.7522C57.0684 12.8242 57.0561 12.8793 57.0452 12.9304H56.7526C56.8159 12.745 56.7403 12.6966 56.5767 12.6627C56.4938 12.6455 56.3803 12.4994 56.3803 12.4121C56.3803 12.0639 56.2741 11.7744 56.0221 11.5329C55.9917 11.4921 55.9711 11.4449 55.9619 11.395C55.8498 11.0427 55.7418 10.6886 55.627 10.3367C55.5614 10.1359 55.4055 10.1169 55.1918 10.1666C55.2765 10.4285 55.3595 10.6881 55.4451 10.9468C55.5604 11.2955 55.6625 11.6496 55.7992 11.9897C55.9045 12.252 56.054 12.4972 56.1839 12.75C56.2012 12.7835 56.2354 12.8169 56.234 12.849C56.2208 13.2108 56.4769 13.2226 56.7394 13.2561C56.9321 13.2787 57.1181 13.3538 57.3104 13.3841C57.5241 13.4184 57.5218 13.5736 57.4412 13.6785C57.1582 14.0466 56.8884 14.4586 56.429 14.6174C55.9619 14.7784 55.611 15.0697 55.3048 15.4242C55.1006 15.6608 55.159 15.9561 55.2237 16.2243C55.3485 16.7435 55.1257 17.2238 54.6372 17.4251C54.3769 17.5322 54.2726 17.6765 54.284 17.9655C54.294 18.1957 54.2589 18.3762 54.0105 18.4698C53.9385 18.4965 53.8697 18.591 53.8438 18.6692C53.677 19.1758 53.0595 19.6362 52.5281 19.6362H52.5053C51.8741 19.6362 51.8855 19.6362 51.8135 19.017C51.7949 18.8556 51.6723 18.7086 51.6126 18.5489C51.5529 18.3893 51.469 18.2129 51.4667 18.0438C51.4658 17.7429 51.3906 17.447 51.2475 17.1817C51.0352 16.7842 50.9914 16.3812 51.3264 16.0086C51.3758 15.9529 51.4043 15.8819 51.407 15.8078C51.3929 15.336 51.3004 14.8824 50.9782 14.5147C50.8374 14.3546 50.7895 14.2045 50.8693 14.0046C50.9134 13.8767 50.9478 13.7458 50.9723 13.6129C51.0179 13.4211 50.8775 13.2769 50.6906 13.3465C50.4719 13.4279 50.353 13.3438 50.2349 13.176C50.0586 12.9218 49.9775 12.8979 49.7095 13.0544C49.4415 13.2108 49.1531 13.2145 48.8559 13.2258C48.6855 13.2321 48.5196 13.3221 48.3478 13.3565C48.2471 13.3764 48.1076 13.4017 48.0407 13.3524C47.8009 13.1751 47.5849 12.9648 47.3571 12.7699C47.2614 12.6876 47.1702 12.5917 47.059 12.5388C46.7779 12.4031 46.6799 12.1598 46.6361 11.8862C46.6238 11.8088 46.6981 11.7215 46.7163 11.6356C46.7496 11.4782 46.8289 11.3009 46.787 11.1625C46.5897 10.5104 46.8891 10.0558 47.3566 9.67277C47.5467 9.51673 47.6907 9.36477 47.7299 9.1115C47.7668 8.87271 48.2179 8.55883 48.474 8.51315C48.8208 8.45165 49.1608 8.3526 49.5044 8.27074C49.6703 8.23094 49.8357 8.17124 50.0057 8.16129C50.3247 8.1423 50.6437 8.15179 50.9627 8.15134C51.2143 8.15134 51.3482 8.29743 51.2913 8.53713C51.2562 8.68637 51.3159 8.77321 51.4307 8.83381C51.737 8.99572 52.0409 9.16442 52.359 9.301C52.4494 9.34276 52.5506 9.35553 52.6486 9.33754C52.7466 9.31954 52.8366 9.27168 52.9059 9.2006C53.0513 9.05723 53.1925 9.06989 53.3776 9.14678C53.5963 9.23723 53.8387 9.27342 54.0716 9.33176C54.1162 9.33834 54.1603 9.34755 54.2038 9.35935C54.4681 9.46065 54.731 9.56694 54.9963 9.66689C55.0457 9.68538 55.0989 9.69128 55.1512 9.68407C55.3271 9.65513 55.7496 9.20558 55.7619 9.02648C55.7655 8.96859 55.7245 8.90708 55.704 8.84557L55.668 8.91613C55.4574 8.86728 55.2474 8.81798 55.0364 8.77004C55.0007 8.75749 54.9629 8.75241 54.9252 8.75512C54.5943 8.82477 54.417 8.54572 54.1755 8.41999C54.1272 8.39511 54.1345 8.24451 54.1354 8.15225C54.1354 7.83566 54.0898 7.80129 53.7936 7.89807C53.7499 7.90953 53.7072 7.92466 53.666 7.9433C53.6118 7.97179 53.5448 7.99938 53.5188 8.04687C53.5052 8.07129 53.5644 8.13732 53.5968 8.18255C53.6291 8.22778 53.6665 8.26848 53.7193 8.33361C53.5968 8.38652 53.4992 8.44305 53.394 8.46929C53.3484 8.48059 53.2463 8.43898 53.2345 8.40099C53.0144 7.70767 52.4748 7.29927 51.901 6.92525C51.8345 6.88228 51.7156 6.91847 51.6208 6.91801C51.6531 6.99942 51.6631 7.1048 51.7215 7.15771C51.942 7.35626 52.1772 7.53762 52.4137 7.72983L52.3303 7.84109C52.1193 7.73752 51.9088 7.65069 51.7169 7.534C51.5673 7.43956 51.4296 7.32766 51.3068 7.20068C51.1701 7.065 51.0224 7.03244 50.8565 7.1143C50.6701 7.20475 50.4961 7.25676 50.28 7.18304C50.1265 7.13013 49.9387 7.12741 49.9105 7.38023C49.9054 7.42139 49.8193 7.46073 49.7665 7.48832C49.648 7.54892 49.5122 7.58465 49.4092 7.66425C49.3413 7.71672 49.318 7.82662 49.298 7.92069C49.133 8.17848 48.8705 8.22054 48.5839 8.22325C48.5228 8.22325 48.4626 8.3232 48.3893 8.38878C48.2899 8.22687 48.1591 8.1423 47.9395 8.2029C47.8707 8.2219 47.7608 8.093 47.6702 8.03194L47.7481 8.00707C47.7481 7.8438 47.7709 7.67872 47.7513 7.51817C47.7267 7.31239 47.8037 7.20566 48.0489 7.20566C48.3136 7.20566 48.5784 7.2242 48.8427 7.24229C49.0141 7.25359 49.1116 7.16631 49.1695 7.02249C49.2834 6.74118 49.2237 6.62404 48.9234 6.52952C48.8422 6.50861 48.767 6.46963 48.7033 6.41554C48.9539 6.35946 49.2046 6.30429 49.4557 6.24685C49.5204 6.23193 49.6174 6.22831 49.6411 6.1867C49.8389 5.84026 50.3006 5.93569 50.5403 5.64986C50.5858 5.59423 50.7535 5.63177 50.8643 5.63629C50.9448 5.64297 51.0248 5.65415 51.104 5.66976C51.186 5.48026 50.7727 5.3984 51.022 5.20799C51.0999 5.14829 51.2129 5.13427 51.3214 5.09493C51.3642 5.52865 51.3779 5.49111 51.7648 5.58609C52.0747 5.66207 52.3517 5.63584 52.6489 5.57614C52.7541 5.55534 52.8767 5.62137 52.9934 5.65302C53.0709 5.67292 53.1479 5.69825 53.2377 5.72086C53.2677 5.61503 53.2832 5.52775 53.3165 5.44634C53.3926 5.25096 53.5407 5.19488 53.7367 5.27086C53.8251 5.30523 53.9189 5.32332 54.0584 5.36131C54.0333 5.24372 54.0165 5.16639 53.9987 5.08272L55.0368 5.17679C55.0601 4.94116 54.9457 4.84075 54.7634 4.82945C54.4717 4.8109 54.1783 4.81317 53.8857 4.81679C53.6683 4.81995 53.6314 4.65261 53.5995 4.50789C53.5895 4.46266 53.6947 4.36542 53.7658 4.33467C53.9294 4.26502 54.1076 4.22884 54.274 4.16326C54.3291 4.14155 54.3651 4.07281 54.4107 4.02487C54.361 3.98959 54.3145 3.9308 54.2607 3.92311C54.0534 3.89326 53.8438 3.87788 53.6382 3.86069C53.5813 4.1515 53.4714 4.22974 53.1903 4.24331C53.0568 4.24726 52.9254 4.27803 52.8043 4.33377C52.6356 4.41743 52.6475 4.5305 52.8138 4.61643C52.8653 4.64312 52.9186 4.66754 52.9679 4.69151C52.8225 4.85658 52.6867 5.01533 52.545 5.16865C52.5119 5.19802 52.4702 5.21609 52.426 5.22021C52.2314 5.24463 52.0346 5.25367 51.8418 5.28714C51.716 5.3084 51.6873 5.26136 51.6727 5.15146C51.6613 5.05805 51.6321 4.96765 51.5866 4.88508C51.4645 4.67342 51.418 4.69513 51.222 4.829C51.1104 4.90453 50.9212 4.91402 50.7804 4.88598C50.6829 4.86653 50.5867 4.74442 50.5307 4.64583C50.4787 4.55537 50.4806 4.43326 50.4496 4.2804C50.7417 4.18723 51.0397 4.09949 51.3328 3.99728C51.7306 3.85843 52.1011 3.67029 52.4023 3.36818C52.4266 3.34212 52.4585 3.32425 52.4935 3.31707C53.2126 3.22662 53.9358 3.12395 54.6545 3.27184C55.241 3.39215 55.812 3.56446 56.3279 3.89688C56.5416 4.03482 56.8178 4.07778 57.062 4.1705C57.2323 4.23705 57.396 4.31911 57.551 4.41563C57.0629 4.50608 56.6218 4.33829 56.1383 4.14427C56.2139 4.3609 56.2499 4.51784 56.326 4.65261C56.3493 4.69422 56.4814 4.67206 56.5621 4.68699C56.6651 4.70598 56.7859 4.70643 56.8642 4.76251C57.0338 4.88372 57.201 4.87784 57.3259 4.71005C57.4284 4.57437 57.8655 4.60105 57.9479 4.74487C57.978 4.79688 58.0391 4.83216 58.1302 4.91719C58.1416 4.77246 58.1562 4.70643 58.1503 4.64176C58.1266 4.3704 58.133 4.36135 58.3955 4.43191C58.4378 4.44321 58.4807 4.45361 58.5367 4.46763L58.3649 4.76839C58.4251 4.79191 58.4501 4.81362 58.4656 4.80593C58.8521 4.66709 59.2176 4.92578 59.6017 4.86518C59.6719 4.85432 59.7617 4.9 59.8296 4.94206C59.9709 5.03252 60.0875 5.10443 60.2853 5.10036C60.4936 5.09583 60.7041 5.26136 60.9156 5.3482C60.9926 5.3794 61.0924 5.43865 61.1521 5.41423C61.4191 5.30478 61.6374 5.41875 61.8457 5.54584C62.1319 5.72041 62.3998 5.92484 62.6851 6.10077C62.7517 6.14193 62.8583 6.11931 62.9463 6.1261C62.9294 6.05531 62.9043 5.98671 62.8715 5.92167C62.805 5.83 62.7335 5.74198 62.6573 5.658C63.4188 5.45222 63.4585 5.46262 63.7884 5.90946C63.746 6.05871 63.6804 6.17675 63.6872 6.29072C63.6996 6.48972 63.6048 6.56208 63.4334 6.58243C63.3733 6.59012 63.3076 6.577 63.2511 6.59645C63.1946 6.6159 63.1682 6.66339 63.1276 6.69912C63.1641 6.72987 63.2005 6.78686 63.2375 6.78957C63.4822 6.79765 63.7271 6.79191 63.9712 6.77238C64.0978 6.75972 64.1753 6.76515 64.2587 6.87776C64.3289 6.97364 64.4487 7.04012 64.5586 7.09711C64.6041 7.12108 64.7131 7.10887 64.7377 7.07404C64.77 7.02882 64.7641 6.93837 64.7463 6.87776C64.6871 6.67515 64.5126 6.62359 64.3298 6.59645C64.2387 6.58288 64.1475 6.58469 64.0564 6.57972C64.0933 6.17765 64.0933 6.17765 64.266 6.12248C64.2594 6.18267 64.2604 6.24346 64.2692 6.30338C64.2883 6.37348 64.3148 6.47977 64.3635 6.4956C64.4057 6.50717 64.4499 6.51012 64.4933 6.50429C64.5367 6.49846 64.5784 6.48397 64.616 6.46168C64.7928 6.33776 64.8771 6.3459 65.0189 6.5173C65.1414 6.66565 65.2841 6.79771 65.4094 6.94379C65.4613 7.00394 65.527 7.08219 65.5265 7.15184C65.5265 7.40284 65.6632 7.41822 65.8642 7.37028C65.9777 7.02113 65.5953 6.92254 65.4914 6.69188C65.7781 6.80947 66.0511 6.98269 66.345 7.03018C67.0842 7.15003 67.6429 7.60546 68.2412 7.97586C69.0519 8.47697 69.8362 9.02286 70.6164 9.5701C70.9564 9.80799 71.2599 10.0974 71.5889 10.3715C71.5301 10.4167 71.5206 10.4321 71.5078 10.4362C71.4167 10.4665 71.3255 10.495 71.2344 10.5239C71.2907 10.6121 71.3528 10.6966 71.4203 10.7767C71.7524 11.1235 72.0879 11.4674 72.427 11.8084C72.5391 11.9205 72.6548 12.0413 72.7916 12.1177C73.1857 12.3317 73.5255 12.6319 73.7855 12.9956C73.8312 13.0673 73.8475 13.1537 73.8311 13.2371C73.7431 13.5785 73.827 13.7395 74.1692 13.8594C74.2382 13.8835 74.3007 13.9233 74.3515 13.9756C74.6632 14.3117 74.9617 14.6599 75.2807 14.9887C75.4215 15.1334 75.6138 15.1366 75.8134 15.0511C75.8171 14.9674 75.8212 14.8793 75.8253 14.7906L75.8809 14.7499L76.4113 15.4297L76.3658 15.4749L76.0158 15.2488L75.9324 15.3252C76.1028 15.6124 76.2514 15.9163 76.4491 16.1845C76.6683 16.478 76.9208 16.7444 77.0229 17.1085C77.1066 17.4151 77.2628 17.6974 77.4786 17.932C77.9071 18.4014 78.2219 18.9617 78.3992 19.5702C78.4748 19.8248 78.715 20.0274 78.8626 20.2648C79.0449 20.5611 79.2176 20.8659 79.3826 21.173C79.4222 21.2472 79.4004 21.3539 79.4368 21.4303C79.4778 21.5158 79.5494 21.6465 79.615 21.651C79.924 21.6718 79.9573 21.9224 80.0252 22.1196C80.1664 22.5334 80.248 22.9694 80.4116 23.3737C80.5028 23.5958 80.51 23.7762 80.3779 24.0566C80.279 23.8974 80.1956 23.764 80.1127 23.6311L80.0438 23.6876C80.0352 23.7812 80.0261 23.8744 80.0142 24.0042C79.7257 23.4977 79.3635 23.0362 78.9392 22.6347C78.7496 22.4538 78.6202 22.2055 78.4739 21.9807C78.3276 21.756 78.1987 21.5022 78.0428 21.2761C77.9699 21.1729 77.8742 21.0877 77.763 21.0269C77.6367 20.9586 77.5465 21.0577 77.433 21.1214C77.3196 21.1852 77.1113 21.2571 76.975 21.0549C76.9226 20.9785 76.8096 20.9365 76.7167 20.8953C76.4209 20.7659 76.1215 20.6443 75.8189 20.4923C76.0468 20.457 76.132 20.3377 76.1707 20.1273C76.2304 19.8053 76.4624 19.7655 76.754 20.0012C77.0794 20.2641 77.4068 20.525 77.7361 20.784C77.7958 20.8218 77.8586 20.8547 77.9238 20.8822C77.897 20.543 77.5657 20.5073 77.464 20.2893C77.598 20.0835 77.5228 19.8592 77.2517 19.695C77.0042 19.5457 76.723 19.4385 76.5066 19.2549C76.3165 19.0935 76.1921 18.8542 76.0463 18.6439C76.0007 18.5788 75.9957 18.4843 75.947 18.4241C75.6311 18.0356 75.3258 17.6372 74.9808 17.2758C74.8181 17.1049 74.5812 16.9995 74.3688 16.8801C74.1564 16.7607 73.9318 16.6539 73.7098 16.5517C73.6009 16.5002 73.4847 16.464 73.3717 16.4206L73.3047 16.497C73.3571 16.5658 73.41 16.6327 73.4619 16.7028C73.4947 16.7458 73.5585 16.7932 73.5531 16.8326C73.528 17.004 73.6747 17.0488 73.7554 17.1451C73.8502 17.2582 73.9268 17.3862 74.0129 17.5069C74.0676 17.5834 74.1227 17.6598 74.1815 17.7331C74.2316 17.7955 74.2872 17.8534 74.3697 17.9461H74.1783C74.1564 18.122 74.1355 18.2948 74.1095 18.5015C73.8867 18.3395 73.7982 18.5146 73.6538 18.6643C73.5977 18.2364 74.1291 18.1075 74.0074 17.6937ZM59.3529 8.50682C59.1861 8.09978 59.0161 7.93471 58.7477 7.99757C58.5623 8.04656 58.3653 8.02678 58.1936 7.94194C58.1056 7.90214 57.9375 7.93109 57.8645 7.99486C57.8062 8.04642 57.8117 8.20245 57.8326 8.30285C57.8782 8.53306 58.0364 8.69542 58.2309 8.82205C58.2906 8.86095 58.3476 8.90391 58.4055 8.94462C58.4023 8.96452 58.3996 8.98397 58.3964 9.00387C58.3148 9.01879 58.2323 9.03055 58.1521 9.04909C58.0796 9.06673 57.9662 9.07577 57.9475 9.1201C57.9188 9.18929 57.9211 9.3209 57.9685 9.36432C58.2114 9.59045 58.4697 9.8003 58.8243 9.82292C58.94 9.83061 59.0029 9.7899 58.9911 9.67322C58.9742 9.50588 58.9487 9.33899 58.9241 9.15402L59.0512 9.04909C58.8958 8.85959 58.7473 8.68728 58.6142 8.50637C58.5964 8.48195 58.6643 8.35124 58.6816 8.35351C58.7594 8.36639 58.8339 8.39436 58.9008 8.43582C59.0435 8.51904 59.1797 8.61491 59.3529 8.50682ZM54.4234 8.02471C54.6057 8.04054 54.7638 8.05591 54.9247 8.06993C54.9995 8.07581 55.0842 8.10159 55.1485 8.07672C55.441 7.96275 55.6844 8.04913 55.9273 8.21556C56.2349 8.42587 56.5831 8.48014 56.9868 8.45798C56.857 8.00571 56.4646 7.83792 56.1962 7.56475L56.3835 7.47023C56.2208 7.34721 56.0831 7.33093 55.9332 7.43993C55.6078 7.67646 55.5787 7.67284 55.4064 7.3341C55.3239 7.17264 55.1927 7.09259 55.0418 7.17445C54.8272 7.29023 54.6372 7.45078 54.4389 7.59551C54.4287 7.60614 54.4209 7.61873 54.4158 7.6325C54.4107 7.64626 54.4085 7.66092 54.4093 7.67556C54.4107 7.79858 54.4184 7.92069 54.4234 8.02471Z" fill="#2A63ED"/>
<path d="M21.3278 21.9841C21.2689 22.0026 21.1617 22.0157 21.159 22.0405C21.1352 22.2502 20.96 22.3175 20.83 22.435C20.7652 22.4937 20.7624 22.6189 20.7309 22.7165L20.4366 22.6686C20.385 22.9555 20.4366 23.2917 19.9707 23.2984C20.0022 23.167 20.025 23.0395 20.062 22.9171C20.5339 21.4512 21.1266 20.0261 21.8343 18.6563C22.0917 18.1525 22.5188 17.7924 22.8067 17.3207C22.856 17.2403 22.9674 17.1784 23.0632 17.1481C23.2544 17.0871 23.305 16.9507 23.3707 16.7817C23.4428 16.5964 23.5921 16.4397 23.7134 16.2747C23.8348 16.1098 23.9562 15.9585 24.0812 15.7999C24.1725 15.6837 24.2838 15.5789 24.3683 15.4574C24.5398 15.2084 24.8675 15.1217 24.9943 14.809C25.0541 14.6603 25.2955 14.5935 25.405 14.4525C25.6724 14.1082 26.0804 13.9677 26.4089 13.7165C26.4833 13.6595 26.5262 13.5619 26.5837 13.4829L26.5321 13.4377C26.2903 13.4653 26.048 13.4906 25.8066 13.5226C25.7788 13.5263 25.75 13.5629 25.7318 13.5909C25.6158 13.768 25.5232 13.9645 25.3831 14.12C25.243 14.2754 25.0541 14.3938 24.8866 14.5266L24.7931 14.4575C24.8387 14.3441 24.8561 14.2108 24.93 14.1204C25.1276 13.8755 25.3484 13.6496 25.5584 13.4147C25.6327 13.3315 25.6952 13.2339 25.7774 13.1616C25.878 13.0773 25.9858 13.0017 26.0995 12.9357C26.4742 12.7098 26.9209 12.6 27.1997 12.2096C27.3202 12.0402 27.4932 11.8319 27.7774 11.9905C27.8035 12.0049 27.8892 11.967 27.9043 11.934C27.9194 11.901 27.886 11.8378 27.8555 11.8043C27.8047 11.756 27.7499 11.7121 27.6917 11.6728L28.1211 11.3367C28.4733 11.6503 28.7284 11.3123 29.0478 11.1799C28.9004 11.5603 28.4469 11.6647 28.3775 12.0447L28.4231 12.117C28.5504 12.0501 28.6873 11.9973 28.8033 11.9146C29.0474 11.7406 29.281 11.5531 29.5174 11.3679C29.5906 11.3143 29.6583 11.2538 29.7195 11.1871C29.8487 11.0376 29.8108 10.9305 29.6137 10.8663C29.6593 10.8288 29.7049 10.7913 29.7478 10.7561C29.7907 10.7208 29.8295 10.696 29.8418 10.6865C29.9564 10.7642 30.1038 10.9246 30.1708 10.8962C30.3077 10.8392 30.5017 10.6702 30.4903 10.5668C30.4697 10.4023 30.3009 10.2568 30.1772 10.0779C30.3406 9.90529 30.6021 9.96131 30.8467 9.99159C31.0018 10.011 31.1255 10.0548 31.224 9.8705C31.2569 9.80905 31.4276 9.58991 31.5243 9.87592C31.5243 9.87998 31.6877 9.86146 31.731 9.81402C31.8093 9.71938 31.8731 9.61389 31.9204 9.5009C31.9475 9.42496 31.9671 9.34657 31.9788 9.26685L31.9131 9.20857C31.7374 9.29893 31.5571 9.37891 31.3869 9.47967C31.1328 9.62606 31.0068 9.62832 30.8352 9.44758L31.4444 8.82812C31.5024 8.95825 31.5357 9.03054 31.5658 9.10193C31.7867 9.10826 31.872 9.02693 31.8962 8.83084C31.9075 8.74392 31.9517 8.66449 32.0199 8.60854C32.3589 8.37765 32.6993 8.14631 33.058 7.94841C33.2159 7.86121 33.4185 7.85398 33.6006 7.8088C34.0441 7.69719 34.4886 7.5874 34.9307 7.47083C35.0635 7.43604 35.1676 7.41435 35.2584 7.56119C35.3702 7.74193 35.518 7.63123 35.6535 7.57294C35.7256 7.54177 35.7996 7.49884 35.8749 7.49477C36.0711 7.48348 36.2682 7.49071 36.4681 7.49071C36.3649 7.68319 36.2185 7.82732 35.957 7.82597C35.8357 7.82464 35.7149 7.84171 35.5988 7.87657C35.544 7.89329 35.5075 7.971 35.4619 8.02116C35.5139 8.05188 35.5627 8.10068 35.6184 8.11152C35.7147 8.12598 35.8169 8.10475 35.9132 8.12056C35.9677 8.13559 36.0192 8.16007 36.0651 8.19285C35.9136 8.29858 35.7831 8.39256 35.649 8.48067C35.6004 8.51526 35.5458 8.54068 35.4879 8.55567C35.1402 8.63113 34.7847 8.67947 34.4447 8.78159C34.2134 8.85027 34.0017 8.98672 33.7835 9.09787C33.706 9.13718 33.6352 9.18824 33.5613 9.23703L33.4997 9.1801C33.5618 9.11052 33.611 9.00886 33.6886 8.97813C33.8976 8.895 34.0674 8.79379 34.1513 8.57149C34.1819 8.49016 34.2828 8.43594 34.3425 8.36364C34.3556 8.34792 34.365 8.32948 34.3699 8.30969C34.3748 8.28989 34.3751 8.26926 34.3708 8.24933C34.3575 8.23329 34.3403 8.22078 34.3209 8.21289C34.3015 8.20501 34.2804 8.202 34.2595 8.20415C34.1226 8.23939 33.9652 8.23894 33.9099 8.426C33.8844 8.5132 33.7913 8.58097 33.6987 8.69438C33.6909 8.3519 33.6037 8.304 33.3336 8.41786C33.2556 8.45085 33.1648 8.45537 33.1054 8.50416C33.0206 8.56697 32.9361 8.63068 32.8499 8.69167C32.7883 8.7346 32.713 8.76396 32.6642 8.81728C32.6054 8.88987 32.5528 8.96709 32.5068 9.04817L32.7805 9.12543C32.6213 9.49186 32.1367 9.54247 31.8935 9.93194L33.1132 9.55241L33.1374 9.61747C33.0621 9.69564 33.0201 9.7982 32.8481 9.74173C32.7673 9.71462 32.6322 9.77923 32.5496 9.83977C32.4424 9.91839 32.3626 10.0341 32.2895 10.1136L31.8875 9.9934C31.8674 10.0115 31.846 10.0223 31.8465 10.0313C31.8697 10.2731 31.6639 10.3476 31.5389 10.494C31.2738 10.8058 31.073 11.1718 30.8676 11.5332C30.8266 11.6046 30.853 11.7533 30.906 11.8242C30.9379 11.8667 31.0839 11.8125 31.1743 11.8274C31.4659 11.8753 31.6671 11.6977 31.9044 11.5829C32.3114 11.3855 32.7413 11.2341 33.1634 11.0683C33.205 11.0592 33.2485 11.0647 33.2866 11.0837C33.4189 11.1392 33.5481 11.2007 33.6781 11.2599C33.8734 11.3502 34.0373 11.2671 34.1262 11.1139C34.2248 10.9445 34.0742 10.8266 33.9519 10.7254C33.9017 10.6903 33.8482 10.6601 33.7922 10.635C34.045 10.5839 34.2718 10.4091 34.2586 10.2735C34.2367 10.0377 34.0204 10.0774 33.8616 10.0282C33.8579 9.9577 33.8753 9.88179 33.8483 9.82667C33.7114 9.54202 33.9182 9.44171 34.108 9.33417C34.3311 9.20766 34.5552 9.10826 34.829 9.10464C34.9983 9.10464 35.1662 8.99846 35.3569 8.9325C35.3483 9.01021 35.3414 9.07121 35.335 9.13176C35.6723 9.22212 35.9228 9.17694 36.0807 8.76713C36.135 8.62661 36.2061 8.58323 36.3544 8.65191C36.5636 8.74941 36.7797 8.83156 37.0011 8.89771C37.1144 8.9261 37.2333 8.92485 37.346 8.89409C37.5012 8.85388 37.628 8.84891 37.7754 8.93928C37.874 8.99892 38.015 8.98988 38.1533 9.01473C38.119 9.11323 38.0839 9.21579 38.0442 9.33101C37.7316 9.21579 37.6737 9.52756 37.5003 9.64323C37.3177 9.76477 37.1681 9.93556 36.9901 10.0978C36.9171 9.84429 36.7889 10.0074 36.652 10.0282C36.2449 10.0874 36.1733 10.4538 35.9675 10.6992C35.9579 10.7109 35.9711 10.7416 35.9771 10.7895C36.3079 10.7529 36.417 10.3187 36.7857 10.3377C36.7925 10.4145 36.798 10.4782 36.8039 10.5514C36.9408 10.5514 37.0827 10.5713 37.2146 10.5451C37.3337 10.5216 37.4428 10.447 37.5929 10.3779C37.6878 10.4335 37.6951 10.4574 37.5842 10.5406C37.3104 10.7461 37.0366 10.9472 36.7441 11.1645C36.7216 11.1199 36.6915 11.0794 36.6552 11.0448C36.6132 11.0141 36.5251 10.9788 36.5023 10.9996C36.3467 11.1293 36.1998 11.2707 36.0565 11.4126C35.9132 11.5545 35.9159 11.6936 36.1167 11.8382C35.9988 11.908 35.8769 11.9709 35.7516 12.0266C35.6111 12.0804 35.5915 12.1726 35.5449 12.3068C35.4929 12.4545 35.6011 12.7234 35.3099 12.7672C35.2853 12.7712 35.2561 12.9027 35.2716 12.9646C35.293 13.0491 35.3551 13.1232 35.4035 13.2082C35.2328 13.4793 35.0138 13.8091 34.8103 14.1502C34.7404 14.2677 34.7592 14.382 34.8901 14.4819C35.0217 14.5899 35.1407 14.7121 35.2451 14.846C35.273 14.879 35.2552 14.95 35.2584 15.0037C35.2119 15.0083 35.1652 15.0083 35.1187 15.0037C34.9362 14.9703 34.7769 14.9048 34.6957 14.7155C34.6829 14.6866 34.5492 14.6703 34.5429 14.6829C34.4781 14.8104 34.385 14.8131 34.2622 14.7846C34.212 14.7729 34.1431 14.8031 34.0938 14.8325C33.9721 14.9028 33.8552 14.981 33.7438 15.0665C33.6868 15.1117 33.611 15.1809 33.611 15.2391C33.611 15.4456 33.4883 15.4786 33.3227 15.5274C33.0749 15.6011 32.8567 15.7325 32.7974 16.0217C32.7755 16.1265 32.7094 16.8486 32.7335 16.9389C32.8198 17.2647 33.3692 17.5335 33.6795 17.3876C33.7552 17.3519 33.7863 17.2281 33.862 17.1825C34.0733 17.0532 34.1919 16.9055 34.0902 16.6448C34.076 16.6095 34.1614 16.5223 34.2161 16.4767C34.312 16.3972 34.4201 16.3312 34.5534 16.2386C34.5821 16.5409 34.6081 16.8169 34.6414 17.1725C34.8203 17.0758 34.965 17.0243 35.0736 16.9308C35.1676 16.8495 35.2141 16.7139 35.3779 16.7532C35.5417 16.7925 35.5449 16.9114 35.5554 17.0474C35.5764 17.3185 35.7165 17.5123 35.9342 17.5308C36.0578 17.5408 36.1888 17.4612 36.3221 17.4206C36.3129 17.5516 36.2933 17.6813 36.0861 17.6646C35.879 17.6478 35.68 17.6424 35.4774 17.6253C35.4344 17.6174 35.395 17.5964 35.3647 17.5652C35.1415 17.3514 35.0028 17.3641 34.7195 17.4987C34.5163 17.5858 34.2965 17.6284 34.0751 17.6235C33.7721 17.6235 33.6763 17.5972 33.5814 17.8842C33.5659 17.9293 33.4901 17.9677 33.4326 17.9872C33.3209 18.0235 33.2073 18.0536 33.0922 18.0775C32.8777 18.1259 32.6624 18.1711 32.447 18.2172C32.3671 18.2343 32.28 18.2366 32.2083 18.2709C32.0714 18.3364 31.9551 18.2872 31.8976 18.1806C31.7871 17.9763 31.6087 17.9998 31.4271 17.9912C31.0027 17.9763 30.5779 17.9555 30.1535 17.9348C30.1252 17.9348 30.0992 17.9086 30.0705 17.9004C29.9838 17.876 29.8957 17.8552 29.8081 17.8317C29.7866 17.9275 29.7624 18.0233 29.7401 18.1331C30.0015 18.1557 30.2279 18.1643 30.4497 18.1995C30.5619 18.2172 30.6628 18.3016 30.7746 18.3224C30.8955 18.3446 31.0242 18.3274 31.209 18.3274C30.8307 18.6179 30.4209 18.2949 30.0791 18.5212C30.0705 18.4593 30.0622 18.3988 30.0517 18.3242C30.0134 18.3179 29.9714 18.3093 29.929 18.3039C29.7862 18.2867 29.6379 18.2894 29.5014 18.2506C29.2404 18.176 28.9885 18.0662 28.7398 18.2845C28.7024 18.317 28.6235 18.3134 28.5646 18.3102C28.3232 18.2962 28.0804 18.2854 27.8404 18.2547C27.6656 18.2325 27.5484 18.1345 27.4836 17.9546C27.4271 17.8014 27.3439 17.6591 27.2376 17.5344C27.1007 17.3731 26.9287 17.285 26.7001 17.3989C26.5499 17.473 26.3806 17.5132 26.1981 17.5796C26.0986 17.3989 25.9353 17.4102 25.7359 17.5236C25.6683 17.562 25.5606 17.5236 25.4748 17.5399C25.3973 17.5628 25.3221 17.5931 25.2503 17.6302C25.3152 17.687 25.3837 17.7396 25.4552 17.7879C25.489 17.8078 25.5419 17.796 25.5921 17.7988C25.4246 18.0699 25.2421 18.1033 25.0632 17.8819C24.9409 17.7301 24.8433 17.843 24.7826 17.9004C24.6421 18.036 24.4974 18.0812 24.3016 18.0888C24.1647 18.0929 24.0132 18.1792 23.9019 18.2696C23.6304 18.4892 23.3739 18.7273 23.1198 18.9667C22.8875 19.1859 22.6374 19.3951 22.4494 19.6481C22.3176 19.8252 22.2765 20.0683 22.1957 20.2807C22.1437 20.4189 22.0944 20.5581 22.046 20.6873L21.8982 20.5088C21.858 20.5825 21.7987 20.6525 21.7837 20.7307C21.7663 20.8247 21.7837 20.9254 21.7914 21.023C21.8051 21.2444 21.8252 21.2544 22.0401 21.1333C22.0346 21.3822 21.9343 21.5462 21.7207 21.6813C21.6144 21.7482 21.561 21.9149 21.5094 22.0469C21.3698 22.4029 21.2438 22.7644 21.1124 23.1236L21.0339 23.0987L21.3789 22.0342L21.3278 21.9841Z" fill="#2A63ED"/>
<path d="M36.3984 17.2067C36.4416 17.192 36.4869 17.1841 36.5326 17.1833C36.821 17.2283 36.8378 17.1968 36.9419 16.9289C37.0329 16.701 37.1743 16.4939 37.3212 16.2854C37.3785 16.4656 37.3517 16.6718 37.5841 16.733C37.6169 16.5412 37.6469 16.362 37.6774 16.1828L37.7479 16.2391C37.8711 16.2085 37.9925 16.1621 38.1176 16.149C38.3368 16.1288 38.5269 16.0927 38.6552 15.8789C38.6775 15.8415 38.9763 15.8883 38.9858 15.9315C39.0277 16.1188 39.1746 16.0806 39.2496 16.0486C39.4534 15.9608 39.5789 16.0824 39.7354 16.1589C39.8136 16.1972 39.9605 16.2089 40.0169 16.1621C40.2475 15.9721 40.4508 16.0612 40.6536 16.1859C40.7901 16.2688 40.911 16.3687 41.0629 16.4777L40.6782 16.8253C40.8205 17.0122 40.9538 17.0054 41.0693 16.8253C41.1148 16.7546 41.1675 16.6902 41.2171 16.6209L41.2922 16.6659C41.2499 16.7497 41.2053 16.8325 41.1666 16.9181C41.1475 16.966 41.1311 17.015 41.1175 17.0649C41.1739 17.0649 41.244 17.0878 41.2835 17.0649C41.3343 17.0251 41.3709 16.9704 41.3881 16.9086C41.4573 16.6862 41.5973 16.6042 41.8329 16.6659C42.0662 16.7277 42.3095 16.743 42.5488 16.7109C42.8217 16.6776 43.125 16.8411 43.4075 16.9406C43.4602 16.9586 43.5139 17.0865 43.5016 17.1513C43.4639 17.373 43.403 17.5901 43.3197 17.7992C43.2105 18.0577 43.0172 18.2576 43.1537 18.6012C43.2901 18.9447 43.1641 19.3338 43.01 19.6611C42.9399 19.8106 42.6916 19.87 42.5497 19.997C42.4187 20.1136 42.3155 20.2627 42.2113 20.4054C42.2012 20.4287 42.1962 20.4539 42.1968 20.4794C42.1973 20.5048 42.2034 20.5297 42.2145 20.5526C42.3455 20.8363 42.26 21.065 42.0512 21.2731C42.0189 21.3055 42.0149 21.3663 41.9998 21.414C41.9312 21.6288 41.883 21.8525 41.7902 22.0561C41.7069 22.2362 41.581 22.229 41.4604 22.0619C41.42 22.0061 41.3731 21.9552 41.3099 21.8787C41.2294 22.0799 41.3058 22.1939 41.4195 22.2997C41.6492 22.5167 41.5787 22.849 41.2803 22.9818C40.9893 23.1115 40.9729 23.0521 41.0447 23.4285L40.7487 23.4713L40.7123 23.5284L40.9902 23.7725C40.9219 23.9796 40.8405 24.2277 40.7541 24.4929L41.0534 24.5442C41.0047 24.669 40.9697 24.7779 40.9206 24.8806C40.725 25.2921 40.8442 25.5281 41.3527 25.6271L40.9101 25.9536C40.921 25.7802 40.927 25.687 40.9329 25.5934L40.8646 25.5537C40.8105 25.6438 40.7559 25.7298 40.6941 25.8302C40.4844 25.7402 40.3503 25.5691 40.2534 25.3624C40.2225 25.2971 40.1897 25.2332 40.136 25.2111C40.0842 25.0936 40.0155 24.9806 39.985 24.8581C39.964 24.7584 39.967 24.6552 39.9937 24.5569C40.0328 24.4069 40.0637 24.2714 39.9364 24.144C39.8974 24.0982 39.8732 24.0419 39.8668 23.9823C39.8118 23.5771 39.5671 23.2015 39.704 22.7697C39.7222 22.7117 39.6617 22.6347 39.6499 22.5613C39.6189 22.3758 39.5935 22.1893 39.5684 22.0029C39.5693 21.9508 39.5668 21.8986 39.5612 21.8467C39.4702 21.5036 39.3761 21.1618 39.2851 20.8192C39.1941 20.4765 38.8953 20.3797 38.6197 20.4139C38.2559 20.459 38.1017 20.2041 37.8807 20.0434C37.6965 19.9083 37.5446 19.7322 37.3676 19.5873C37.2999 19.5329 37.2164 19.5013 37.1293 19.4972C36.9592 19.4972 36.9019 19.4229 36.9547 19.2721C37.0074 19.1212 36.9883 18.9943 36.8542 18.8956C36.7432 18.8141 36.7559 18.7421 36.8109 18.6142C36.9083 18.3891 36.9965 18.1401 37.0047 17.8988C37.0179 17.5187 36.7063 17.3746 36.3984 17.2067Z" fill="#2A63ED"/>
<path d="M45.7954 3.31598C45.6483 3.4239 45.5003 3.53094 45.3545 3.64021C45.1172 3.81934 45.1163 3.94383 45.3486 4.12565C45.3208 4.19819 45.2625 4.27477 45.2716 4.34329C45.3049 4.59765 45.1906 4.67468 44.9528 4.6505C44.8809 4.64333 44.8057 4.67378 44.7315 4.68364C44.5538 4.70782 44.5493 4.81037 44.6099 4.94158C44.6486 5.02443 44.6928 5.10504 44.7347 5.18654L44.6773 5.26222C44.5862 5.21744 44.491 5.16952 44.3967 5.12788C44.3024 5.08623 44.2223 5.03204 44.1312 5.02219C44.0907 5.01816 44.0155 5.10459 44.0023 5.16057C43.9936 5.1955 44.0629 5.26536 44.1125 5.29223C44.1813 5.32895 44.2646 5.3397 44.4054 5.37955L42.8487 5.81932C42.8414 5.81932 42.8314 5.82245 42.8277 5.82738C42.5959 6.18564 42.1751 6.13503 41.8412 6.2752C41.7179 6.32409 41.6067 6.39847 41.5151 6.49329C41.4614 6.55196 41.4723 6.6675 41.4491 6.78348C41.2341 6.76199 41.2009 6.90753 41.2063 7.12428C41.2109 7.31102 40.9736 7.41178 40.7964 7.33028C40.7395 7.3043 40.6484 7.27609 40.6074 7.30162C40.3 7.49597 40.0563 7.21205 39.7785 7.2013C39.7471 7.2013 39.722 7.12338 39.6874 7.08621C39.6528 7.04904 39.6177 6.99083 39.5758 6.98366C39.1805 6.91828 39.1382 6.8632 39.2365 6.51613C39.2402 6.50359 39.2297 6.48792 39.2324 6.49732C39.1149 6.45254 38.9182 6.39432 38.9218 6.3782C38.9583 6.21027 39.0935 6.15429 39.2702 6.16056V6.38447C39.3691 6.37193 39.4779 6.3791 39.5599 6.33611C39.589 6.32088 39.5827 6.16235 39.5408 6.10772C39.3809 5.89724 39.0398 5.89724 38.8576 6.09294C38.8166 6.13772 38.782 6.1825 38.7383 6.23848C38.6841 6.12653 38.6271 6.04637 38.6053 5.95725C38.5597 5.77812 38.4231 5.72662 38.2705 5.72348C37.7404 5.71363 37.223 5.7611 36.7334 5.99934C36.6423 6.04413 36.5102 6.00561 36.4369 6.00561C36.3203 6.11757 36.2347 6.2658 36.1181 6.29312C36.0015 6.32043 35.8489 6.23356 35.7109 6.19639C36.0152 5.86186 36.4396 5.7302 36.8454 5.57794C37.7673 5.22998 38.6914 4.88157 39.6319 4.5869C40.4667 4.32538 41.3211 4.12251 42.1732 3.9192C42.871 3.75261 43.576 3.6111 44.2824 3.48212C44.7761 3.39256 45.2771 3.34151 45.7749 3.27344L45.7954 3.31598Z" fill="#2A63ED"/>
<path d="M65.8139 28.1905C65.7877 28.0739 65.7592 27.9573 65.7366 27.8398C65.7245 27.8001 65.7266 27.7574 65.7426 27.7191C65.8805 27.5292 65.8433 27.3261 65.8015 27.1211C65.7973 27.1007 65.7877 27.0756 65.795 27.0592C65.9205 26.781 65.7293 26.8156 65.5611 26.8242C65.5224 26.8242 65.4829 26.821 65.3956 26.8169C65.6171 26.6471 65.6089 26.4717 65.4815 26.3064C65.3606 26.1502 65.4112 25.9111 65.2025 25.7963C65.0255 25.6993 64.8201 25.6369 64.7121 25.4352C64.6937 25.4006 64.5567 25.3924 64.5006 25.4215C64.3664 25.4908 64.2758 25.4343 64.1683 25.3696C64.0469 25.2968 63.9104 25.2508 63.7858 25.1829C63.6686 25.1187 63.5395 25.059 63.4494 24.9657C63.3023 24.8136 63.3524 24.6924 63.5657 24.6683C63.7036 24.6537 63.7224 24.5877 63.7261 24.4734C63.7325 24.2388 63.6829 23.9674 63.7854 23.7811C63.8879 23.5949 63.9182 23.3817 64.0207 23.1996C64.1232 23.0174 64.4983 23.0356 64.6951 23.205C64.8421 23.3312 65.0246 23.4186 65.2007 23.5079C65.2301 23.5229 65.3133 23.4715 65.3492 23.4309C65.4466 23.3207 65.5431 23.3298 65.6751 23.3726C65.7857 23.405 65.9037 23.4026 66.0129 23.3658C66.2179 23.292 66.3347 23.3435 66.3563 23.5698C66.3751 23.7766 66.4206 23.8772 66.6431 23.7274C66.7019 23.6878 66.8109 23.7215 66.9023 23.7215C66.9285 23.89 66.9667 24.0403 67.1184 23.8791L67.4958 24.3299C67.4898 24.3418 67.4847 24.3754 67.4696 24.3791C67.1552 24.4925 67.2181 24.7161 67.2917 24.9497C67.3432 25.1132 67.3776 25.2817 67.4268 25.4461C67.4388 25.4941 67.4685 25.5359 67.51 25.5632C67.6429 25.6215 67.9793 25.4366 68.0368 25.2995C68.0884 25.1796 68.1623 25.0704 68.2547 24.9775C68.1168 25.4238 68.3117 25.9161 68.034 26.3378C67.9816 26.4175 68.0078 26.5619 68.0267 26.6721C68.1402 27.3393 68.0593 27.9568 67.5105 28.42C67.3542 28.5521 67.1248 28.6022 66.9253 28.6805C66.6955 28.7716 66.462 28.8171 66.2556 28.6272C66.1857 28.5625 66.1315 28.4824 66.0681 28.4113C65.9987 28.333 65.9274 28.2569 65.8566 28.1795L65.8139 28.1905Z" fill="#2A63ED"/>
<path d="M69.0841 25.8707C69.0718 25.6403 69.0477 25.4048 69.051 25.172C69.0543 24.9568 68.831 24.7378 68.6016 24.7941C68.3916 24.8457 68.3589 24.748 68.3367 24.5931C68.3192 24.47 68.279 24.3479 68.2766 24.2244C68.2766 24.1663 68.3712 24.105 68.3712 24.0488C68.3618 23.8847 68.3561 23.7082 68.2903 23.5616C68.1735 23.3012 68.0141 23.0588 67.875 22.8135L68.1484 22.6914C68.3613 22.9555 68.6262 23.2228 68.8149 23.5339C69.034 23.8958 69.1934 24.2931 69.208 24.7277C69.2189 25.0503 69.2412 25.373 69.2502 25.6928C69.2502 25.7541 69.2151 25.8164 69.1957 25.8772L69.0841 25.8707Z" fill="#2A63ED"/>
<path d="M65.9077 20.8696C65.2903 20.3869 65.1697 20.0646 65.3548 19.5801C65.499 19.5919 65.6442 19.5623 65.7349 19.6197C65.9504 19.7565 66.2239 19.5887 66.4189 19.7806C66.5097 19.8686 66.5723 19.8417 66.6144 19.7241C66.6271 19.6886 66.6752 19.6653 66.7269 19.6526C66.6816 19.8066 66.8177 19.999 66.5732 20.1056C66.4992 20.1375 66.511 20.3686 66.4784 20.5327C66.247 20.5432 65.968 20.5054 65.9077 20.8696Z" fill="#2A63ED"/>
<path d="M56.3928 17.0781C56.5358 17.2379 56.4988 17.4255 56.4191 17.5789C56.2106 17.9809 55.9825 18.3729 55.7451 18.7581C55.7113 18.8131 55.5763 18.8336 55.4988 18.8172C55.4587 18.809 55.419 18.6834 55.4199 18.6115C55.4235 18.3838 55.3928 18.1407 55.579 17.9541C55.5986 17.934 55.5963 17.8812 55.5896 17.8466C55.5411 17.5844 55.5451 17.4168 55.9072 17.4319C56.0565 17.4387 56.2146 17.2142 56.3928 17.0781Z" fill="#2A63ED"/>
<path d="M48.8366 5.53911C48.4873 5.41664 48.1298 5.42934 48.0098 5.09868C48.181 5.00796 48.3184 4.905 48.4718 4.87189C48.5722 4.84921 48.7037 4.91316 48.8065 4.96623C48.8594 4.99345 48.8832 5.08053 48.9156 5.14313C48.948 5.20572 48.9612 5.30052 49.0128 5.34452C49.1534 5.46336 49.3201 5.55272 49.4571 5.67473C49.5301 5.74005 49.563 5.84936 49.6141 5.93872C49.5109 5.98407 49.4114 6.05528 49.305 6.06708C49.1196 6.08758 48.9324 6.08514 48.7476 6.05982C48.6462 6.04531 48.5544 5.96049 48.4586 5.90742C48.5129 5.84437 48.5636 5.77769 48.6229 5.71963C48.6823 5.66158 48.748 5.61259 48.8366 5.53911Z" fill="#2A63ED"/>
<path d="M72.915 18.7414C72.8819 18.9277 72.8581 19.0614 72.843 19.1462C72.6737 19.2195 72.543 19.276 72.36 19.3559C72.2981 19.3223 72.1834 19.2579 72.0665 19.197C71.9495 19.1361 71.8165 19.0738 71.6936 19.0085C71.6418 18.9811 71.5689 18.952 71.556 18.9083C71.5102 18.7692 71.4258 18.7202 71.2735 18.7114C71.2116 18.7078 71.163 18.5869 71.0979 18.5304C71.0442 18.4862 70.9667 18.4125 70.9144 18.4227C70.6544 18.4761 70.603 18.4416 70.6291 18.1843C70.6368 18.144 70.6486 18.1045 70.6645 18.0664C70.8181 18.1039 70.9671 18.122 71.0979 18.1785C71.1923 18.2196 71.2634 18.311 71.3441 18.3812C71.4735 18.4924 71.5982 18.6094 71.7331 18.7145C71.8188 18.7816 71.9248 18.8244 72.0133 18.891C72.2087 19.0336 72.4027 18.9502 72.5939 18.891C72.6884 18.8593 72.7774 18.8045 72.915 18.7414Z" fill="#2A63ED"/>
<path d="M64.6646 19.6515L64.3249 19.9614C64.2529 19.7942 64.1317 19.59 64.0805 19.3706C64.0331 19.1788 64.0957 18.9666 64.0611 18.7708C63.9995 18.4212 63.901 18.0774 63.8242 17.7617C63.9303 17.7916 64.0923 18.1439 64.2506 18.6678C64.3609 19.0139 64.5367 19.3438 64.6646 19.6515Z" fill="#2A63ED"/>
<path d="M45.1836 6.36642C45.3072 6.35765 45.4409 6.31302 45.5336 6.34888C45.8493 6.47083 46.1432 6.34888 46.4461 6.32417C46.6131 6.31062 46.7934 6.26001 46.9407 6.43098C46.7299 6.49793 46.5278 6.55492 46.333 6.62586C46.1295 6.70038 45.9597 6.7227 45.7526 6.59159C45.6029 6.49714 45.3045 6.68643 45.1836 6.36642Z" fill="#2A63ED"/>
<path d="M47.4766 5.61477C47.6226 5.53859 47.7449 5.44468 47.8851 5.40779C47.9781 5.38335 48.1471 5.40779 48.1851 5.4696C48.2362 5.55249 48.3005 5.70916 48.1291 5.79348C48.075 5.81984 48.0317 5.87158 47.9752 5.88931C47.8359 5.93483 47.6928 5.9674 47.5511 6.00526C47.5253 5.87158 47.4994 5.73551 47.4766 5.61477Z" fill="#2A63ED"/>
<path d="M67.1855 31.8C67.2736 31.8 67.3177 31.7886 67.3511 31.8C67.5899 31.8945 67.8281 31.9903 68.062 32.0945C68.1109 32.1164 68.1404 32.1757 68.1787 32.2163C68.1166 32.2568 68.0466 32.3351 67.9946 32.325C67.7841 32.2824 67.5643 32.2382 67.378 32.1428C67.286 32.097 67.2587 31.9391 67.1855 31.8Z" fill="#2A63ED"/>
<path d="M38.7664 9.61094L37.8498 9.94893C37.8453 9.60071 37.9148 9.52511 38.2648 9.50065C38.3088 9.50104 38.3522 9.49016 38.3906 9.46908C38.5508 9.35834 38.6496 9.4375 38.7664 9.61094Z" fill="#2A63ED"/>
<path d="M64.4425 17.3066C64.7413 17.833 64.803 18.371 64.6847 18.9754C64.5936 18.7756 64.4675 18.6146 64.4525 18.4432C64.4214 18.0743 64.4425 17.7017 64.4425 17.3066Z" fill="#2A63ED"/>
<path d="M60.7688 4.86676C60.3247 4.87544 60.1015 4.49611 59.6992 4.35229C60.1006 4.26638 60.6247 4.53086 60.7688 4.86676Z" fill="#2A63ED"/>
<path d="M72.8817 18.5957C72.9671 18.6255 73.0552 18.647 73.1447 18.6599C73.3087 18.6698 73.396 18.7443 73.4438 18.9014C73.4771 19.0104 73.5501 19.1069 73.6055 19.2093C73.6487 19.2754 73.6744 19.3514 73.6802 19.4301L72.8398 18.6222L72.8817 18.5957Z" fill="#2A63ED"/>
<path d="M27.8057 11.1621C27.9245 11.3817 27.7192 11.478 27.6265 11.5639C27.393 11.7809 27.117 11.9544 26.8607 12.1488C26.7684 12.2191 26.6846 12.2998 26.5972 12.3757L26.543 12.3159L27.8057 11.1621Z" fill="#2A63ED"/>
<path d="M68.1425 19.5049L67.8833 19.4624C67.8543 19.2557 67.8253 19.0525 67.7969 18.8476C67.9721 18.8372 68.1228 18.8091 68.2657 18.8295C68.3187 18.8372 68.3531 18.958 68.4081 19.0471C67.898 19.0851 67.898 19.0851 68.1425 19.5049Z" fill="#2A63ED"/>
<path d="M29.5992 10.3108C29.5409 10.437 29.5082 10.5942 29.4145 10.6786C29.3508 10.7355 29.201 10.6895 29.0896 10.6895L29.0645 10.6056L29.5064 10.252L29.5992 10.3108Z" fill="#2A63ED"/>
<path d="M67.5664 20.1895L67.9938 20.4702C68.007 20.4545 68.0208 20.4389 68.034 20.4227C68.0437 20.4351 68.0594 20.446 68.062 20.4593C68.0874 20.5847 68.1709 20.7562 67.9724 20.7918C67.7837 20.8251 67.7145 20.6655 67.6783 20.5068C67.6477 20.3991 67.6104 20.2931 67.5664 20.1895Z" fill="#2A63ED"/>
<path d="M36.8555 15.2937C37.1881 14.9109 37.3299 14.8642 37.4666 15.0953C37.2721 15.1782 37.1257 15.4324 36.8555 15.2937Z" fill="#2A63ED"/>
<path d="M68.5182 32.1801L68.7123 32.0977C68.7387 32.2511 68.7636 32.3984 68.79 32.5528L68.4844 32.5313C68.4949 32.4142 68.5061 32.3046 68.5182 32.1801Z" fill="#2A63ED"/>
<path d="M66.5651 21.8578C66.5414 21.7404 66.4823 21.6369 66.5146 21.5714C66.6348 21.3229 66.5035 21.2677 66.2768 21.2598C66.256 21.2598 66.2358 21.2396 66.1914 21.2162L66.4823 21.0234C66.6484 21.1423 66.7176 21.6444 66.5651 21.8578Z" fill="#2A63ED"/>
<path d="M30.6677 9.12519L29.4453 9.49254C29.8177 9.25052 30.2075 9.06339 30.6677 9.12519Z" fill="#2A63ED"/>
<path d="M28.6816 10.3201L29.14 9.94922C29.1173 10.2319 28.9553 10.3644 28.6816 10.3201Z" fill="#2A63ED"/>
<path d="M61.9147 15.7148C61.8706 15.9166 61.8423 16.0632 61.8038 16.2458C61.6174 16.0552 61.6492 15.9185 61.9147 15.7148Z" fill="#2A63ED"/>
<path d="M28.2246 10.1068C28.3989 10.0405 28.5321 9.87831 28.8358 9.98415L28.2576 10.1768L28.2246 10.1068Z" fill="#2A63ED"/>
</svg>
