<svg width="110" height="44" viewBox="0 0 110 44" fill="none" xmlns="http://www.w3.org/2000/svg">
<path d="M11.2351 36.1471C8.85783 36.1471 7.0604 35.615 5.84278 34.5507C4.62517 33.4864 4.01779 31.9149 4.02069 29.8362V21.0854H0V16.0126H4.02069V11.5999L10.1088 10.2852V16.0126H15.6698V21.0854H10.1088V28.6363C10.1088 29.5127 10.303 30.1324 10.6915 30.4953C11.08 30.8581 11.7624 31.0399 12.7388 31.0405C13.1977 31.0434 13.6562 31.012 14.1104 30.9466C14.5744 30.872 15.0327 30.7653 15.4819 30.6274V35.548C14.7944 35.7528 14.0905 35.8982 13.378 35.9828C12.6679 36.0829 11.9522 36.1378 11.2351 36.1471Z" fill="#222222"/>
<path d="M17.2832 35.8864V9.59142L23.3713 8.65234V35.8864H17.2832Z" fill="#222222"/>
<path d="M32.7318 36.2264C31.3292 36.2264 30.0826 35.9632 28.992 35.4369C27.9013 34.9105 27.0496 34.1859 26.4367 33.2631C25.8227 32.3356 25.5156 31.2713 25.5156 30.0702C25.5156 28.1666 26.2358 26.6951 27.6761 25.6557C29.1164 24.6163 31.1266 24.0969 33.7067 24.0975C35.2277 24.0935 36.743 24.2828 38.2162 24.661V23.6793C38.2162 22.6788 37.8973 21.9339 37.2595 21.4446C36.6217 20.9554 35.6761 20.711 34.4225 20.7116C33.5405 20.727 32.6639 20.8532 31.8133 21.0873C30.8485 21.3388 29.715 21.7397 28.4127 22.2898L26.2314 17.8196C27.7497 17.1311 29.3283 16.5842 30.9471 16.1858C32.442 15.8248 33.9744 15.6418 35.5123 15.6406C38.2676 15.6406 40.4091 16.298 41.9369 17.6127C43.4648 18.9274 44.229 20.7745 44.2296 23.1541V35.8881H38.218V34.6856C37.4465 35.2226 36.5883 35.6229 35.681 35.869C34.7178 36.1164 33.7263 36.2366 32.7318 36.2264ZM31.3037 29.9528C31.3037 30.5789 31.5794 31.0673 32.1308 31.418C32.6822 31.7687 33.4461 31.9426 34.4225 31.9397C35.1117 31.9437 35.7991 31.8678 36.4708 31.7136C37.0881 31.5724 37.6782 31.3316 38.218 31.0006V28.446C37.6373 28.2946 37.0472 28.1816 36.4516 28.1077C35.8408 28.0321 35.2258 27.9943 34.6104 27.9947C33.5586 27.9947 32.7445 28.1639 32.1682 28.5025C31.5918 28.841 31.3037 29.3245 31.3037 29.9528Z" fill="#222222"/>
<path d="M49.0758 44.0009C48.6003 44.0009 48.1365 43.9824 47.6842 43.9453C47.3034 43.9187 46.9254 43.862 46.5536 43.7757V38.5917C47.1735 38.702 47.8026 38.7523 48.4321 38.7421C50.3855 38.7421 51.7006 37.8906 52.3772 36.1875V36.1501L44.7559 16.0156H51.4814L55.8779 28.5245L60.9875 16.0156H67.5627L58.6575 36.9013C57.9316 38.6299 57.1303 40.0136 56.2536 41.0524C55.377 42.0912 54.3623 42.8424 53.2096 43.3062C52.0569 43.7694 50.679 44.0009 49.0758 44.0009Z" fill="#222222"/>
<path d="M77.9656 36.265C75.9363 36.265 74.1014 35.8079 72.4611 34.8938C70.8637 34.0216 69.523 32.7459 68.5726 31.194C67.6206 29.641 67.1445 27.9006 67.1445 25.9726C67.1445 24.0445 67.6018 22.3055 68.5161 20.7555C69.4173 19.216 70.7069 17.9399 72.2559 17.0548C73.8348 16.1412 75.5885 15.6842 77.5169 15.6836C79.4703 15.6836 81.1984 16.1531 82.7013 17.0922C84.2078 18.0358 85.4339 19.3656 86.2524 20.9433C87.1163 22.571 87.5483 24.4367 87.5483 26.5403V28.0429H73.3831C73.6499 28.656 74.0256 29.2157 74.492 29.6949C74.9651 30.1776 75.5347 30.555 76.1636 30.8027C76.8331 31.069 77.5478 31.203 78.2683 31.1975C79.0378 31.2073 79.8023 31.0734 80.5227 30.8027C81.1698 30.5583 81.7585 30.1809 82.2508 29.6949L86.2707 33.2599C85.0183 34.3109 83.7345 35.0746 82.4195 35.5511C81.1045 36.0276 79.6199 36.2656 77.9656 36.265ZM73.2691 23.7935H81.5724C81.3904 23.1762 81.0764 22.6057 80.6523 22.1215C80.2479 21.6654 79.7561 21.2952 79.2059 21.0328C78.6422 20.7669 78.0255 20.6319 77.4021 20.6381C76.7685 20.6292 76.1404 20.7573 75.5609 21.0137C75.0163 21.2593 74.5345 21.6253 74.1519 22.0841C73.7428 22.5869 73.4422 23.1689 73.2691 23.7935Z" fill="#222222"/>
<path d="M89.6504 35.8881V16.0162H95.7385V17.3683C97.2414 16.2171 99.0196 15.6412 101.073 15.6406C102.627 15.6406 103.998 15.9789 105.188 16.6553C106.364 17.3172 107.333 18.2925 107.987 19.4726C108.663 20.6742 109.002 22.0655 109.002 23.6462V35.8881H102.914V24.4688C102.914 23.3674 102.588 22.4906 101.937 21.8385C101.286 21.1864 100.409 20.8609 99.3069 20.8621C98.5299 20.8621 97.8472 20.9997 97.2587 21.2751C96.6732 21.5487 96.1543 21.9463 95.7376 22.4402V35.8881H89.6504Z" fill="#222222"/>
<path d="M4.02148 7.29348V1.3147L10.1096 0V5.90226" fill="#8E56F6"/>
</svg>
