<svg width="327" height="44" viewBox="0 0 327 44" fill="none" xmlns="http://www.w3.org/2000/svg">
<g clip-path="url(#clip0_101_1224)">
<path d="M11.2351 36.1471C8.85783 36.1471 7.0604 35.615 5.84278 34.5507C4.62517 33.4864 4.01779 31.9149 4.02069 29.8362V21.0854H0V16.0126H4.02069V11.5999L10.1088 10.2852V16.0126H15.6698V21.0854H10.1088V28.6363C10.1088 29.5127 10.303 30.1324 10.6915 30.4953C11.08 30.8581 11.7624 31.0399 12.7388 31.0405C13.1977 31.0434 13.6562 31.012 14.1104 30.9466C14.5744 30.872 15.0327 30.7653 15.4819 30.6274V35.548C14.7944 35.7528 14.0905 35.8982 13.378 35.9828C12.6679 36.0829 11.9522 36.1378 11.2351 36.1471Z" fill="#222222"/>
<path d="M17.2832 35.8864V9.59142L23.3713 8.65234V35.8864H17.2832Z" fill="#222222"/>
<path d="M32.7318 36.2264C31.3292 36.2264 30.0826 35.9632 28.992 35.4369C27.9013 34.9105 27.0496 34.1859 26.4367 33.2631C25.8227 32.3356 25.5156 31.2713 25.5156 30.0702C25.5156 28.1666 26.2358 26.6951 27.6761 25.6557C29.1164 24.6163 31.1266 24.0969 33.7067 24.0975C35.2277 24.0935 36.743 24.2828 38.2162 24.661V23.6793C38.2162 22.6788 37.8973 21.9339 37.2595 21.4446C36.6217 20.9554 35.6761 20.711 34.4225 20.7116C33.5405 20.727 32.6639 20.8532 31.8133 21.0873C30.8485 21.3388 29.715 21.7397 28.4127 22.2898L26.2314 17.8196C27.7497 17.1311 29.3283 16.5842 30.9471 16.1858C32.442 15.8248 33.9744 15.6418 35.5123 15.6406C38.2676 15.6406 40.4091 16.298 41.9369 17.6127C43.4648 18.9274 44.229 20.7745 44.2296 23.1541V35.8881H38.218V34.6856C37.4465 35.2226 36.5883 35.6229 35.681 35.869C34.7178 36.1164 33.7263 36.2366 32.7318 36.2264ZM31.3037 29.9528C31.3037 30.5789 31.5794 31.0673 32.1308 31.418C32.6822 31.7687 33.4461 31.9426 34.4225 31.9397C35.1117 31.9437 35.7991 31.8678 36.4708 31.7136C37.0881 31.5724 37.6782 31.3316 38.218 31.0006V28.446C37.6373 28.2946 37.0472 28.1816 36.4516 28.1077C35.8408 28.0321 35.2258 27.9943 34.6104 27.9947C33.5586 27.9947 32.7445 28.1639 32.1682 28.5025C31.5918 28.841 31.3037 29.3245 31.3037 29.9528Z" fill="#222222"/>
<path d="M49.0758 44.0009C48.6003 44.0009 48.1365 43.9824 47.6842 43.9453C47.3034 43.9187 46.9254 43.862 46.5536 43.7757V38.5917C47.1735 38.702 47.8026 38.7523 48.4321 38.7421C50.3855 38.7421 51.7006 37.8906 52.3772 36.1875V36.1501L44.7559 16.0156H51.4814L55.8779 28.5245L60.9875 16.0156H67.5627L58.6575 36.9013C57.9316 38.6299 57.1303 40.0136 56.2536 41.0524C55.377 42.0912 54.3623 42.8424 53.2096 43.3062C52.0569 43.7694 50.679 44.0009 49.0758 44.0009Z" fill="#222222"/>
<path d="M77.9656 36.265C75.9363 36.265 74.1014 35.8079 72.4611 34.8938C70.8637 34.0216 69.523 32.7459 68.5726 31.194C67.6206 29.641 67.1445 27.9006 67.1445 25.9726C67.1445 24.0445 67.6018 22.3055 68.5161 20.7555C69.4173 19.216 70.7069 17.9399 72.2559 17.0548C73.8348 16.1412 75.5885 15.6842 77.5169 15.6836C79.4703 15.6836 81.1984 16.1531 82.7013 17.0922C84.2078 18.0358 85.4339 19.3656 86.2524 20.9433C87.1163 22.571 87.5483 24.4367 87.5483 26.5403V28.0429H73.3831C73.6499 28.656 74.0256 29.2157 74.492 29.6949C74.9651 30.1776 75.5347 30.555 76.1636 30.8027C76.8331 31.069 77.5478 31.203 78.2683 31.1975C79.0378 31.2073 79.8023 31.0734 80.5227 30.8027C81.1698 30.5583 81.7585 30.1809 82.2508 29.6949L86.2707 33.2599C85.0183 34.3109 83.7345 35.0746 82.4195 35.5511C81.1045 36.0276 79.6199 36.2656 77.9656 36.265ZM73.2691 23.7935H81.5724C81.3904 23.1762 81.0764 22.6057 80.6523 22.1215C80.2479 21.6654 79.7561 21.2952 79.2059 21.0328C78.6422 20.7669 78.0255 20.6319 77.4021 20.6381C76.7685 20.6292 76.1404 20.7573 75.5609 21.0137C75.0163 21.2593 74.5345 21.6253 74.1519 22.0841C73.7428 22.5869 73.4422 23.1689 73.2691 23.7935Z" fill="#222222"/>
<path d="M89.6504 35.8881V16.0162H95.7385V17.3683C97.2414 16.2171 99.0196 15.6412 101.073 15.6406C102.627 15.6406 103.998 15.9789 105.188 16.6553C106.364 17.3172 107.333 18.2925 107.987 19.4726C108.663 20.6742 109.002 22.0655 109.002 23.6462V35.8881H102.914V24.4688C102.914 23.3674 102.588 22.4906 101.937 21.8385C101.286 21.1864 100.409 20.8609 99.3069 20.8621C98.5299 20.8621 97.8472 20.9997 97.2587 21.2751C96.6732 21.5487 96.1543 21.9463 95.7376 22.4402V35.8881H89.6504Z" fill="#222222"/>
<path d="M4.02148 7.29348V1.3147L10.1096 0V5.90226" fill="#3BB763"/>
</g>
<path d="M125.84 36L119.4 16H125.88L127.72 22.52C127.96 23.3733 128.187 24.28 128.4 25.24C128.613 26.2 128.8 27.1867 128.96 28.2C129.093 27.48 129.213 26.88 129.32 26.4C129.427 25.8933 129.56 25.36 129.72 24.8C129.88 24.2133 130.107 23.4533 130.4 22.52L132.44 16H138.76L140.64 22.52C140.693 22.68 140.773 23.0133 140.88 23.52C141.013 24 141.16 24.5467 141.32 25.16C141.48 25.7467 141.613 26.32 141.72 26.88C141.853 27.44 141.947 27.88 142 28.2C142.08 27.72 142.213 27.08 142.4 26.28C142.613 25.4533 142.813 24.68 143 23.96C143.213 23.24 143.347 22.76 143.4 22.52L145.32 16H151.84L144.84 36H139.12L137.2 29.64C136.693 27.9867 136.307 26.6 136.04 25.48C135.773 24.36 135.613 23.5867 135.56 23.16C135.48 23.5867 135.32 24.2667 135.08 25.2C134.84 26.1333 134.4 27.6533 133.76 29.76L131.84 36H125.84ZM160.827 36.52C158.827 36.52 157.04 36.0667 155.467 35.16C153.92 34.2533 152.693 33.0133 151.787 31.44C150.907 29.84 150.467 28.0133 150.467 25.96C150.467 23.88 150.893 22.0533 151.747 20.48C152.627 18.88 153.84 17.6267 155.387 16.72C156.933 15.8133 158.707 15.36 160.707 15.36C162.813 15.36 164.627 15.8 166.147 16.68C167.667 17.5333 168.84 18.76 169.667 20.36C170.493 21.9333 170.907 23.8133 170.907 26V27.56L153.707 27.64L153.787 23.84H164.787C164.787 22.7733 164.427 21.9333 163.707 21.32C162.987 20.68 162 20.36 160.747 20.36C159.707 20.36 158.853 20.56 158.187 20.96C157.547 21.36 157.067 21.9867 156.747 22.84C156.427 23.6667 156.267 24.7333 156.267 26.04C156.267 27.9067 156.64 29.2933 157.387 30.2C158.16 31.08 159.347 31.52 160.947 31.52C162.12 31.52 163.093 31.32 163.867 30.92C164.64 30.52 165.133 29.96 165.347 29.24H170.987C170.64 31.4533 169.547 33.2267 167.707 34.56C165.867 35.8667 163.573 36.52 160.827 36.52ZM178.354 36H172.554V5.84H178.714V18.32C179.328 17.4133 180.234 16.6933 181.434 16.16C182.661 15.6 183.994 15.32 185.434 15.32C187.301 15.32 188.914 15.7733 190.274 16.68C191.661 17.5867 192.728 18.8533 193.474 20.48C194.221 22.1067 194.594 24.0133 194.594 26.2C194.594 28.2533 194.181 30.0667 193.354 31.64C192.554 33.1867 191.421 34.3867 189.954 35.24C188.514 36.0933 186.848 36.52 184.954 36.52C183.568 36.52 182.301 36.24 181.154 35.68C180.034 35.0933 179.208 34.3467 178.674 33.44L178.354 36ZM178.754 25.88C178.754 26.8667 178.954 27.7467 179.354 28.52C179.781 29.2667 180.354 29.8533 181.074 30.28C181.821 30.68 182.674 30.88 183.634 30.88C184.621 30.88 185.461 30.6667 186.154 30.24C186.874 29.8133 187.421 29.2267 187.794 28.48C188.194 27.7333 188.394 26.8667 188.394 25.88C188.394 24.8933 188.194 24.0267 187.794 23.28C187.421 22.5333 186.874 21.9467 186.154 21.52C185.461 21.0933 184.621 20.88 183.634 20.88C182.674 20.88 181.821 21.0933 181.074 21.52C180.354 21.92 179.781 22.4933 179.354 23.24C178.954 23.9867 178.754 24.8667 178.754 25.88ZM210.526 36H204.726V5.84H210.886V18.32C211.5 17.4133 212.406 16.6933 213.606 16.16C214.833 15.6 216.166 15.32 217.606 15.32C219.473 15.32 221.086 15.7733 222.446 16.68C223.833 17.5867 224.9 18.8533 225.646 20.48C226.393 22.1067 226.766 24.0133 226.766 26.2C226.766 28.2533 226.353 30.0667 225.526 31.64C224.726 33.1867 223.593 34.3867 222.126 35.24C220.686 36.0933 219.02 36.52 217.126 36.52C215.74 36.52 214.473 36.24 213.326 35.68C212.206 35.0933 211.38 34.3467 210.846 33.44L210.526 36ZM210.926 25.88C210.926 26.8667 211.126 27.7467 211.526 28.52C211.953 29.2667 212.526 29.8533 213.246 30.28C213.993 30.68 214.846 30.88 215.806 30.88C216.793 30.88 217.633 30.6667 218.326 30.24C219.046 29.8133 219.593 29.2267 219.966 28.48C220.366 27.7333 220.566 26.8667 220.566 25.88C220.566 24.8933 220.366 24.0267 219.966 23.28C219.593 22.5333 219.046 21.9467 218.326 21.52C217.633 21.0933 216.793 20.88 215.806 20.88C214.846 20.88 213.993 21.0933 213.246 21.52C212.526 21.92 211.953 22.4933 211.526 23.24C211.126 23.9867 210.926 24.8667 210.926 25.88ZM241.123 16H247.283V36H241.483L241.083 33.76C240.47 34.5867 239.59 35.2533 238.443 35.76C237.323 36.2667 236.163 36.52 234.963 36.52C232.697 36.52 230.897 35.8133 229.563 34.4C228.257 32.96 227.603 31.0133 227.603 28.56V16H233.763V26.32C233.763 27.9467 234.057 29.1467 234.643 29.92C235.23 30.6667 236.15 31.04 237.403 31.04C238.737 31.04 239.683 30.68 240.243 29.96C240.83 29.2133 241.123 28.0267 241.123 26.4V16ZM249.906 36V16H256.066V36H249.906ZM252.946 12.88C251.959 12.88 251.119 12.5467 250.426 11.88C249.759 11.1867 249.426 10.3467 249.426 9.36C249.426 8.37333 249.759 7.54667 250.426 6.88C251.119 6.21333 251.959 5.88 252.946 5.88C253.906 5.88 254.719 6.21333 255.386 6.88C256.079 7.54667 256.426 8.37333 256.426 9.36C256.426 10.3467 256.079 11.1867 255.386 11.88C254.719 12.5467 253.906 12.88 252.946 12.88ZM264.847 36H258.687V5.84H264.847V36ZM275.868 36.52C273.948 36.52 272.282 36.0933 270.868 35.24C269.455 34.3867 268.348 33.1867 267.548 31.64C266.775 30.0667 266.388 28.2267 266.388 26.12C266.388 23.9867 266.788 22.12 267.588 20.52C268.388 18.8933 269.522 17.6267 270.988 16.72C272.482 15.8133 274.242 15.36 276.268 15.36C277.522 15.36 278.682 15.5867 279.748 16.04C280.842 16.4933 281.682 17.0933 282.268 17.84V5.84H288.428V36H282.628L282.308 33.44C281.775 34.3467 280.922 35.0933 279.748 35.68C278.602 36.24 277.308 36.52 275.868 36.52ZM277.348 30.88C278.308 30.88 279.148 30.68 279.868 30.28C280.615 29.8533 281.188 29.2667 281.588 28.52C282.015 27.7467 282.228 26.8667 282.228 25.88C282.228 24.8667 282.015 23.9867 281.588 23.24C281.188 22.4933 280.615 21.92 279.868 21.52C279.148 21.0933 278.308 20.88 277.348 20.88C276.388 20.88 275.548 21.0933 274.828 21.52C274.108 21.9467 273.548 22.5333 273.148 23.28C272.775 24.0267 272.588 24.8933 272.588 25.88C272.588 26.8667 272.775 27.7333 273.148 28.48C273.548 29.2267 274.108 29.8133 274.828 30.24C275.548 30.6667 276.388 30.88 277.348 30.88ZM300.334 36.52C298.334 36.52 296.548 36.0667 294.974 35.16C293.428 34.2533 292.201 33.0133 291.294 31.44C290.414 29.84 289.974 28.0133 289.974 25.96C289.974 23.88 290.401 22.0533 291.254 20.48C292.134 18.88 293.348 17.6267 294.894 16.72C296.441 15.8133 298.214 15.36 300.214 15.36C302.321 15.36 304.134 15.8 305.654 16.68C307.174 17.5333 308.348 18.76 309.174 20.36C310.001 21.9333 310.414 23.8133 310.414 26V27.56L293.214 27.64L293.294 23.84H304.294C304.294 22.7733 303.934 21.9333 303.214 21.32C302.494 20.68 301.508 20.36 300.254 20.36C299.214 20.36 298.361 20.56 297.694 20.96C297.054 21.36 296.574 21.9867 296.254 22.84C295.934 23.6667 295.774 24.7333 295.774 26.04C295.774 27.9067 296.148 29.2933 296.894 30.2C297.668 31.08 298.854 31.52 300.454 31.52C301.628 31.52 302.601 31.32 303.374 30.92C304.148 30.52 304.641 29.96 304.854 29.24H310.494C310.148 31.4533 309.054 33.2267 307.214 34.56C305.374 35.8667 303.081 36.52 300.334 36.52ZM325.822 16V21.8H323.862C322.102 21.8 320.716 22.2267 319.702 23.08C318.716 23.9333 318.222 25.3467 318.222 27.32V36H312.062V16.04H317.862L318.342 20.32H317.782C318.049 18.9867 318.649 17.8933 319.582 17.04C320.542 16.16 321.836 15.72 323.462 15.72C323.836 15.72 324.209 15.7467 324.582 15.8C324.982 15.8267 325.396 15.8933 325.822 16Z" fill="#3BB763"/>
<defs>
<clipPath id="clip0_101_1224">
<rect width="109" height="44" fill="white"/>
</clipPath>
</defs>
</svg>
