<svg width="256" height="82" viewBox="0 0 256 82" fill="none" xmlns="http://www.w3.org/2000/svg">
<path d="M0 42.0341L39.6548 0L25.7756 36.8789L0 42.0341Z" fill="#0025FF"/>
<path d="M14.6722 43.8817L39.6547 38.7266L0.396484 81.5537L14.6722 43.8817Z" fill="#0025FF"/>
<path d="M58.1661 36.2229V46.8426C58.1661 47.5622 58.3286 48.0845 58.6536 48.4095C59.0018 48.7113 59.5821 48.8621 60.3946 48.8621H62.8319V52.1699H59.6982C57.9108 52.1699 56.5413 51.7521 55.5896 50.9164C54.6378 50.0808 54.162 48.7229 54.162 46.8426V36.2229H51.8988V32.9847H54.162V28.2146H58.1661V32.9847H62.8319V36.2229H58.1661ZM84.0738 42.1073C84.0738 42.8269 84.0274 43.4768 83.9345 44.0571H69.2758C69.3919 45.5892 69.9606 46.8194 70.9819 47.7479C72.0033 48.6764 73.2568 49.1407 74.7424 49.1407C76.8779 49.1407 78.3867 48.247 79.2688 46.4596H83.5515C82.9712 48.2238 81.915 49.6746 80.383 50.812C78.8742 51.9262 76.994 52.4833 74.7424 52.4833C72.9086 52.4833 71.2605 52.0771 69.7981 51.2646C68.3589 50.429 67.2215 49.2684 66.3858 47.7827C65.5734 46.2739 65.1672 44.533 65.1672 42.5599C65.1672 40.5869 65.5618 38.8575 66.351 37.3719C67.1635 35.8631 68.2893 34.7025 69.7284 33.89C71.1908 33.0776 72.8621 32.6714 74.7424 32.6714C76.5529 32.6714 78.1662 33.066 79.5822 33.8552C80.9981 34.6444 82.1007 35.7586 82.89 37.1978C83.6792 38.6138 84.0738 40.2503 84.0738 42.1073ZM79.9304 40.8538C79.9072 39.3914 79.3849 38.2192 78.3635 37.3371C77.3422 36.455 76.0771 36.014 74.5683 36.014C73.1987 36.014 72.0265 36.455 71.0516 37.3371C70.0766 38.196 69.4963 39.3682 69.3106 40.8538H79.9304ZM94.9438 52.4833C93.435 52.4833 92.0771 52.2163 90.87 51.6825C89.6862 51.1254 88.7461 50.3826 88.0497 49.4541C87.3533 48.5023 86.9819 47.4462 86.9355 46.2855H91.0441C91.1137 47.098 91.4967 47.7827 92.1931 48.3398C92.9127 48.8737 93.8064 49.1407 94.8742 49.1407C95.9884 49.1407 96.8472 48.9318 97.4508 48.5139C98.0775 48.0729 98.3909 47.5158 98.3909 46.8426C98.3909 46.1231 98.0427 45.5892 97.3463 45.241C96.6731 44.8928 95.5938 44.5098 94.1082 44.092C92.669 43.6973 91.4967 43.3143 90.5915 42.9429C89.6862 42.5715 88.8969 42.0028 88.2238 41.2368C87.5738 40.4708 87.2489 39.461 87.2489 38.2076C87.2489 37.1862 87.5506 36.2577 88.1541 35.4221C88.7577 34.5632 89.6165 33.89 90.7307 33.4026C91.8681 32.9151 93.1681 32.6714 94.6304 32.6714C96.8124 32.6714 98.565 33.2285 99.8881 34.3427C101.234 35.4337 101.954 36.9309 102.047 38.8343H98.0775C98.0079 37.9754 97.6597 37.2907 97.0329 36.78C96.4062 36.2693 95.5589 36.014 94.4912 36.014C93.4466 36.014 92.6458 36.2113 92.0887 36.6059C91.5316 37.0005 91.253 37.5228 91.253 38.1727C91.253 38.6834 91.4387 39.1129 91.8101 39.461C92.1815 39.8092 92.6342 40.0878 93.1681 40.2967C93.7019 40.4824 94.4912 40.7261 95.5357 41.0279C96.9285 41.3993 98.0659 41.7823 98.948 42.1769C99.8533 42.5483 100.631 43.1054 101.281 43.8482C101.931 44.591 102.267 45.5776 102.291 46.8078C102.291 47.8988 101.989 48.8737 101.385 49.7326C100.782 50.5915 99.9229 51.2646 98.8087 51.7521C97.7177 52.2396 96.4294 52.4833 94.9438 52.4833ZM110.549 26.404V52.1699H106.58V26.404H110.549ZM114.437 42.4903C114.437 40.5636 114.832 38.8575 115.621 37.3719C116.433 35.8863 117.524 34.7373 118.894 33.9249C120.287 33.0892 121.819 32.6714 123.49 32.6714C124.999 32.6714 126.31 32.9731 127.425 33.5767C128.562 34.157 129.467 34.8882 130.14 35.7702V32.9847H134.145V52.1699H130.14V49.3148C129.467 50.2201 128.55 50.9745 127.39 51.578C126.229 52.1815 124.906 52.4833 123.42 52.4833C121.772 52.4833 120.264 52.0655 118.894 51.2298C117.524 50.3709 116.433 49.1871 115.621 47.6783C114.832 46.1463 114.437 44.4169 114.437 42.4903ZM130.14 42.5599C130.14 41.2368 129.862 40.0878 129.305 39.1129C128.771 38.1379 128.063 37.3951 127.181 36.8845C126.299 36.3738 125.347 36.1184 124.326 36.1184C123.304 36.1184 122.353 36.3738 121.471 36.8845C120.589 37.3719 119.869 38.1031 119.312 39.078C118.778 40.0298 118.511 41.1672 118.511 42.4903C118.511 43.8134 118.778 44.974 119.312 45.9722C119.869 46.9703 120.589 47.7363 121.471 48.2702C122.376 48.7809 123.328 49.0362 124.326 49.0362C125.347 49.0362 126.299 48.7809 127.181 48.2702C128.063 47.7595 128.771 47.0167 129.305 46.0418C129.862 45.0437 130.14 43.883 130.14 42.5599ZM155.367 52.4833C153.858 52.4833 152.5 52.2163 151.293 51.6825C150.109 51.1254 149.169 50.3826 148.473 49.4541C147.776 48.5023 147.405 47.4462 147.358 46.2855H151.467C151.537 47.098 151.92 47.7827 152.616 48.3398C153.336 48.8737 154.229 49.1407 155.297 49.1407C156.411 49.1407 157.27 48.9318 157.874 48.5139C158.5 48.0729 158.814 47.5158 158.814 46.8426C158.814 46.1231 158.466 45.5892 157.769 45.241C157.096 44.8928 156.017 44.5098 154.531 44.092C153.092 43.6973 151.92 43.3143 151.014 42.9429C150.109 42.5715 149.32 42.0028 148.647 41.2368C147.997 40.4708 147.672 39.461 147.672 38.2076C147.672 37.1862 147.974 36.2577 148.577 35.4221C149.181 34.5632 150.039 33.89 151.154 33.4026C152.291 32.9151 153.591 32.6714 155.053 32.6714C157.235 32.6714 158.988 33.2285 160.311 34.3427C161.657 35.4337 162.377 36.9309 162.47 38.8343H158.5C158.431 37.9754 158.083 37.2907 157.456 36.78C156.829 36.2693 155.982 36.014 154.914 36.014C153.87 36.014 153.069 36.2113 152.512 36.6059C151.954 37.0005 151.676 37.5228 151.676 38.1727C151.676 38.6834 151.862 39.1129 152.233 39.461C152.604 39.8092 153.057 40.0878 153.591 40.2967C154.125 40.4824 154.914 40.7261 155.959 41.0279C157.351 41.3993 158.489 41.7823 159.371 42.1769C160.276 42.5483 161.054 43.1054 161.704 43.8482C162.354 44.591 162.69 45.5776 162.714 46.8078C162.714 47.8988 162.412 48.8737 161.808 49.7326C161.205 50.5915 160.346 51.2646 159.232 51.7521C158.141 52.2396 156.852 52.4833 155.367 52.4833ZM171.633 36.2229V46.8426C171.633 47.5622 171.796 48.0845 172.121 48.4095C172.469 48.7113 173.049 48.8621 173.862 48.8621H176.299V52.1699H173.165C171.378 52.1699 170.009 51.7521 169.057 50.9164C168.105 50.0808 167.629 48.7229 167.629 46.8426V36.2229H165.366V32.9847H167.629V28.2146H171.633V32.9847H176.299V36.2229H171.633ZM197.332 32.9847V52.1699H193.363V49.9067C192.736 50.6959 191.912 51.3227 190.891 51.7869C189.893 52.228 188.825 52.4485 187.687 52.4485C186.179 52.4485 184.821 52.1351 183.614 51.5084C182.43 50.8816 181.49 49.9531 180.793 48.7229C180.12 47.4926 179.783 46.007 179.783 44.266V32.9847H183.718V43.6741C183.718 45.3919 184.147 46.715 185.006 47.6435C185.865 48.5488 187.037 49.0014 188.523 49.0014C190.009 49.0014 191.181 48.5488 192.04 47.6435C192.922 46.715 193.363 45.3919 193.363 43.6741V32.9847H197.332ZM201.246 42.4903C201.246 40.5636 201.641 38.8575 202.43 37.3719C203.243 35.8863 204.334 34.7373 205.703 33.9249C207.096 33.0892 208.639 32.6714 210.334 32.6714C211.587 32.6714 212.818 32.9499 214.025 33.507C215.255 34.0409 216.23 34.7605 216.95 35.6658V26.404H220.954V52.1699H216.95V49.28C216.3 50.2085 215.394 50.9745 214.234 51.578C213.096 52.1815 211.785 52.4833 210.299 52.4833C208.628 52.4833 207.096 52.0655 205.703 51.2298C204.334 50.3709 203.243 49.1871 202.43 47.6783C201.641 46.1463 201.246 44.4169 201.246 42.4903ZM216.95 42.5599C216.95 41.2368 216.671 40.0878 216.114 39.1129C215.58 38.1379 214.872 37.3951 213.99 36.8845C213.108 36.3738 212.156 36.1184 211.135 36.1184C210.113 36.1184 209.162 36.3738 208.28 36.8845C207.398 37.3719 206.678 38.1031 206.121 39.078C205.587 40.0298 205.32 41.1672 205.32 42.4903C205.32 43.8134 205.587 44.974 206.121 45.9722C206.678 46.9703 207.398 47.7363 208.28 48.2702C209.185 48.7809 210.137 49.0362 211.135 49.0362C212.156 49.0362 213.108 48.7809 213.99 48.2702C214.872 47.7595 215.58 47.0167 216.114 46.0418C216.671 45.0437 216.95 43.883 216.95 42.5599ZM228.187 30.443C227.467 30.443 226.864 30.1992 226.376 29.7118C225.889 29.2243 225.645 28.6208 225.645 27.9012C225.645 27.1816 225.889 26.5781 226.376 26.0906C226.864 25.6031 227.467 25.3594 228.187 25.3594C228.883 25.3594 229.475 25.6031 229.963 26.0906C230.45 26.5781 230.694 27.1816 230.694 27.9012C230.694 28.6208 230.45 29.2243 229.963 29.7118C229.475 30.1992 228.883 30.443 228.187 30.443ZM230.137 32.9847V52.1699H226.167V32.9847H230.137ZM243.67 52.4833C241.859 52.4833 240.223 52.0771 238.76 51.2646C237.298 50.429 236.149 49.2684 235.313 47.7827C234.478 46.2739 234.06 44.533 234.06 42.5599C234.06 40.6101 234.489 38.8807 235.348 37.3719C236.207 35.8631 237.379 34.7025 238.865 33.89C240.35 33.0776 242.01 32.6714 243.844 32.6714C245.678 32.6714 247.337 33.0776 248.823 33.89C250.309 34.7025 251.481 35.8631 252.34 37.3719C253.199 38.8807 253.628 40.6101 253.628 42.5599C253.628 44.5098 253.187 46.2391 252.305 47.7479C251.423 49.2567 250.216 50.429 248.684 51.2646C247.175 52.0771 245.504 52.4833 243.67 52.4833ZM243.67 49.0362C244.691 49.0362 245.643 48.7925 246.525 48.305C247.43 47.8176 248.161 47.0864 248.718 46.1114C249.276 45.1365 249.554 43.9527 249.554 42.5599C249.554 41.1672 249.287 39.9949 248.753 39.0432C248.219 38.0683 247.511 37.3371 246.629 36.8496C245.747 36.3622 244.796 36.1184 243.774 36.1184C242.753 36.1184 241.801 36.3622 240.919 36.8496C240.06 37.3371 239.375 38.0683 238.865 39.0432C238.354 39.9949 238.099 41.1672 238.099 42.5599C238.099 44.6258 238.621 46.2275 239.666 47.3649C240.733 48.4791 242.068 49.0362 243.67 49.0362Z" fill="#222222"/>
</svg>
