<svg width="142" height="76" viewBox="0 0 142 76" fill="none" xmlns="http://www.w3.org/2000/svg">
<path d="M21.0398 20.5689C22.1083 21.8897 22.6819 23.5383 22.6623 25.2328C22.6923 26.7093 22.2842 28.1619 21.4889 29.4095C20.7066 30.6119 19.5755 31.5522 18.0958 32.2304C16.6161 32.9085 14.8662 33.2504 12.8462 33.2561H0V3.64355H12.2921C14.311 3.64355 16.0534 3.96839 17.5194 4.61805C18.9854 5.26771 20.0946 6.17268 20.8471 7.33295C21.606 8.5081 21.9997 9.87927 21.9793 11.2754C21.9793 13.001 21.517 14.4428 20.5924 15.6007C19.6433 16.7762 18.3548 17.6348 16.9 18.0609C18.547 18.3531 20.024 19.248 21.0398 20.5689ZM5.97573 15.8623H11.437C12.8605 15.8623 13.956 15.5443 14.7234 14.9083C15.4908 14.2724 15.8751 13.3606 15.8762 12.1729C15.8762 10.9864 15.4919 10.0678 14.7234 9.417C13.9548 8.7662 12.8594 8.43737 11.437 8.43053H5.97573V15.8623ZM15.3789 27.3921C16.1888 26.7083 16.5943 25.7474 16.5954 24.5097C16.5954 23.2377 16.1687 22.241 15.3153 21.5195C14.4619 20.798 13.3096 20.4379 11.8585 20.439H5.97573V28.411H11.9979C13.449 28.411 14.576 28.0714 15.3789 27.3921Z" fill="#001D3D"/>
<path d="M49.7599 9.75195V33.2441H43.7377V30.2761C42.9496 31.3093 41.9155 32.1318 40.7283 32.6696C39.4661 33.255 38.088 33.5523 36.6952 33.5398C34.8461 33.5398 33.2103 33.1512 31.7879 32.3739C30.3563 31.5851 29.1923 30.3922 28.443 28.946C27.6332 27.4324 27.2277 25.6299 27.2266 23.5385V9.75195H33.2023V22.6854C33.2023 24.55 33.6715 25.985 34.6098 26.9902C35.5481 27.9955 36.8282 28.497 38.4502 28.4947C40.0997 28.4947 41.3942 27.9932 42.3336 26.9902C43.2731 25.9872 43.7428 24.5523 43.7428 22.6854V9.75195H49.7599Z" fill="#001D3D"/>
<path d="M61.6244 1.86523V33.2439H55.6504V1.86523H61.6244Z" fill="#001D3D"/>
<path d="M73.4877 1.86523V33.2439H67.5137V1.86523H73.4877Z" fill="#001D3D"/>
<path d="M79.783 5.9576C79.4521 5.63387 79.1893 5.24799 79.01 4.8224C78.8306 4.39682 78.7383 3.94002 78.7383 3.47863C78.7383 3.01724 78.8306 2.56046 79.01 2.13487C79.1893 1.70928 79.4521 1.32339 79.783 0.999661C80.5043 0.357822 81.4386 0.00292969 82.4069 0.00292969C83.3752 0.00292969 84.3095 0.357822 85.0309 0.999661C85.3617 1.32339 85.6245 1.70928 85.8039 2.13487C85.9832 2.56046 86.0756 3.01724 86.0756 3.47863C86.0756 3.94002 85.9832 4.39682 85.8039 4.8224C85.6245 5.24799 85.3617 5.63387 85.0309 5.9576C84.309 6.59839 83.3749 6.95259 82.4069 6.95259C81.4389 6.95259 80.5048 6.59839 79.783 5.9576ZM85.3509 9.75129V33.2434H79.3855V9.75129H85.3509Z" fill="#001D3D"/>
<path d="M95.5939 32.1203C93.7876 31.1308 92.3003 29.653 91.3044 27.8582C90.272 26.0209 89.7559 23.901 89.7559 21.4984C89.7559 19.0958 90.2893 16.9752 91.356 15.1368C92.3839 13.3379 93.8993 11.8618 95.7299 10.8764C97.6406 9.88684 99.7634 9.37012 101.918 9.37012C104.073 9.37012 106.196 9.88684 108.106 10.8764C109.937 11.8622 111.453 13.3382 112.482 15.1368C113.549 16.9752 114.082 19.0958 114.082 21.4984C114.082 23.901 113.534 26.0209 112.439 27.8582C111.382 29.6581 109.846 31.133 108 32.1203C106.077 33.138 103.927 33.6556 101.749 33.6248C99.4671 33.6248 97.4155 33.1233 95.5939 32.1203ZM104.791 27.6753C105.767 27.1287 106.56 26.3104 107.074 25.3211C107.647 24.2748 107.934 23.0029 107.934 21.5052C107.934 19.2724 107.344 17.5548 106.164 16.3524C105.607 15.77 104.934 15.309 104.188 14.9988C103.442 14.6886 102.64 14.5359 101.831 14.5504C101.029 14.5327 100.232 14.6841 99.4929 14.9947C98.7538 15.3053 98.0894 15.768 97.5434 16.3524C96.3906 17.5548 95.817 19.2724 95.8228 21.5052C95.8285 23.738 96.3906 25.455 97.509 26.6563C98.632 27.8576 100.047 28.4583 101.755 28.4583C102.819 28.4574 103.864 28.1855 104.791 27.6685V27.6753Z" fill="#001D3D"/>
<path d="M138.403 12.0631C140.137 13.8308 141.005 16.2973 141.006 19.4624V33.2437H135.03V20.2676C135.03 18.4018 134.561 16.9674 133.623 15.9645C132.684 14.9615 131.404 14.4594 129.782 14.4583C128.131 14.4583 126.829 14.9603 125.876 15.9645C124.924 16.9686 124.448 18.403 124.447 20.2676V33.2437H118.473V9.75163H124.447V12.6785C125.258 11.6511 126.305 10.8306 127.499 10.285C128.775 9.69833 130.167 9.40165 131.573 9.41655C134.387 9.41427 136.664 10.2964 138.403 12.0631Z" fill="#001D3D"/>
<path d="M18.6722 46.8425C20.9829 47.9972 22.8985 49.8047 24.1782 52.0381C25.4721 54.2845 26.1196 56.8923 26.1208 59.8614C26.1219 62.8304 25.4744 65.4239 24.1782 67.6419C22.888 69.8564 20.9741 71.6475 18.6722 72.7948C16.2955 74.0097 13.5425 74.6172 10.4132 74.6172H0V45.0166H10.4132C13.5425 45.0166 16.2955 45.6252 18.6722 46.8425ZM17.4557 67.0264C19.1683 65.3305 20.0246 62.9421 20.0246 59.8614C20.0246 56.7806 19.1712 54.3706 17.4643 52.6313C15.7575 50.8921 13.3389 50.023 10.2085 50.0241H5.97573V69.5704H10.1999C13.3291 69.5704 15.7477 68.7224 17.4557 67.0264Z" fill="#001D3D"/>
<path d="M76.633 56.4707C77.5862 54.6346 78.8807 53.2213 80.5165 52.2308C82.1692 51.2375 84.0687 50.7235 86.0001 50.7469C87.7643 50.7469 89.3077 51.1002 90.6303 51.8068C91.8776 52.4505 92.9641 53.3636 93.81 54.479V51.1281H99.8322V74.6202H93.81V71.1855C92.9859 72.3372 91.8954 73.2754 90.6303 73.921C89.2802 74.6413 87.7224 75.0015 85.9571 75.0015C84.0338 75.021 82.1453 74.491 80.5165 73.4747C78.8479 72.4215 77.5042 70.9313 76.633 69.1682C75.6798 67.3172 75.2032 65.1898 75.2032 62.7861C75.1974 60.412 75.6741 58.3069 76.633 56.4707ZM92.9566 59.1634C92.4274 58.1736 91.6291 57.3514 90.6527 56.7904C89.7064 56.2443 88.6308 55.9587 87.5366 55.963C86.4382 55.9518 85.3579 56.2405 84.4133 56.7976C83.4688 57.3548 82.6964 58.1589 82.1803 59.1224C81.5964 60.1481 81.3051 61.3705 81.3062 62.7895C81.3074 64.2085 81.5987 65.4452 82.1803 66.4994C82.7122 67.5052 83.5091 68.3485 84.4859 68.9391C85.4046 69.4968 86.46 69.7925 87.5366 69.7939C88.6307 69.7973 89.7061 69.5117 90.6527 68.9664C91.6294 68.405 92.4277 67.5821 92.9566 66.5917C93.5301 65.566 93.8169 64.3293 93.8169 62.8818C93.8169 61.4344 93.5273 60.1937 92.948 59.16L92.9566 59.1634Z" fill="#001D3D"/>
<path d="M111.642 43.2383V74.6169H105.666V43.2383H111.642Z" fill="#001D3D"/>
<path d="M121.37 73.9603C119.932 73.3442 118.676 72.3732 117.721 71.1394C116.843 70.0017 116.33 68.6281 116.248 67.1969H122.27C122.326 67.6436 122.474 68.0739 122.706 68.4606C122.937 68.8473 123.247 69.182 123.616 69.4434C124.397 70.0361 125.372 70.333 126.541 70.3341C127.679 70.3341 128.568 70.1062 129.208 69.6503C129.848 69.1944 130.168 68.6148 130.168 67.9116C130.168 67.1491 129.777 66.5792 128.994 66.2019C128.212 65.8247 126.968 65.4075 125.261 64.9505C123.787 64.6162 122.339 64.1768 120.928 63.6358C119.807 63.1859 118.811 62.4733 118.027 61.5586C117.215 60.6251 116.81 59.3668 116.811 57.7837C116.803 56.5083 117.198 55.2627 117.941 54.2225C118.695 53.1489 119.776 52.3009 121.185 51.6786C122.593 51.0563 124.251 50.7451 126.157 50.7451C128.972 50.7451 131.219 51.4449 132.899 52.8446C134.578 54.2442 135.502 56.131 135.672 58.5052H129.955C129.927 58.0736 129.808 57.6526 129.606 57.2696C129.404 56.8867 129.123 56.5504 128.781 56.2826C128.082 55.731 127.15 55.4552 125.985 55.4552C124.905 55.4552 124.072 55.6529 123.488 56.0484C123.211 56.2257 122.985 56.4714 122.832 56.7614C122.679 57.0514 122.604 57.376 122.614 57.7033C122.614 58.4943 123.012 59.095 123.808 59.5053C124.605 59.9156 125.842 60.3327 127.522 60.7567C128.959 61.096 130.371 61.5348 131.747 62.0697C132.86 62.5279 133.846 63.2463 134.619 64.164C135.43 65.1112 135.849 66.3649 135.877 67.9252C135.894 69.2284 135.498 70.504 134.746 71.5719C133.993 72.6467 132.912 73.4878 131.503 74.0953C130.094 74.7028 128.451 75.0066 126.574 75.0066C124.642 75.0009 122.907 74.6521 121.37 73.9603Z" fill="#001D3D"/>
<path d="M70.9558 53.3988H30.8652L33.7163 45.3584H68.4471L70.9558 53.3988Z" fill="#FFB642"/>
<path d="M70.9558 63.9984H30.8652L33.7163 55.958H68.4471L70.9558 63.9984Z" fill="#FFB642"/>
<path d="M70.9558 74.598H30.8652L33.7163 66.5576H68.4471L70.9558 74.598Z" fill="#FFB642"/>
</svg>
