<svg width="50" height="50" viewBox="0 0 50 50" fill="none" xmlns="http://www.w3.org/2000/svg">
<path d="M2.18557e-06 25C3.39263e-06 11.1929 11.1929 -3.39263e-06 25 -2.18557e-06C38.8071 -9.78513e-07 50 11.1929 50 25C50 38.8071 38.8071 50 25 50C11.1929 50 9.78513e-07 38.8071 2.18557e-06 25Z" fill="#8E56F6"/>
<path d="M28.0378 40C25.9139 40 24.308 39.5267 23.2202 38.5802C22.1323 37.6337 21.5896 36.2361 21.5922 34.3875V26.6051H18V22.0937H21.5922V18.1692L27.0315 17V22.0937H32V26.6051H27.0315V33.3203C27.0315 34.0998 27.2051 34.6509 27.5522 34.9736C27.8993 35.2963 28.509 35.4579 29.3813 35.4585C29.7913 35.4611 30.201 35.4332 30.6068 35.375C31.0213 35.3086 31.4308 35.2138 31.8321 35.0911V39.4672C31.2178 39.6493 30.589 39.7787 29.9524 39.8538C29.318 39.9429 28.6785 39.9917 28.0378 40Z" fill="white"/>
<path d="M22 15V9.2618L27 8V13.6648" fill="white"/>
</svg>
