<svg width="172" height="67" viewBox="0 0 172 67" fill="none" xmlns="http://www.w3.org/2000/svg">
<path d="M1.99208 55.2046V66.5826H0V55.2046H1.99208ZM4.51423 61.7405H1.38558V60.059H4.40575C4.95554 60.059 5.37466 59.921 5.66558 59.6473C5.95651 59.3737 6.10197 58.9816 6.10197 58.4713C6.10197 57.9831 5.95158 57.6109 5.65079 57.352C5.35001 57.0931 4.91363 56.9625 4.34411 56.9625H1.32394V55.2046H4.51423C5.64587 55.2046 6.53342 55.4807 7.17443 56.0305C7.81792 56.5803 8.13843 57.3323 8.13843 58.2864C8.13843 58.9718 7.97324 59.5438 7.64041 60.0073C7.30757 60.4683 6.81448 60.8036 6.16114 61.0107V60.7937C6.86626 60.9589 7.40126 61.2721 7.76368 61.7282C8.1261 62.1843 8.30855 62.776 8.30855 63.5033C8.30855 64.1468 8.16308 64.699 7.87216 65.1601C7.58124 65.6211 7.15964 65.9736 6.60492 66.2177C6.05019 66.4618 5.38206 66.5826 4.60545 66.5826H1.32147V64.8248H4.51176C5.08128 64.8248 5.51766 64.6892 5.81844 64.4204C6.11923 64.1517 6.26962 63.7622 6.26962 63.2543C6.26962 62.7784 6.11677 62.4062 5.81105 62.1424C5.5078 61.8736 5.07388 61.7405 4.51423 61.7405Z" fill="#222222"/>
<path d="M11.6094 62.4259V55.2046H13.6014V62.3026C13.6014 63.1236 13.8184 63.7498 14.2548 64.1862C14.6912 64.6226 15.3075 64.8395 16.1063 64.8395C16.915 64.8395 17.5388 64.6201 17.9751 64.1788C18.4115 63.7375 18.6285 63.1137 18.6285 62.3026V55.2046H20.6206V62.4259C20.6206 63.3085 20.4357 64.0728 20.0683 64.7212C19.701 65.3696 19.1783 65.8726 18.5052 66.2301C17.8297 66.5876 17.0309 66.7675 16.1088 66.7675C15.1966 66.7675 14.4027 66.59 13.7272 66.2375C13.0517 65.8849 12.5315 65.3819 12.1641 64.7286C11.7943 64.0753 11.6094 63.3085 11.6094 62.4259Z" fill="#222222"/>
<path d="M26.6132 55.2046V66.5826H24.6211V55.2046H26.6132ZM24.9613 66.5802V64.7434H31.3592V66.5802H24.9613Z" fill="#222222"/>
<path d="M36.5428 55.2046V66.5826H34.5508V55.2046H36.5428ZM34.8935 66.5802V64.7434H41.2913V66.5802H34.8935Z" fill="#222222"/>
<path d="M46.4745 55.2046V66.5826H44.4824V55.2046H46.4745Z" fill="#222222"/>
<path d="M60.917 60.885C60.917 62.0364 60.6828 63.0571 60.2168 63.9422C59.7509 64.8297 59.1024 65.5225 58.2716 66.0205C57.4407 66.5186 56.4817 66.7676 55.392 66.7676C54.3121 66.7676 53.358 66.5186 52.5271 66.0205C51.6963 65.5225 51.0503 64.8322 50.5893 63.9496C50.1282 63.0669 49.8965 62.0512 49.8965 60.8998C49.8965 59.7386 50.1307 58.713 50.5967 57.8254C51.0626 56.9378 51.7086 56.2451 52.5345 55.747C53.3604 55.249 54.317 55 55.4067 55C56.4965 55 57.4531 55.249 58.279 55.747C59.1049 56.2451 59.7509 56.9354 60.2168 57.818C60.6828 58.7006 60.917 59.7238 60.917 60.885ZM58.8313 60.885C58.8313 60.0764 58.6907 59.3762 58.4121 58.7845C58.1335 58.1928 57.7366 57.7342 57.2287 57.4063C56.7208 57.0784 56.1143 56.9157 55.4067 56.9157C54.7115 56.9157 54.1075 57.0784 53.5947 57.4063C53.0818 57.7342 52.6849 58.1928 52.4038 58.7845C52.1228 59.3762 51.9847 60.0764 51.9847 60.885C51.9847 61.6937 52.1252 62.3963 52.4038 62.993C52.6824 63.5896 53.0818 64.0482 53.5947 64.3712C54.1075 64.6917 54.7115 64.8544 55.4067 64.8544C56.1119 64.8544 56.7184 64.6917 57.2287 64.3638C57.7366 64.0359 58.1311 63.5748 58.4121 62.9782C58.6907 62.3816 58.8313 61.6838 58.8313 60.885Z" fill="#222222"/>
<path d="M66.2999 66.5802H64.3398V55.2021H66.3171L72.2317 64.1517H71.6548V55.2021H73.6149V66.5802H71.6548L65.7254 57.6454H66.3023V66.5802H66.2999Z" fill="#222222"/>
<path d="M85.96 66.5802H84V55.2021H85.9773L91.8919 64.1517H91.315V55.2021H93.275V66.5802H91.315L85.3856 57.6454H85.9625V66.5802H85.96Z" fill="#222222"/>
<path d="M104.419 66.5802H97.3535V55.2021H104.419V57.0389H98.6454L99.3456 56.4004V59.9654H103.889V61.7233H99.3456V65.3795L98.6454 64.741H104.419V66.5802Z" fill="#222222"/>
<path d="M107.129 57.0413V55.2046H115.783V57.0413H107.129ZM112.452 56.1538V66.5826H110.46V56.1538H112.452Z" fill="#222222"/>
<path d="M121.228 66.5802L117.836 55.2021H119.907L121.712 61.2104C121.805 61.5211 121.894 61.8515 121.975 62.1991C122.059 62.5467 122.141 62.9683 122.224 63.4663C122.318 62.9584 122.409 62.5344 122.496 62.1991C122.584 61.8613 122.676 61.5334 122.769 61.2104L124.574 55.2021H126.768L128.526 61.2104C128.62 61.5309 128.711 61.8687 128.797 62.2213C128.884 62.5738 128.977 62.9905 129.071 63.4663C129.175 62.9363 129.271 62.5048 129.359 62.167C129.448 61.8293 129.532 61.5211 129.616 61.24L131.453 55.2021H133.477L130.02 66.5802H128.09L125.661 58.3012L123.171 66.5802H121.228Z" fill="#222222"/>
<path d="M146.893 60.885C146.893 62.0364 146.659 63.0571 146.193 63.9422C145.727 64.8297 145.076 65.5225 144.248 66.0205C143.417 66.5186 142.458 66.7676 141.368 66.7676C140.288 66.7676 139.334 66.5186 138.503 66.0205C137.673 65.5225 137.027 64.8322 136.566 63.9496C136.105 63.0669 135.873 62.0512 135.873 60.8998C135.873 59.7386 136.107 58.713 136.573 57.8254C137.039 56.9378 137.685 56.2451 138.511 55.747C139.337 55.249 140.293 55 141.383 55C142.473 55 143.429 55.249 144.255 55.747C145.081 56.2451 145.725 56.9354 146.193 57.818C146.659 58.7006 146.893 59.7238 146.893 60.885ZM144.808 60.885C144.808 60.0764 144.667 59.3762 144.388 58.7845C144.11 58.1928 143.713 57.7342 143.205 57.4063C142.697 57.0784 142.091 56.9157 141.383 56.9157C140.688 56.9157 140.084 57.0784 139.571 57.4063C139.058 57.7342 138.661 58.1928 138.38 58.7845C138.099 59.3762 137.961 60.0764 137.961 60.885C137.961 61.6937 138.102 62.3963 138.38 62.993C138.659 63.5896 139.058 64.0482 139.571 64.3712C140.084 64.6917 140.69 64.8544 141.383 64.8544C142.088 64.8544 142.695 64.6917 143.205 64.3638C143.713 64.0359 144.107 63.5748 144.388 62.9782C144.667 62.3816 144.808 61.6838 144.808 60.885Z" fill="#222222"/>
<path d="M152.308 66.5802H150.316V55.2021H154.658C155.945 55.2021 156.948 55.5128 157.668 56.1366C158.388 56.7579 158.751 57.6306 158.751 58.7524C158.751 59.5093 158.576 60.1552 158.228 60.6902C157.88 61.2252 157.37 61.632 156.695 61.9131L158.857 66.5826H156.677L154.747 62.3347H152.304V66.5802H152.308ZM152.308 56.9773V60.5719H154.658C155.292 60.5719 155.785 60.4116 156.137 60.0887C156.49 59.7682 156.667 59.3219 156.667 58.7499C156.667 58.1804 156.49 57.7416 156.137 57.4358C155.785 57.1301 155.292 56.9773 154.658 56.9773H152.308Z" fill="#222222"/>
<path d="M164.293 55.2046V66.5826H162.301V55.2046H164.293ZM171.25 55.2046L163.827 64.7607V61.7873L168.901 55.2046H171.25ZM166.1 61.6L167.377 59.8889L171.3 66.5826H168.997L166.1 61.6Z" fill="#222222"/>
<path d="M120.197 26.198C119.957 26.2916 119.71 26.4025 119.453 26.4818C119.294 26.5309 119.111 26.5807 118.957 26.5467C118.407 26.4305 117.864 26.2843 117.329 26.1089C117.135 26.0424 116.903 25.8628 116.84 25.6831C116.705 25.2875 116.344 25.2815 116.071 25.1901C115.739 25.0784 115.361 25.098 114.97 25.0572C114.97 25.2928 114.955 25.5532 114.97 25.8122C114.985 26.0711 114.824 26.2365 114.627 26.1957C114.411 26.1504 114.225 25.9609 114.037 25.8182C114.023 25.8077 114.09 25.6227 114.134 25.6159C114.34 25.5857 114.532 25.551 114.449 25.283C114.392 25.1003 114.285 24.9334 114.179 24.7168C114.475 24.4208 114.408 24.1325 113.913 23.9369C113.786 23.8787 113.661 23.8135 113.541 23.7414C113.562 23.675 113.562 23.6455 113.577 23.6297C113.669 23.5285 113.765 23.4304 113.859 23.3315C113.73 23.2665 113.605 23.191 113.471 23.139C113.28 23.0617 113.084 22.9977 112.885 22.9472C112.734 22.9219 112.581 22.9075 112.428 22.9042C112.358 23.5934 112.859 23.8946 113.258 24.254L113.176 24.3476L112.294 24.0509C112.332 24.2872 112.332 24.4473 112.384 24.5869C112.572 25.0829 112.421 25.5253 112.123 25.9028C112.028 26.0228 111.747 26.0304 111.552 26.0319C111.168 26.0319 110.768 26.0545 110.402 25.9564C109.977 25.8469 109.578 25.6295 109.175 25.4423C109.015 25.3668 108.885 25.2271 108.724 25.1524C108.411 25.0082 108.219 25.089 108.18 25.4642C108.172 25.5442 108.04 25.6521 107.952 25.671C107.876 25.6876 107.699 25.5955 107.7 25.5487C107.7 25.4506 107.776 25.3456 107.835 25.255C107.958 25.0776 108.383 25.1154 108.215 24.7326C108.074 24.4012 107.777 24.596 107.551 24.5545C107.407 24.5273 107.252 24.5492 107.019 24.5492C107.125 25.0776 107.231 25.554 107.315 26.0349C107.358 26.2307 107.364 26.4326 107.332 26.6305C107.266 26.9423 106.972 27.048 106.648 26.9521C106.482 26.8953 106.305 26.8836 106.133 26.9182C105.86 26.9937 105.769 26.888 105.714 26.6509C105.626 26.2652 105.538 25.8771 105.415 25.5012C105.359 25.3268 105.224 25.1773 105.124 25.0165L104.792 25.332C104.747 25.3736 104.699 25.4075 104.652 25.4513L104.529 25.4325C104.55 25.206 104.544 24.9795 104.599 24.7613C104.647 24.5711 104.789 24.4057 104.842 24.2162C104.888 24.0524 104.932 23.7557 104.865 23.7195C104.704 23.6304 104.477 23.6508 104.276 23.644C104.194 23.644 104.112 23.684 103.979 23.6742C104.384 23.0431 104.239 22.4452 103.997 21.8427C103.962 21.7559 104.006 21.6389 103.979 21.5453C103.953 21.4517 103.86 21.3188 103.837 21.3263C103.404 21.4675 103.163 21.038 102.799 20.9964C102.658 20.9761 102.515 20.9761 102.375 20.9964C101.848 21.0893 101.328 21.2229 100.799 21.2863C100.526 21.3173 100.37 21.3905 100.258 21.6449C100.012 22.2028 99.6819 22.7018 99.1168 22.9283C98.9912 22.0979 98.8262 21.2546 98.7554 20.4061C98.7235 20.0248 98.8771 19.627 98.9524 19.2382C98.976 19.1121 99.0186 18.9906 99.0445 18.8939C98.7927 18.8343 98.5188 18.8479 98.4093 18.7211C98.2998 18.5942 98.4374 18.29 98.3431 18.139C98.0959 17.7404 97.8433 17.1757 97.4759 17.0662C97.0834 16.95 96.665 16.8473 96.2657 16.7061C95.8374 16.5551 95.4806 16.337 95.2912 15.8878C95.244 15.7768 95.0295 15.7277 94.8842 15.6673C94.7252 15.6016 94.513 15.6001 94.4012 15.4922C94.0444 15.1487 93.5728 14.8762 93.5439 14.2843C93.5439 14.2322 93.2655 14.1386 93.1392 14.1665C93.0487 14.1861 92.911 14.4232 92.9406 14.4836C93.1971 14.9668 93.4782 15.4367 93.7827 15.8915C93.9508 16.1392 94.2293 16.1762 94.532 16.1535C94.6953 16.1512 94.8532 16.2118 94.9725 16.3226C95.2372 16.5906 95.4631 16.8956 95.7446 17.2331C95.1908 17.5441 94.7557 17.8249 94.2833 18.0386C94.068 18.136 93.6991 18.2145 93.5621 18.1035C93.2168 17.8242 92.9733 18.059 92.6706 18.1096C92.4515 18.1465 92.2035 18.0122 91.9479 17.9495C91.9221 18.0695 91.9015 18.1616 91.8833 18.2469H91.3949C91.5006 17.9374 91.3744 17.8566 91.1013 17.8C90.9628 17.7713 90.7734 17.5275 90.7734 17.3818C90.7734 16.8005 90.5962 16.3173 90.1755 15.9142C90.1248 15.846 90.0904 15.7673 90.0751 15.6839C89.888 15.0958 89.7077 14.5047 89.516 13.9174C89.4064 13.5822 89.1463 13.5505 88.7895 13.6335C88.931 14.0706 89.0694 14.504 89.2125 14.9358C89.4049 15.5178 89.5753 16.109 89.8035 16.6767C89.9792 17.1145 90.2287 17.5237 90.4455 17.9457C90.4745 18.0016 90.5315 18.0575 90.5292 18.1111C90.5072 18.715 90.9347 18.7346 91.3728 18.7905C91.6946 18.8283 92.005 18.9536 92.326 19.0042C92.6828 19.0615 92.679 19.3205 92.5443 19.4956C92.0719 20.1101 91.6216 20.7979 90.8548 21.0629C90.0751 21.3316 89.4893 21.8178 88.9782 22.4097C88.6374 22.8045 88.7347 23.2975 88.8427 23.7452C89.0512 24.6118 88.6792 25.4136 87.8637 25.7495C87.4294 25.9284 87.2552 26.1693 87.2742 26.6517C87.2909 27.0359 87.2323 27.3372 86.8178 27.4934C86.6976 27.538 86.5827 27.6958 86.5394 27.8264C86.2609 28.6719 85.2302 29.4404 84.3432 29.4404H84.3052C83.2516 29.4404 83.2706 29.4404 83.1504 28.4069C83.1193 28.1374 82.9146 27.892 82.815 27.6256C82.7153 27.3591 82.5754 27.0646 82.5716 26.7823C82.57 26.2802 82.4444 25.7861 82.2057 25.3434C81.8512 24.6798 81.7781 24.0071 82.3373 23.3851C82.4198 23.2921 82.4674 23.1737 82.4719 23.0499C82.4483 22.2625 82.2939 21.5053 81.7561 20.8915C81.521 20.6243 81.4412 20.3736 81.5743 20.0399C81.6479 19.8265 81.7053 19.608 81.7462 19.3862C81.8223 19.0661 81.588 18.8252 81.2761 18.9415C80.9109 19.0774 80.7124 18.937 80.5154 18.6569C80.221 18.2326 80.0856 18.1926 79.6383 18.4538C79.191 18.715 78.7095 18.7211 78.2135 18.7399C77.929 18.7505 77.6521 18.9007 77.3653 18.9581C77.1972 18.9913 76.9644 19.0336 76.8526 18.9513C76.4525 18.6554 76.0919 18.3043 75.7116 17.9789C75.5518 17.8415 75.3997 17.6815 75.2141 17.5932C74.7447 17.3667 74.5812 16.9605 74.5081 16.5038C74.4876 16.3747 74.6116 16.229 74.642 16.0856C74.6976 15.8228 74.8299 15.5269 74.7599 15.2959C74.4306 14.2073 74.9303 13.4486 75.7108 12.8091C76.028 12.5487 76.2684 12.295 76.3338 11.8723C76.3954 11.4736 77.1485 10.9497 77.576 10.8735C78.1549 10.7708 78.7224 10.6055 79.296 10.4688C79.5729 10.4024 79.849 10.3027 80.1327 10.2861C80.6652 10.2544 81.1977 10.2703 81.7302 10.2695C82.1501 10.2695 82.3738 10.5134 82.2787 10.9135C82.2201 11.1626 82.3198 11.3076 82.5115 11.4087C83.0226 11.679 83.53 11.9606 84.061 12.1886C84.2118 12.2583 84.3808 12.2796 84.5444 12.2496C84.708 12.2195 84.8581 12.1396 84.9738 12.021C85.2165 11.7817 85.4523 11.8028 85.7612 11.9311C86.1263 12.0821 86.531 12.1425 86.9197 12.2399C86.9941 12.2509 87.0678 12.2663 87.1403 12.286C87.5815 12.4551 88.0204 12.6325 88.4632 12.7993C88.5456 12.8302 88.6345 12.84 88.7218 12.828C89.0154 12.7797 89.7206 12.0293 89.7411 11.7303C89.7472 11.6337 89.6788 11.531 89.6445 11.4284L89.5844 11.5461C89.233 11.4646 88.8823 11.3823 88.5301 11.3023C88.4706 11.2813 88.4074 11.2728 88.3445 11.2774C87.7922 11.3936 87.4963 10.9278 87.0931 10.718C87.0125 10.6764 87.0247 10.425 87.0262 10.271C87.0262 9.74257 86.9501 9.6852 86.4557 9.84675C86.3826 9.86587 86.3114 9.89113 86.2427 9.92225C86.1522 9.96981 86.0403 10.0159 85.997 10.0951C85.9742 10.1359 86.073 10.2461 86.1271 10.3216C86.1811 10.3971 86.2434 10.465 86.3317 10.5738C86.1271 10.6621 85.9643 10.7565 85.7885 10.8002C85.7125 10.8191 85.5421 10.7497 85.5223 10.6862C85.1549 9.52892 84.2542 8.84721 83.2965 8.22288C83.1854 8.15116 82.9869 8.21156 82.8287 8.2108C82.8827 8.34669 82.8994 8.52259 82.9968 8.61092C83.365 8.94234 83.7575 9.24507 84.1523 9.56591L84.0131 9.75163C83.6609 9.57875 83.3094 9.4338 82.9892 9.23903C82.7394 9.08139 82.5095 8.89459 82.3045 8.68264C82.0763 8.45616 81.8299 8.4018 81.553 8.53844C81.2418 8.68943 80.9513 8.77625 80.5907 8.6532C80.3343 8.56487 80.0209 8.56034 79.9738 8.98235C79.9654 9.05105 79.8216 9.11673 79.7334 9.16278C79.5356 9.26394 79.3089 9.32358 79.137 9.45645C79.0236 9.54402 78.9849 9.72747 78.9514 9.8845C78.676 10.3148 78.2378 10.385 77.7594 10.3896C77.6574 10.3896 77.557 10.5564 77.4345 10.6659C77.2687 10.3956 77.0504 10.2544 76.6837 10.3556C76.5689 10.3873 76.3855 10.1721 76.2342 10.0702L76.3642 10.0287C76.3642 9.75616 76.4023 9.48061 76.3696 9.2126C76.3285 8.86911 76.4571 8.69094 76.8663 8.69094C77.3083 8.69094 77.7502 8.7219 78.1914 8.75209C78.4775 8.77097 78.6403 8.62526 78.7369 8.38519C78.927 7.91562 78.8274 7.72009 78.3261 7.56231C78.1906 7.52741 78.065 7.46235 77.9587 7.37206C78.3771 7.27845 78.7954 7.18635 79.2146 7.09047C79.3226 7.06556 79.4846 7.05952 79.5242 6.99007C79.8543 6.41178 80.6249 6.57108 81.0251 6.09395C81.1011 6.0011 81.3811 6.06376 81.5659 6.07131C81.7002 6.08246 81.8338 6.10111 81.966 6.12717C82.103 5.81085 81.413 5.67421 81.8291 5.35638C81.9592 5.25673 82.1478 5.23332 82.3289 5.16764C82.4004 5.89163 82.4232 5.82897 83.0691 5.98751C83.5863 6.11434 84.0488 6.07055 84.5448 5.9709C84.7205 5.93617 84.9252 6.04639 85.1199 6.09924C85.2492 6.13246 85.3778 6.17473 85.5276 6.21248C85.5778 6.03582 85.6037 5.89012 85.6592 5.75423C85.7863 5.4281 86.0335 5.33449 86.3606 5.46132C86.5082 5.51869 86.6649 5.54889 86.8976 5.6123C86.8558 5.41602 86.8277 5.28693 86.798 5.14726L88.5309 5.30429C88.5697 4.91097 88.3787 4.74337 88.0744 4.7245C87.5876 4.69354 87.0977 4.69732 86.6093 4.70336C86.2465 4.70864 86.1849 4.42932 86.1316 4.18773C86.1149 4.11224 86.2906 3.94993 86.4093 3.89859C86.6824 3.78233 86.9798 3.72194 87.2575 3.61247C87.3495 3.57624 87.4096 3.46148 87.4857 3.38146C87.4027 3.32258 87.3252 3.22443 87.2354 3.2116C86.8893 3.16177 86.5394 3.13611 86.1963 3.10742C86.1012 3.59284 85.9179 3.72345 85.4485 3.7461C85.2257 3.75269 85.0065 3.80405 84.8042 3.89709C84.5227 4.03675 84.5425 4.22548 84.8202 4.36892C84.9061 4.41346 84.9951 4.45423 85.0773 4.49424C84.8346 4.76979 84.6079 5.03477 84.3714 5.2907C84.3162 5.33973 84.2466 5.3699 84.1728 5.37676C83.848 5.41753 83.5194 5.43263 83.1976 5.48849C82.9877 5.52397 82.9397 5.44546 82.9154 5.26201C82.8963 5.10609 82.8475 4.95519 82.7716 4.81736C82.5677 4.46404 82.4902 4.50028 82.1631 4.72374C81.9767 4.84982 81.661 4.86567 81.4259 4.81886C81.2631 4.7864 81.1026 4.58257 81.0091 4.41799C80.9224 4.267 80.9254 4.06317 80.8737 3.808C81.3613 3.65249 81.8588 3.50603 82.3479 3.33541C83.012 3.10365 83.6304 2.78959 84.1333 2.28529C84.1738 2.2418 84.227 2.21197 84.2854 2.19998C85.4858 2.04899 86.693 1.87762 87.8926 2.12449C88.8717 2.3253 89.8248 2.61293 90.6859 3.16781C91.0427 3.39807 91.5037 3.46979 91.9114 3.62455C92.1956 3.73565 92.4689 3.87263 92.7276 4.03373C91.9129 4.18472 91.1766 3.90463 90.3695 3.58077C90.4958 3.94238 90.5558 4.20434 90.6829 4.42932C90.7217 4.49877 90.9423 4.46178 91.0769 4.48669C91.2488 4.5184 91.4504 4.51915 91.5813 4.61277C91.8642 4.81509 92.1434 4.80528 92.3519 4.52519C92.523 4.29871 93.2525 4.34325 93.3902 4.58332C93.4404 4.67014 93.5423 4.72902 93.6945 4.87095C93.7135 4.62937 93.7379 4.51915 93.728 4.4112C93.6884 3.95824 93.6991 3.94314 94.1372 4.06091C94.208 4.07978 94.2795 4.09714 94.373 4.12054L94.0862 4.62258C94.1867 4.66184 94.2285 4.69808 94.2544 4.68524C94.8994 4.45348 95.5095 4.8853 96.1508 4.78414C96.2679 4.76602 96.4178 4.84227 96.5311 4.91248C96.767 5.06347 96.9617 5.1835 97.2918 5.17671C97.6395 5.16916 97.9909 5.44546 98.3439 5.59041C98.4724 5.6425 98.639 5.7414 98.7387 5.70063C99.1845 5.51794 99.5488 5.70818 99.8965 5.92032C100.374 6.21173 100.821 6.55296 101.298 6.84663C101.409 6.91533 101.587 6.87758 101.734 6.88891C101.705 6.77075 101.664 6.65624 101.609 6.54767C101.498 6.39465 101.378 6.24772 101.251 6.10754C102.522 5.76405 102.589 5.78141 103.139 6.52729C103.069 6.77642 102.959 6.97346 102.97 7.1637C102.991 7.49587 102.833 7.61666 102.547 7.65064C102.446 7.66347 102.337 7.64158 102.242 7.67404C102.148 7.7065 102.104 7.78577 102.036 7.84541C102.097 7.89675 102.158 7.99187 102.22 7.9964C102.628 8.00989 103.037 8.00031 103.444 7.96771C103.656 7.94657 103.785 7.95563 103.924 8.14361C104.042 8.30366 104.242 8.41463 104.425 8.50976C104.501 8.54977 104.683 8.52938 104.724 8.47125C104.778 8.39576 104.768 8.24477 104.738 8.14361C104.639 7.8054 104.348 7.71934 104.043 7.67404C103.891 7.65139 103.739 7.65441 103.587 7.64611C103.648 6.97497 103.648 6.97497 103.937 6.88287C103.925 6.98334 103.927 7.08481 103.942 7.18484C103.974 7.30186 104.018 7.47927 104.099 7.50569C104.17 7.525 104.243 7.52994 104.316 7.52021C104.388 7.51048 104.458 7.48628 104.521 7.44907C104.816 7.24222 104.957 7.2558 105.193 7.54192C105.398 7.78954 105.636 8.00999 105.845 8.25383C105.932 8.35424 106.041 8.48485 106.041 8.60111C106.041 9.0201 106.269 9.04577 106.604 8.96574C106.794 8.38293 106.155 8.21835 105.982 7.83333C106.461 8.02962 106.916 8.31876 107.407 8.39803C108.641 8.59809 109.573 9.35831 110.572 9.9766C111.925 10.8131 113.235 11.7243 114.537 12.6378C115.104 13.0349 115.611 13.518 116.16 13.9755C116.062 14.051 116.046 14.0767 116.025 14.0835C115.873 14.134 115.721 14.1816 115.568 14.2299C115.662 14.3772 115.766 14.5181 115.879 14.6519C116.433 15.2307 116.993 15.8047 117.559 16.3739C117.746 16.5612 117.939 16.7627 118.168 16.8903C118.826 17.2476 119.393 17.7487 119.827 18.3557C119.903 18.4755 119.93 18.6197 119.903 18.7588C119.756 19.3288 119.896 19.5975 120.467 19.7976C120.583 19.8379 120.687 19.9043 120.772 19.9916C121.292 20.5525 121.79 21.1338 122.323 21.6827C122.558 21.9243 122.879 21.9295 123.212 21.7869C123.218 21.6472 123.225 21.5 123.232 21.352L123.324 21.2841L124.21 22.4187L124.134 22.4942L123.55 22.1168L123.41 22.2443C123.695 22.7237 123.943 23.2311 124.273 23.6787C124.639 24.1687 125.06 24.6133 125.231 25.2211C125.371 25.7329 125.631 26.2042 125.991 26.5958C126.707 27.3793 127.232 28.3146 127.528 29.3302C127.654 29.7552 128.055 30.0934 128.302 30.4898C128.606 30.9843 128.894 31.4931 129.17 32.0057C129.236 32.1295 129.199 32.3077 129.26 32.4353C129.329 32.5779 129.448 32.7961 129.558 32.8037C130.073 32.8384 130.129 33.2566 130.242 33.5858C130.478 34.2766 130.614 35.0043 130.887 35.6792C131.039 36.0499 131.052 36.3511 130.831 36.8192C130.666 36.5534 130.527 36.3307 130.388 36.1088L130.273 36.2032C130.259 36.3594 130.244 36.5149 130.224 36.7316C129.742 35.8861 129.138 35.1159 128.43 34.4457C128.113 34.1437 127.897 33.7292 127.653 33.354C127.409 32.9788 127.193 32.5553 126.933 32.1778C126.812 32.0056 126.652 31.8633 126.466 31.7619C126.255 31.6479 126.105 31.8132 125.915 31.9196C125.726 32.0261 125.378 32.1461 125.151 31.8087C125.063 31.6811 124.875 31.6109 124.72 31.5422C124.226 31.3263 123.726 31.1232 123.221 30.8695C123.601 30.8106 123.744 30.6113 123.808 30.2603C123.908 29.7228 124.295 29.6563 124.782 30.0497C125.325 30.4885 125.872 30.9241 126.421 31.3565C126.521 31.4195 126.626 31.4743 126.735 31.5203C126.69 30.9541 126.137 30.8944 125.967 30.5306C126.191 30.1871 126.065 29.8126 125.613 29.5386C125.2 29.2894 124.73 29.1105 124.369 28.804C124.052 28.5345 123.844 28.1351 123.601 27.7841C123.525 27.6754 123.516 27.5176 123.435 27.4172C122.908 26.7687 122.398 26.1036 121.822 25.5004C121.551 25.215 121.155 25.0391 120.8 24.8398C120.446 24.6405 120.071 24.4624 119.701 24.2917C119.519 24.2057 119.325 24.1453 119.136 24.0728L119.024 24.2004C119.112 24.3151 119.2 24.4269 119.287 24.5439C119.341 24.6156 119.448 24.6949 119.439 24.7606C119.397 25.0467 119.642 25.1214 119.777 25.2822C119.935 25.471 120.063 25.6846 120.206 25.8862C120.298 26.0138 120.39 26.1413 120.488 26.2636C120.572 26.3678 120.664 26.4645 120.802 26.6192H120.483C120.446 26.9129 120.411 27.2013 120.368 27.5463C119.996 27.276 119.848 27.5682 119.607 27.8181C119.513 27.1039 120.4 26.8887 120.197 26.198ZM95.7354 10.8629C95.457 10.1835 95.1733 9.9079 94.7252 10.0128C94.4158 10.0946 94.0869 10.0616 93.8002 9.91998C93.6534 9.85355 93.3727 9.90187 93.251 10.0083C93.1536 10.0944 93.1628 10.3548 93.1978 10.5224C93.2738 10.9067 93.5378 11.1777 93.8626 11.3891C93.9623 11.454 94.0573 11.5257 94.154 11.5937C94.1486 11.6269 94.1441 11.6594 94.1387 11.6926C94.0026 11.7175 93.8649 11.7371 93.731 11.7681C93.6101 11.7975 93.4206 11.8126 93.3894 11.8866C93.3415 12.0021 93.3453 12.2218 93.4244 12.2943C93.8299 12.6717 94.2612 13.022 94.853 13.0598C95.0462 13.0726 95.1512 13.0047 95.1314 12.8099C95.1033 12.5306 95.0607 12.252 95.0196 11.9432L95.2319 11.7681C94.9725 11.4518 94.7245 11.1641 94.5023 10.8621C94.4727 10.8214 94.586 10.6032 94.6149 10.607C94.7448 10.6285 94.8691 10.6752 94.9808 10.7444C95.2189 10.8833 95.4464 11.0433 95.7354 10.8629ZM87.507 10.0581C87.8112 10.0846 88.0752 10.1102 88.3437 10.1336C88.4685 10.1434 88.61 10.1865 88.7172 10.145C89.2056 9.95471 89.6118 10.0989 90.0173 10.3767C90.5307 10.7278 91.1119 10.8184 91.7859 10.7814C91.5691 10.0264 90.9141 9.74635 90.4661 9.29036L90.7787 9.13258C90.5072 8.92724 90.2774 8.90006 90.0272 9.082C89.484 9.47683 89.4353 9.47079 89.1478 8.90534C89.0101 8.63583 88.791 8.50221 88.5392 8.63885C88.1809 8.83212 87.8637 9.10012 87.5328 9.3417C87.5158 9.35946 87.5027 9.38047 87.4942 9.40344C87.4857 9.42642 87.482 9.45088 87.4834 9.47533C87.4857 9.68067 87.4986 9.8845 87.507 10.0581Z" fill="#2A63ED"/>
<path d="M32.2653 33.3589C32.1671 33.3898 31.9881 33.4117 31.9835 33.4532C31.9439 33.8032 31.6514 33.9155 31.4343 34.1116C31.3261 34.2097 31.3216 34.4186 31.269 34.5815L30.7777 34.5015C30.6916 34.9805 30.7777 35.5416 30 35.5529C30.0526 35.3334 30.0906 35.1208 30.1523 34.9164C30.9401 32.4694 31.9295 30.0906 33.1108 27.8042C33.5404 26.9632 34.2534 26.3621 34.734 25.5747C34.8163 25.4405 35.0021 25.3371 35.1621 25.2866C35.4812 25.1848 35.5658 24.957 35.6755 24.6749C35.7958 24.3657 36.0449 24.104 36.2475 23.8287C36.4501 23.5534 36.6527 23.3008 36.8615 23.036C37.0138 22.8422 37.1997 22.6672 37.3406 22.4643C37.627 22.0488 38.1739 21.904 38.3856 21.3821C38.4854 21.1339 38.8884 21.0223 39.0712 20.787C39.5175 20.2123 40.1985 19.9777 40.7469 19.5584C40.8711 19.4633 40.9427 19.3004 41.0387 19.1684L40.9526 19.093C40.5489 19.139 40.1444 19.1813 39.7415 19.2348C39.695 19.2409 39.647 19.3019 39.6165 19.3487C39.4231 19.6444 39.2684 19.9724 39.0346 20.2319C38.8008 20.4913 38.4854 20.6889 38.2059 20.9107L38.0497 20.7953C38.1259 20.606 38.1548 20.3835 38.2782 20.2326C38.608 19.8239 38.9767 19.4468 39.3271 19.0546C39.4513 18.9158 39.5556 18.7529 39.6927 18.6322C39.8607 18.4914 40.0406 18.3653 40.2305 18.2551C40.8558 17.878 41.6016 17.6947 42.067 17.0431C42.268 16.7603 42.5567 16.4126 43.0313 16.6773C43.0747 16.7014 43.2179 16.6381 43.243 16.583C43.2682 16.528 43.2126 16.4224 43.1615 16.3666C43.0767 16.2859 42.9853 16.2125 42.8881 16.1471L43.6048 15.5859C44.1929 16.1094 44.6187 15.5452 45.1519 15.3242C44.9058 15.9593 44.1487 16.1335 44.0329 16.7678L44.1091 16.8885C44.3216 16.7768 44.5501 16.6886 44.7436 16.5506C45.1511 16.2602 45.5411 15.9472 45.9357 15.638C46.0579 15.5486 46.1709 15.4476 46.2731 15.3363C46.4887 15.0867 46.4254 14.9079 46.0964 14.8008C46.1726 14.7382 46.2487 14.6756 46.3203 14.6168C46.3919 14.558 46.4567 14.5165 46.4772 14.5006C46.6684 14.6304 46.9145 14.8981 47.0264 14.8506C47.2549 14.7556 47.5787 14.4735 47.5596 14.3008C47.5253 14.0262 47.2435 13.7834 47.0371 13.4847C47.3098 13.1966 47.7462 13.2901 48.1545 13.3407C48.4135 13.3731 48.6199 13.4463 48.7845 13.1385C48.8393 13.036 49.1242 12.6702 49.2857 13.1476C49.2857 13.1544 49.5583 13.1234 49.6307 13.0443C49.7613 12.8863 49.8678 12.7102 49.9468 12.5216C49.9921 12.3948 50.0248 12.264 50.0443 12.1309L49.9346 12.0336C49.6414 12.1845 49.3405 12.318 49.0564 12.4861C48.6321 12.7305 48.4219 12.7343 48.1355 12.4326L49.1524 11.3986C49.2491 11.6158 49.3047 11.7365 49.355 11.8556C49.7236 11.8662 49.8661 11.7304 49.9064 11.4031C49.9254 11.258 49.9991 11.1254 50.1129 11.032C50.6788 10.6466 51.247 10.2605 51.8458 9.93012C52.1093 9.78456 52.4475 9.77249 52.7514 9.69707C53.4918 9.51078 54.2337 9.32751 54.9718 9.13292C55.1935 9.07485 55.3671 9.03865 55.5187 9.28377C55.7053 9.58545 55.9521 9.40067 56.1783 9.30338C56.2987 9.25133 56.4221 9.17968 56.5478 9.17289C56.8753 9.15404 57.2044 9.16611 57.538 9.16611C57.3658 9.4874 57.1213 9.72799 56.6849 9.72573C56.4824 9.72352 56.2807 9.75201 56.0869 9.8102C55.9955 9.83811 55.9346 9.96783 55.8584 10.0516C55.9453 10.1028 56.0268 10.1843 56.1197 10.2024C56.2804 10.2265 56.451 10.1911 56.6118 10.2175C56.7028 10.2426 56.7887 10.2834 56.8654 10.3381C56.6125 10.5146 56.3947 10.6715 56.1707 10.8186C56.0896 10.8763 55.9985 10.9188 55.9018 10.9438C55.3214 11.0697 54.7281 11.1504 54.1606 11.3209C53.7744 11.4355 53.421 11.6633 53.0569 11.8488C52.9274 11.9145 52.8093 11.9997 52.6859 12.0811L52.5831 11.9861C52.6867 11.87 52.7689 11.7003 52.8984 11.649C53.2473 11.5102 53.5306 11.3413 53.6708 10.9702C53.7218 10.8344 53.8902 10.7439 53.99 10.6232C54.0118 10.597 54.0274 10.5662 54.0356 10.5332C54.0438 10.5001 54.0443 10.4657 54.0372 10.4324C54.0149 10.4057 53.9862 10.3848 53.9538 10.3716C53.9214 10.3584 53.8862 10.3534 53.8513 10.357C53.6228 10.4158 53.36 10.4151 53.2679 10.7273C53.2252 10.8729 53.0698 10.986 52.9152 11.1753C52.9022 10.6036 52.7568 10.5237 52.3058 10.7137C52.1756 10.7688 52.024 10.7763 51.925 10.8578C51.7833 10.9626 51.6424 11.069 51.4984 11.1708C51.3956 11.2425 51.2699 11.2915 51.1884 11.3805C51.0903 11.5016 51.0025 11.6305 50.9256 11.7659L51.3826 11.8948C51.1168 12.5065 50.3079 12.591 49.9019 13.2411L51.9379 12.6076L51.9783 12.7162C51.8526 12.8467 51.7825 13.0179 51.4954 12.9236C51.3605 12.8783 51.1351 12.9862 50.9972 13.0872C50.8182 13.2185 50.6849 13.4116 50.563 13.5443L49.892 13.3437C49.8585 13.3738 49.8227 13.3919 49.8234 13.407C49.8623 13.8105 49.5187 13.935 49.31 14.1793C48.8675 14.6997 48.5323 15.3107 48.1896 15.914C48.121 16.0332 48.1652 16.2813 48.2535 16.3997C48.3069 16.4706 48.5506 16.3801 48.7014 16.405C49.1882 16.485 49.5241 16.1886 49.9202 15.997C50.5996 15.6674 51.3171 15.4147 52.0217 15.1379C52.0912 15.1228 52.1638 15.1319 52.2274 15.1636C52.4483 15.2564 52.6638 15.3589 52.8809 15.4577C53.2069 15.6086 53.4804 15.4698 53.6289 15.2141C53.7934 14.9313 53.5421 14.7344 53.3379 14.5655C53.254 14.5071 53.1648 14.4566 53.0713 14.4147C53.4933 14.3294 53.8719 14.0376 53.8498 13.8113C53.8132 13.4176 53.4522 13.484 53.1871 13.4018C53.181 13.2841 53.21 13.1574 53.165 13.0654C52.9365 12.5902 53.2816 12.4228 53.5984 12.2433C53.9709 12.0321 54.3449 11.8662 54.8019 11.8601C55.0845 11.8601 55.3648 11.6829 55.6832 11.5728C55.6688 11.7025 55.6573 11.8043 55.6467 11.9054C56.2096 12.0562 56.6277 11.9808 56.8913 11.2968C56.9819 11.0622 57.1008 10.9898 57.3483 11.1044C57.6975 11.2672 58.0582 11.4043 58.4277 11.5147C58.6169 11.5621 58.8153 11.56 59.0035 11.5087C59.2625 11.4416 59.4742 11.4333 59.7203 11.5841C59.8848 11.6837 60.1202 11.6686 60.351 11.7101C60.2938 11.8745 60.2352 12.0457 60.1689 12.238C59.6472 12.0457 59.5504 12.5661 59.261 12.7592C58.9563 12.9621 58.7064 13.2471 58.4094 13.5179C58.2875 13.0948 58.0735 13.3671 57.845 13.4018C57.1655 13.5006 57.0459 14.1122 56.7024 14.5218C56.6864 14.5414 56.7085 14.5927 56.7184 14.6726C57.2706 14.6115 57.4527 13.8867 58.0681 13.9184C58.0796 14.0466 58.0887 14.1529 58.0986 14.2751C58.3271 14.2751 58.564 14.3083 58.7841 14.2646C58.9829 14.2254 59.165 14.1009 59.4156 13.9855C59.574 14.0783 59.5862 14.1183 59.4011 14.257C58.9441 14.6002 58.4871 14.9358 57.9988 15.2986C57.9612 15.224 57.911 15.1564 57.8503 15.0987C57.7802 15.0474 57.6332 14.9886 57.5951 15.0233C57.3354 15.2398 57.0901 15.4758 56.8509 15.7127C56.6118 15.9495 56.6163 16.1818 56.9515 16.4231C56.7547 16.5396 56.5513 16.6447 56.3421 16.7376C56.1075 16.8274 56.0747 16.9812 55.9971 17.2052C55.9102 17.4519 56.0907 17.9006 55.6048 17.9738C55.5636 17.9806 55.5149 18.2 55.5408 18.3034C55.5766 18.4444 55.6802 18.5681 55.7609 18.7099C55.476 19.1624 55.1104 19.713 54.7707 20.2824C54.6542 20.4785 54.6854 20.6693 54.904 20.836C55.1236 21.0164 55.3223 21.2202 55.4966 21.4439C55.5431 21.499 55.5134 21.6174 55.5187 21.7071C55.4412 21.7147 55.3631 21.7147 55.2856 21.7071C54.9809 21.6513 54.7151 21.542 54.5795 21.2259C54.5582 21.1777 54.335 21.1505 54.3243 21.1716C54.2162 21.3843 54.0608 21.3888 53.8559 21.3413C53.7721 21.3217 53.6571 21.3723 53.5748 21.4213C53.3716 21.5386 53.1764 21.6691 52.9906 21.812C52.8954 21.8874 52.7689 22.0028 52.7689 22.1001C52.7689 22.4447 52.564 22.4998 52.2875 22.5813C51.8739 22.7042 51.5098 22.9237 51.4108 23.4064C51.3743 23.5813 51.2638 24.7866 51.3042 24.9374C51.4481 25.4812 52.3652 25.9299 52.8832 25.6863C53.0096 25.6268 53.0614 25.4201 53.1879 25.3439C53.5405 25.1282 53.7386 24.8816 53.5687 24.4464C53.5451 24.3876 53.6876 24.242 53.779 24.1658C53.9389 24.0331 54.1194 23.923 54.3419 23.7684C54.3899 24.2729 54.4333 24.7338 54.4889 25.3273C54.7875 25.1659 55.0289 25.0799 55.2102 24.9238C55.3671 24.7881 55.4448 24.5618 55.7183 24.6274C55.9917 24.693 55.9971 24.8914 56.0146 25.1184C56.0496 25.5709 56.2835 25.8945 56.6468 25.9254C56.8532 25.942 57.0718 25.8093 57.2942 25.7414C57.279 25.9601 57.2463 26.1766 56.9004 26.1487C56.5546 26.1208 56.2225 26.1117 55.8843 26.083C55.8125 26.07 55.7467 26.0349 55.6962 25.9827C55.3237 25.626 55.0921 25.6471 54.6191 25.8719C54.28 26.0172 53.9131 26.0882 53.5436 26.08C53.0378 26.08 52.8779 26.0363 52.7194 26.5152C52.6935 26.5906 52.5671 26.6547 52.4711 26.6872C52.2847 26.7478 52.095 26.7981 51.9029 26.838C51.5449 26.9187 51.1854 26.9941 50.8258 27.0711C50.6925 27.0997 50.547 27.1035 50.4275 27.1608C50.1989 27.2702 50.0047 27.188 49.9087 27.01C49.7244 26.6691 49.4266 26.7083 49.1234 26.694C48.415 26.6691 47.7059 26.6344 46.9975 26.5997C46.9503 26.5997 46.9068 26.5559 46.8589 26.5424C46.7141 26.5016 46.5671 26.4669 46.4209 26.4277C46.3851 26.5876 46.3447 26.7475 46.3074 26.9308C46.7438 26.9685 47.1216 26.9828 47.4918 27.0417C47.6792 27.0711 47.8476 27.2121 48.0342 27.2468C48.236 27.2838 48.4508 27.2551 48.7593 27.2551C48.1279 27.74 47.4438 27.2008 46.8733 27.5786C46.8589 27.4753 46.8451 27.3743 46.8276 27.2498C46.7636 27.2393 46.6936 27.2249 46.6227 27.2159C46.3843 27.1872 46.1368 27.1917 45.909 27.1269C45.4733 27.0024 45.0528 26.8192 44.6377 27.1834C44.5753 27.2377 44.4435 27.2317 44.3452 27.2264C43.9423 27.2031 43.5371 27.1849 43.1364 27.1337C42.8447 27.0967 42.6489 26.933 42.5407 26.6329C42.4466 26.377 42.3076 26.1396 42.1302 25.9315C41.9017 25.6622 41.6145 25.5151 41.2329 25.7052C40.9823 25.8289 40.6997 25.896 40.395 26.0069C40.229 25.7052 39.9563 25.724 39.6234 25.9134C39.5107 25.9775 39.3309 25.9134 39.1877 25.9405C39.0582 25.9788 38.9327 26.0293 38.8129 26.0913C38.9213 26.1861 39.0355 26.274 39.155 26.3546C39.2113 26.3878 39.2997 26.3681 39.3835 26.3727C39.1039 26.8252 38.7992 26.881 38.5006 26.5114C38.2965 26.258 38.1335 26.4466 38.0322 26.5424C37.7976 26.7686 37.5561 26.844 37.2294 26.8569C37.0008 26.8637 36.748 27.0077 36.5621 27.1586C36.1089 27.5251 35.6808 27.9226 35.2565 28.3223C34.8688 28.6881 34.4514 29.0373 34.1376 29.4597C33.9175 29.7553 33.8489 30.1611 33.7141 30.5155C33.6272 30.7463 33.545 30.9786 33.4642 31.1943L33.2174 30.8964C33.1504 31.0194 33.0514 31.1363 33.0263 31.2667C32.9973 31.4236 33.0263 31.5918 33.0392 31.7547C33.0621 32.1243 33.0956 32.1409 33.4543 31.9387C33.4452 32.3543 33.2776 32.6281 32.9211 32.8536C32.7437 32.9652 32.6545 33.2435 32.5685 33.4638C32.3354 34.0581 32.1252 34.6614 31.9058 35.261L31.7748 35.2196L32.3506 33.4426L32.2653 33.3589Z" fill="#2A63ED"/>
<path d="M57.418 25.3837C57.4901 25.3591 57.5657 25.346 57.6419 25.3447C58.1232 25.4198 58.1513 25.3672 58.3252 24.92C58.477 24.5397 58.7131 24.194 58.9583 23.846C59.054 24.1466 59.0092 24.4908 59.3972 24.5931C59.4518 24.2729 59.5019 23.9737 59.5528 23.6746L59.6705 23.7685C59.8762 23.7174 60.0789 23.64 60.2877 23.6182C60.6536 23.5844 60.9709 23.5243 61.185 23.1673C61.2222 23.1049 61.721 23.183 61.7369 23.2552C61.8068 23.5679 62.052 23.504 62.1773 23.4506C62.5174 23.3041 62.7269 23.507 62.9881 23.6348C63.1186 23.6986 63.3639 23.7182 63.458 23.64C63.8429 23.3228 64.1823 23.4717 64.5209 23.6799C64.7486 23.8182 64.9506 23.985 65.2041 24.1669L64.5619 24.7471C64.7995 25.059 65.0219 25.0478 65.2147 24.7471C65.2907 24.6291 65.3787 24.5217 65.4615 24.4059L65.5867 24.4811C65.5161 24.6209 65.4417 24.7592 65.3772 24.902C65.3452 24.982 65.3179 25.0638 65.2952 25.147C65.3894 25.147 65.5063 25.1853 65.5723 25.147C65.6571 25.0806 65.7182 24.9893 65.7469 24.8862C65.8623 24.5149 66.0962 24.3781 66.4894 24.4811C66.8788 24.5841 67.2849 24.6097 67.6844 24.5562C68.1399 24.5006 68.6462 24.7734 69.1177 24.9395C69.2058 24.9696 69.2953 25.1831 69.2748 25.2913C69.212 25.6613 69.1102 26.0238 68.9712 26.3728C68.789 26.8043 68.4663 27.138 68.6941 27.7114C68.9218 28.2849 68.7115 28.9343 68.4542 29.4807C68.3373 29.7303 67.9227 29.8295 67.6859 30.0414C67.4672 30.2361 67.2949 30.4849 67.121 30.7231C67.1041 30.7621 67.0958 30.8042 67.0967 30.8466C67.0976 30.889 67.1077 30.9307 67.1264 30.9689C67.345 31.4424 67.2023 31.8242 66.8538 32.1715C66.7999 32.2256 66.7931 32.327 66.768 32.4067C66.6534 32.7652 66.5729 33.1388 66.418 33.4785C66.2791 33.7791 66.0688 33.7671 65.8676 33.4883C65.8001 33.3951 65.7219 33.3101 65.6164 33.1824C65.482 33.5183 65.6095 33.7085 65.7993 33.8851C66.1827 34.2474 66.065 34.8021 65.567 35.0238C65.0811 35.2402 65.0538 35.141 65.1738 35.7694L64.6795 35.8408L64.6188 35.9362L65.0826 36.3436C64.9688 36.6893 64.8329 37.1035 64.6886 37.5462L65.1882 37.6318C65.1069 37.84 65.0485 38.0219 64.9665 38.1933C64.64 38.8802 64.839 39.2741 65.6877 39.4394L64.949 39.9844C64.9673 39.695 64.9771 39.5394 64.987 39.3831L64.8731 39.3169C64.7828 39.4673 64.6917 39.6108 64.5884 39.7784C64.2384 39.6281 64.0145 39.3425 63.8528 38.9975C63.8012 38.8885 63.7465 38.7818 63.6569 38.745C63.5704 38.5488 63.4557 38.3601 63.4049 38.1557C63.3698 37.9893 63.3747 37.8171 63.4193 37.6529C63.4846 37.4026 63.5362 37.1764 63.3236 36.9637C63.2586 36.8872 63.2181 36.7932 63.2075 36.6938C63.1156 36.0174 62.7072 35.3906 62.9357 34.6698C62.9661 34.5728 62.8651 34.4443 62.8453 34.3218C62.7937 34.0121 62.7512 33.701 62.7095 33.3898C62.7108 33.3027 62.7068 33.2156 62.6973 33.129C62.5455 32.5563 62.3883 31.9858 62.2365 31.4138C62.0846 30.8419 61.5859 30.6803 61.1258 30.7374C60.5185 30.8126 60.2611 30.3872 59.8921 30.1188C59.5847 29.8933 59.3311 29.5995 59.0358 29.3575C58.9227 29.2667 58.7834 29.214 58.638 29.2071C58.354 29.2071 58.2584 29.0831 58.3464 28.8313C58.4345 28.5795 58.4026 28.3676 58.1787 28.203C57.9934 28.067 58.0147 27.9467 58.1065 27.7332C58.269 27.3574 58.4163 26.9418 58.43 26.539C58.452 25.9046 57.9319 25.6641 57.418 25.3837Z" fill="#2A63ED"/>
<path d="M73.1028 2.19748C72.8573 2.37763 72.6102 2.55629 72.3669 2.73869C71.9708 3.0377 71.9693 3.24551 72.357 3.549C72.3107 3.6701 72.2134 3.79793 72.2286 3.9123C72.2841 4.33689 72.0932 4.46547 71.6964 4.4251C71.5763 4.41314 71.4508 4.46397 71.3269 4.48042C71.0304 4.52078 71.0228 4.69197 71.1239 4.91099C71.1886 5.04928 71.2623 5.18384 71.3322 5.31989L71.2364 5.44622C71.0844 5.37146 70.9255 5.29148 70.7681 5.22196C70.6108 5.15244 70.477 5.06199 70.3249 5.04555C70.2573 5.03882 70.1318 5.18309 70.1098 5.27653C70.0953 5.33483 70.2109 5.45145 70.2937 5.4963C70.4085 5.5576 70.5477 5.57554 70.7826 5.64207L68.1841 6.37614C68.1719 6.37614 68.1552 6.38137 68.1491 6.38959C67.7621 6.98761 67.0597 6.90314 66.5024 7.13712C66.2965 7.21872 66.1109 7.34287 65.9581 7.50116C65.8684 7.59909 65.8866 7.79195 65.8478 7.98555C65.489 7.94967 65.4335 8.19262 65.4426 8.55442C65.4502 8.86614 65.0541 9.03433 64.7584 8.89828C64.6634 8.85493 64.5113 8.80783 64.4429 8.85044C63.9297 9.17487 63.523 8.70094 63.0593 8.683C63.0068 8.683 62.965 8.55293 62.9072 8.49088C62.8494 8.42884 62.7909 8.33166 62.721 8.3197C62.0611 8.21056 61.9904 8.11862 62.1546 7.53929C62.1607 7.51835 62.1432 7.49219 62.1477 7.50789C61.9516 7.43314 61.6232 7.33596 61.6292 7.30905C61.6901 7.02872 61.9159 6.93529 62.2108 6.94575V7.31951C62.3758 7.29858 62.5575 7.31054 62.6944 7.23878C62.743 7.21336 62.7324 6.94874 62.6624 6.85754C62.3956 6.50621 61.8261 6.50621 61.5221 6.83287C61.4536 6.90763 61.3959 6.98238 61.3229 7.07582C61.2324 6.88894 61.1374 6.75513 61.1009 6.60638C61.0249 6.30737 60.7968 6.2214 60.5421 6.21617C59.6572 6.19972 58.7935 6.27896 57.9763 6.67664C57.8242 6.7514 57.6038 6.68711 57.4814 6.68711C57.2867 6.87399 57.1438 7.12142 56.9492 7.16702C56.7546 7.21262 56.4999 7.0676 56.2695 7.00555C56.7774 6.44715 57.4859 6.22738 58.1633 5.97322C59.702 5.39239 61.2446 4.81082 62.8145 4.31895C64.208 3.8824 65.6342 3.54377 67.0566 3.20439C68.2213 2.92631 69.3982 2.6901 70.5773 2.47481C71.4014 2.3253 72.2377 2.24009 73.0686 2.12646L73.1028 2.19748Z" fill="#2A63ED"/>
<path d="M106.521 43.7196C106.477 43.525 106.43 43.3304 106.392 43.1342C106.372 43.068 106.375 42.9968 106.402 42.9328C106.632 42.6158 106.57 42.2767 106.5 41.9346C106.493 41.9004 106.477 41.8586 106.489 41.8313C106.699 41.3668 106.38 41.4246 106.099 41.439C106.034 41.439 105.969 41.4337 105.823 41.4268C106.193 41.1433 106.179 40.8506 105.966 40.5747C105.764 40.3139 105.849 39.9148 105.5 39.7232C105.205 39.5613 104.862 39.4572 104.682 39.1204C104.651 39.0626 104.422 39.0489 104.329 39.0976C104.105 39.2131 103.954 39.1189 103.774 39.0109C103.572 38.8893 103.344 38.8125 103.136 38.6993C102.94 38.5921 102.724 38.4925 102.574 38.3366C102.329 38.0827 102.412 37.8805 102.768 37.8402C102.998 37.8159 103.03 37.7057 103.036 37.5149C103.047 37.1234 102.964 36.6703 103.135 36.3594C103.306 36.0485 103.357 35.6927 103.528 35.3886C103.699 35.0845 104.325 35.1149 104.653 35.3977C104.899 35.6083 105.204 35.7543 105.497 35.9033C105.546 35.9284 105.685 35.8425 105.745 35.7748C105.908 35.5908 106.069 35.606 106.289 35.6775C106.474 35.7315 106.671 35.7275 106.853 35.6661C107.195 35.5429 107.39 35.6288 107.426 36.0067C107.458 36.3518 107.534 36.5198 107.905 36.2697C108.003 36.2035 108.185 36.2598 108.338 36.2598C108.382 36.5411 108.445 36.7919 108.698 36.5228L109.328 37.2754C109.318 37.2952 109.31 37.3514 109.285 37.3575C108.76 37.5468 108.865 37.9201 108.988 38.31C109.074 38.5829 109.131 38.8642 109.213 39.1386C109.233 39.2187 109.283 39.2884 109.352 39.334C109.574 39.4313 110.136 39.1227 110.232 38.8939C110.318 38.6938 110.441 38.5114 110.595 38.3564C110.365 39.1014 110.69 39.9232 110.227 40.6271C110.139 40.7601 110.183 41.0011 110.215 41.1851C110.404 42.2988 110.269 43.3296 109.353 44.1027C109.092 44.3232 108.709 44.4068 108.376 44.5375C107.993 44.6896 107.603 44.7656 107.258 44.4486C107.142 44.3406 107.051 44.2069 106.945 44.0883C106.829 43.9575 106.71 43.8306 106.592 43.7013L106.521 43.7196Z" fill="#2A63ED"/>
<path d="M111.977 39.8471C111.957 39.4624 111.916 39.0693 111.922 38.6807C111.928 38.3215 111.555 37.956 111.172 38.0499C110.821 38.136 110.767 37.9729 110.73 37.7144C110.7 37.509 110.633 37.3051 110.629 37.0989C110.629 37.002 110.787 36.8997 110.787 36.8058C110.772 36.5319 110.762 36.2373 110.652 35.9926C110.457 35.5579 110.191 35.1532 109.959 34.7439L110.415 34.54C110.771 34.9809 111.213 35.4271 111.528 35.9464C111.894 36.5504 112.16 37.2136 112.184 37.9391C112.202 38.4776 112.239 39.0162 112.254 39.5501C112.254 39.6525 112.196 39.7563 112.164 39.8579L111.977 39.8471Z" fill="#2A63ED"/>
<path d="M106.679 31.5011C105.648 30.6953 105.447 30.1574 105.756 29.3486C105.996 29.3684 106.239 29.319 106.39 29.4148C106.75 29.6431 107.206 29.3631 107.532 29.6834C107.683 29.8303 107.788 29.7854 107.858 29.5891C107.879 29.5297 107.96 29.4909 108.046 29.4696C107.97 29.7268 108.197 30.0479 107.789 30.2259C107.666 30.2792 107.686 30.6649 107.631 30.9388C107.245 30.9563 106.779 30.8932 106.679 31.5011Z" fill="#2A63ED"/>
<path d="M90.7958 25.1704C91.0345 25.4372 90.9728 25.7502 90.8397 26.0063C90.4917 26.6774 90.111 27.3317 89.7147 27.9746C89.6582 28.0666 89.4329 28.1008 89.3035 28.0734C89.2366 28.0597 89.1704 27.85 89.1719 27.7299C89.1778 27.3499 89.1265 26.9441 89.4373 26.6325C89.4701 26.5991 89.4663 26.511 89.4552 26.4532C89.3741 26.0155 89.3808 25.7358 89.9853 25.7609C90.2344 25.7723 90.4984 25.3976 90.7958 25.1704Z" fill="#2A63ED"/>
<path d="M78.1809 5.90724C77.5979 5.70281 77.0012 5.72401 76.8008 5.17206C77.0866 5.02063 77.316 4.84876 77.572 4.79349C77.7397 4.75563 77.9592 4.86239 78.1306 4.95098C78.2191 4.9964 78.2587 5.14177 78.3128 5.24626C78.3669 5.35074 78.389 5.50898 78.4751 5.58242C78.7098 5.78079 78.988 5.92995 79.2166 6.13362C79.3386 6.24265 79.3935 6.42512 79.4788 6.57428C79.3066 6.64999 79.1404 6.76886 78.9629 6.78854C78.6534 6.82276 78.3408 6.81869 78.0323 6.77643C77.8632 6.7522 77.71 6.61062 77.5499 6.52203C77.6406 6.41679 77.7252 6.30549 77.8243 6.20858C77.9234 6.11166 78.0331 6.0299 78.1809 5.90724Z" fill="#2A63ED"/>
<path d="M118.375 27.9431C118.319 28.2541 118.28 28.4774 118.254 28.6188C117.972 28.7412 117.754 28.8355 117.448 28.9689C117.345 28.9129 117.153 28.8053 116.958 28.7036C116.763 28.6019 116.541 28.498 116.336 28.3889C116.249 28.3432 116.128 28.2946 116.106 28.2217C116.03 27.9895 115.889 27.9077 115.635 27.893C115.531 27.8871 115.45 27.6852 115.341 27.5909C115.252 27.5172 115.122 27.3941 115.035 27.4111C114.601 27.5002 114.515 27.4428 114.559 27.0132C114.572 26.9459 114.592 26.8799 114.618 26.8164C114.874 26.879 115.123 26.9093 115.341 27.0036C115.499 27.0721 115.618 27.2246 115.753 27.3418C115.968 27.5275 116.177 27.7228 116.402 27.8982C116.545 28.0102 116.722 28.0816 116.869 28.1929C117.196 28.4309 117.519 28.2917 117.839 28.1929C117.996 28.1399 118.145 28.0485 118.375 27.9431Z" fill="#2A63ED"/>
<path d="M104.602 29.4646L104.035 29.9819C103.915 29.7028 103.712 29.3619 103.627 28.9956C103.548 28.6756 103.652 28.3213 103.595 27.9945C103.492 27.4109 103.327 26.8371 103.199 26.3101C103.376 26.3599 103.647 26.948 103.911 27.8226C104.095 28.4002 104.388 28.951 104.602 29.4646Z" fill="#2A63ED"/>
<path d="M72.084 7.2907C72.2904 7.27607 72.5136 7.20156 72.6682 7.26143C73.1952 7.46499 73.6857 7.26143 74.1914 7.22019C74.4702 7.19757 74.7711 7.11308 75.0171 7.39847C74.6652 7.51023 74.3278 7.60536 74.0026 7.72377C73.6629 7.84817 73.3795 7.88542 73.0338 7.66656C72.7839 7.5089 72.2858 7.82488 72.084 7.2907Z" fill="#2A63ED"/>
<path d="M75.9102 6.03298C76.154 5.90582 76.358 5.74907 76.5921 5.68748C76.7474 5.6467 77.0294 5.68749 77.0928 5.79066C77.1781 5.92902 77.2854 6.19054 76.9993 6.3313C76.9091 6.37529 76.8368 6.46166 76.7425 6.49125C76.51 6.56723 76.271 6.62162 76.0345 6.6848C75.9914 6.46166 75.9484 6.23453 75.9102 6.03298Z" fill="#2A63ED"/>
<path d="M108.811 49.7423C108.958 49.7423 109.031 49.7234 109.087 49.7423C109.485 49.9001 109.883 50.0599 110.274 50.234C110.355 50.2706 110.404 50.3695 110.468 50.4372C110.365 50.5049 110.248 50.6356 110.161 50.6187C109.81 50.5476 109.443 50.4738 109.132 50.3146C108.978 50.2381 108.933 49.9746 108.811 49.7423Z" fill="#2A63ED"/>
<path d="M61.3721 12.7044L59.8421 13.2686C59.8346 12.6874 59.9506 12.5612 60.5348 12.5203C60.6083 12.521 60.6807 12.5028 60.7449 12.4676C61.0122 12.2828 61.1771 12.4149 61.3721 12.7044Z" fill="#2A63ED"/>
<path d="M104.232 25.5503C104.731 26.4289 104.834 27.327 104.637 28.3358C104.485 28.0023 104.274 27.7336 104.249 27.4475C104.197 26.8316 104.232 26.2098 104.232 25.5503Z" fill="#2A63ED"/>
<path d="M98.0979 4.78499C97.3567 4.79949 96.9841 4.16629 96.3125 3.92622C96.9825 3.78283 97.8574 4.22429 98.0979 4.78499Z" fill="#2A63ED"/>
<path d="M118.318 27.7031C118.461 27.7528 118.608 27.7887 118.757 27.8103C119.031 27.8267 119.176 27.9511 119.256 28.2133C119.312 28.3954 119.434 28.5565 119.526 28.7273C119.598 28.8377 119.641 28.9645 119.651 29.0959L118.248 27.7473L118.318 27.7031Z" fill="#2A63ED"/>
<path d="M43.0746 15.2944C43.2728 15.6609 42.9303 15.8217 42.7754 15.9651C42.3857 16.3273 41.925 16.617 41.4971 16.9415C41.343 17.0588 41.2032 17.1935 41.0573 17.3203L40.9668 17.2203L43.0746 15.2944Z" fill="#2A63ED"/>
<path d="M110.407 29.2225L109.974 29.1516C109.926 28.8064 109.878 28.4674 109.83 28.1253C110.123 28.1079 110.374 28.0611 110.613 28.0951C110.701 28.1079 110.759 28.3095 110.85 28.4583C109.999 28.5217 109.999 28.5217 110.407 29.2225Z" fill="#2A63ED"/>
<path d="M46.0685 13.8735C45.9711 14.0843 45.9165 14.3468 45.7601 14.4875C45.6538 14.5826 45.4037 14.5058 45.2178 14.5058L45.1758 14.3658L45.9135 13.7754L46.0685 13.8735Z" fill="#2A63ED"/>
<path d="M109.447 30.3618L110.161 30.8305C110.183 30.8043 110.206 30.7781 110.228 30.7512C110.244 30.7718 110.27 30.79 110.275 30.8122C110.317 31.0216 110.456 31.3079 110.125 31.3673C109.81 31.4228 109.694 31.1564 109.634 30.8915C109.583 30.7117 109.521 30.5348 109.447 30.3618Z" fill="#2A63ED"/>
<path d="M58.1836 22.1903C58.7388 21.5513 58.9755 21.4733 59.2038 21.8591C58.879 21.9974 58.6347 22.4217 58.1836 22.1903Z" fill="#2A63ED"/>
<path d="M111.035 50.3778L111.359 50.2402C111.403 50.4964 111.445 50.7423 111.489 50.9999L110.979 50.9641C110.996 50.7687 111.015 50.5857 111.035 50.3778Z" fill="#2A63ED"/>
<path d="M107.776 33.1472C107.737 32.9511 107.638 32.7785 107.692 32.6691C107.892 32.2543 107.673 32.1622 107.295 32.1489C107.26 32.1489 107.227 32.1153 107.152 32.0762L107.638 31.7544C107.915 31.9528 108.031 32.791 107.776 33.1472Z" fill="#2A63ED"/>
<path d="M47.8529 11.8959L45.8125 12.5091C46.4342 12.1051 47.0847 11.7927 47.8529 11.8959Z" fill="#2A63ED"/>
<path d="M44.5371 13.8881L45.3023 13.269C45.2644 13.7409 44.994 13.9621 44.5371 13.8881Z" fill="#2A63ED"/>
<path d="M100.011 22.8916C99.9377 23.2285 99.8905 23.4731 99.8264 23.7779C99.5151 23.4598 99.5682 23.2316 100.011 22.8916Z" fill="#2A63ED"/>
<path d="M43.7734 13.5321C44.0644 13.4215 44.2867 13.1507 44.7936 13.3273L43.8284 13.6489L43.7734 13.5321Z" fill="#2A63ED"/>
</svg>
