<svg width="9" height="6" viewBox="0 0 9 6" fill="none" xmlns="http://www.w3.org/2000/svg">
<path d="M8.25002 0.877518C8.1095 0.73783 7.91941 0.659424 7.72127 0.659424C7.52313 0.659424 7.33305 0.73783 7.19252 0.877518L4.50002 3.53252L1.84502 0.877518C1.7045 0.73783 1.51441 0.659424 1.31627 0.659424C1.11813 0.659424 0.928044 0.73783 0.787523 0.877518C0.717226 0.94724 0.66143 1.03019 0.623354 1.12159C0.585277 1.21298 0.565674 1.31101 0.565674 1.41002C0.565674 1.50903 0.585277 1.60706 0.623354 1.69845C0.66143 1.78985 0.717226 1.8728 0.787523 1.94252L3.96752 5.12252C4.03724 5.19281 4.1202 5.24861 4.21159 5.28669C4.30298 5.32476 4.40101 5.34437 4.50002 5.34437C4.59903 5.34437 4.69706 5.32476 4.78846 5.28669C4.87985 5.24861 4.9628 5.19281 5.03252 5.12252L8.25002 1.94252C8.32032 1.8728 8.37611 1.78985 8.41419 1.69845C8.45227 1.60706 8.47187 1.50903 8.47187 1.41002C8.47187 1.31101 8.45227 1.21298 8.41419 1.12159C8.37611 1.03019 8.32032 0.94724 8.25002 0.877518Z" fill="#797B86"/>
</svg>
